<svg width="30" height="30" viewBox="0 0 30 30" fill="none" xmlns="http://www.w3.org/2000/svg">
<path d="M18.2141 17.5068L21.6541 20.9468C22.0052 20.7585 22.4067 20.6856 22.8017 20.7385C23.1966 20.7914 23.5648 20.9673 23.8541 21.2413C24.1012 21.4838 24.2754 21.7907 24.3571 22.1271C24.4388 22.4635 24.4246 22.8161 24.3163 23.1449C24.2079 23.4737 24.0096 23.7656 23.7439 23.9875C23.4782 24.2094 23.1556 24.3525 22.8128 24.4006C22.4699 24.4486 22.1205 24.3997 21.804 24.2594C21.4875 24.1191 21.2166 23.893 21.022 23.6066C20.8274 23.3203 20.7169 22.9852 20.7029 22.6393C20.689 22.2933 20.7722 21.9504 20.9431 21.6493L17.5076 18.2138C17.5095 18.2566 17.5162 18.2991 17.5276 18.3403L19.8501 25.7268C19.8826 25.8329 19.9463 25.9267 20.0331 25.9958C20.1198 26.065 20.2254 26.1063 20.3361 26.1143L23.8296 26.3643L26.3676 23.8268L26.1176 20.3238C26.1078 20.2149 26.0658 20.1112 25.9969 20.0263C25.9279 19.9413 25.8352 19.8788 25.7306 19.8468L18.3406 17.5268C18.2993 17.5154 18.2569 17.5087 18.2141 17.5068Z" fill="#52921B"/>
<path d="M1 19.5C1.00172 20.9582 1.58174 22.3561 2.61281 23.3872C3.64389 24.4183 5.04184 24.9983 6.5 25H18.5715L17.4775 21.5185C17.0491 21.8328 16.5313 22.0015 16 22H10.5C9.8372 21.9992 9.20178 21.7356 8.73311 21.2669C8.26444 20.7982 8.00079 20.1628 8 19.5V8C7.73478 8 7.48043 7.89464 7.29289 7.70711C7.10536 7.51957 7 7.26522 7 7V5C7 4.73478 7.10536 4.48043 7.29289 4.29289C7.48043 4.10536 7.73478 4 8 4H13C13.2652 4 13.5196 4.10536 13.7071 4.29289C13.8946 4.48043 14 4.73478 14 5V7C14 7.26522 13.8946 7.51957 13.7071 7.70711C13.5196 7.89464 13.2652 8 13 8V17.5H14.5V16C14.5 15.7348 14.6054 15.4804 14.7929 15.2929C14.9804 15.1054 15.2348 15 15.5 15H17.5C17.7652 15 18.0196 15.1054 18.2071 15.2929C18.3946 15.4804 18.5 15.7348 18.5 16V16.539C18.547 16.5495 18.594 16.558 18.64 16.573L25 18.573V6.5C24.9983 5.04184 24.4183 3.64389 23.3872 2.61281C22.3561 1.58174 20.9582 1.00172 19.5 1H6.5C5.04184 1.00172 3.64389 1.58174 2.61281 2.61281C1.58174 3.64389 1.00172 5.04184 1 6.5V19.5Z" fill="#52921B"/>
<path d="M17.5 16.6425V16H15.5V17.5C15.5 17.7652 15.3946 18.0196 15.2071 18.2071C15.0196 18.3946 14.7652 18.5 14.5 18.5H13C12.7348 18.5 12.4804 18.3946 12.2929 18.2071C12.1054 18.0196 12 17.7652 12 17.5V7.5C12 7.36739 12.0527 7.24021 12.1464 7.14645C12.2402 7.05268 12.3674 7 12.5 7H13V5H8V7H8.5C8.63261 7 8.75979 7.05268 8.85355 7.14645C8.94732 7.24021 9 7.36739 9 7.5V19.5C9 19.8978 9.15804 20.2794 9.43934 20.5607C9.72064 20.842 10.1022 21 10.5 21H16C16.2193 20.9991 16.4356 20.9492 16.6332 20.8541C16.8307 20.7589 17.0046 20.6209 17.142 20.45L16.573 18.64C16.4846 18.3531 16.4767 18.0475 16.5504 17.7565C16.624 17.4654 16.7763 17.2003 16.9905 16.99C17.1375 16.8438 17.3102 16.726 17.5 16.6425Z" fill="#52921B"/>
<path d="M27.9935 24.3209C27.8997 24.2274 27.7727 24.1748 27.6402 24.1748C27.5077 24.1748 27.3807 24.2274 27.287 24.3209L24.321 27.2864C24.2272 27.3802 24.1746 27.5074 24.1746 27.6399C24.1746 27.7725 24.2272 27.8997 24.321 27.9934L25.1805 28.8534C25.2744 28.9469 25.4014 28.9995 25.534 28.9999H28.5C28.6326 28.9999 28.7597 28.9473 28.8535 28.8535C28.9473 28.7597 29 28.6326 29 28.4999V25.5339C28.9995 25.4014 28.9469 25.2744 28.8535 25.1804L27.9935 24.3209Z" fill="#52921B"/>
<path d="M23.1445 23.15C23.2956 22.99 23.3784 22.7774 23.3754 22.5574C23.3725 22.3373 23.2841 22.1271 23.1288 21.9711C22.9736 21.8152 22.7637 21.7258 22.5437 21.7218C22.3237 21.7179 22.1108 21.7997 21.95 21.95C21.7909 22.1086 21.7013 22.3239 21.7009 22.5486C21.7006 22.7732 21.7894 22.9889 21.948 23.148C22.1066 23.3071 22.322 23.3967 22.5466 23.3971C22.7713 23.3975 22.9869 23.3086 23.146 23.15H23.1445Z" fill="#52921B"/>
</svg>
