<svg width="334" height="108" viewBox="0 0 334 108" fill="none" xmlns="http://www.w3.org/2000/svg">
<path fill-rule="evenodd" clip-rule="evenodd" d="M0 47.6808C0 40.2778 6.00129 34.2766 13.4043 34.2766H30.1596C33.8611 34.2766 36.8617 37.2772 36.8617 40.9787C36.8617 41.3858 36.8254 41.7844 36.7559 42.1715C39.9776 42.659 42.4468 45.4401 42.4468 48.7978V64.4361H56.9681C60.6696 64.4361 63.6702 67.4368 63.6702 71.1383C63.6702 74.8397 60.6696 77.8404 56.9681 77.8404H42.4468V93.4787H56.9681C60.6696 93.4787 63.6702 96.4793 63.6702 100.181C63.6702 103.882 60.6696 106.883 56.9681 106.883H42.4468C35.0438 106.883 29.0426 100.882 29.0426 93.4787V77.8404H13.4043C6.00129 77.8404 0 71.8391 0 64.4361V47.6808ZM29.0426 64.4361V48.7978C29.0426 48.4172 29.0743 48.0441 29.1352 47.6808H13.4043V64.4361H29.0426Z" fill="#49A3CA"/>
<path fill-rule="evenodd" clip-rule="evenodd" d="M35.0606 43.3854C34.7328 42.9277 34.6041 42.3569 34.7036 41.8028C34.7514 41.5369 34.7766 41.2616 34.7766 40.9787C34.7766 38.4288 32.7095 36.3617 30.1596 36.3617H13.4043C7.15286 36.3617 2.08511 41.4294 2.08511 47.6808V64.4361C2.08511 70.6875 7.15286 75.7553 13.4043 75.7553H29.0426C30.1941 75.7553 31.1277 76.6888 31.1277 77.8404V93.4787C31.1277 99.7301 36.1954 104.798 42.4468 104.798H56.9681C59.518 104.798 61.5851 102.731 61.5851 100.181C61.5851 97.6309 59.518 95.5638 56.9681 95.5638H42.4468C41.2952 95.5638 40.3617 94.6303 40.3617 93.4787V77.8404C40.3617 76.6888 41.2952 75.7553 42.4468 75.7553H56.9681C59.518 75.7553 61.5851 73.6882 61.5851 71.1383C61.5851 68.5883 59.518 66.5212 56.9681 66.5212H42.4468C41.2952 66.5212 40.3617 65.5877 40.3617 64.4361V48.7978C40.3617 46.4866 38.6614 44.5687 36.4439 44.2331C35.8873 44.1489 35.3884 43.8432 35.0606 43.3854ZM31.1277 64.4361C31.1277 65.5877 30.1941 66.5212 29.0426 66.5212H13.4043C12.2527 66.5212 11.3192 65.5877 11.3192 64.4361V47.6808C11.3192 46.5292 12.2527 45.5957 13.4043 45.5957H29.1352C29.7485 45.5957 30.3307 45.8657 30.7269 46.3339C31.1231 46.8021 31.2931 47.4209 31.1916 48.0258C31.1497 48.2755 31.1277 48.5333 31.1277 48.7978V64.4361ZM36.811 41.8073C36.8445 41.5358 36.8617 41.2592 36.8617 40.9787C36.8617 37.2772 33.8611 34.2766 30.1596 34.2766H13.4043C6.00129 34.2766 0 40.2778 0 47.6808V64.4361C0 71.8391 6.00129 77.8404 13.4043 77.8404H29.0426V93.4787C29.0426 100.882 35.0438 106.883 42.4468 106.883H56.9681C60.6696 106.883 63.6702 103.882 63.6702 100.181C63.6702 96.4793 60.6696 93.4787 56.9681 93.4787H42.4468V77.8404H56.9681C60.6696 77.8404 63.6702 74.8397 63.6702 71.1383C63.6702 67.4368 60.6696 64.4361 56.9681 64.4361H42.4468V48.7978C42.4468 45.5671 40.1609 42.8703 37.1182 42.2366C36.9985 42.2117 36.8778 42.1899 36.7559 42.1715C36.7775 42.0512 36.7959 41.9298 36.811 41.8073ZM29.1352 47.6808C29.0743 48.0441 29.0426 48.4172 29.0426 48.7978V64.4361H13.4043V47.6808H29.1352Z" fill="white"/>
<path fill-rule="evenodd" clip-rule="evenodd" d="M31.2765 18.215C31.2765 11.0458 36.9921 5.23407 44.0425 5.23407H59.9999C67.0504 5.23407 72.7659 11.0458 72.7659 18.215V35.523H85.5319C92.5823 35.523 98.2978 41.3348 98.2978 48.5039V64.7301C98.2978 71.8993 92.5823 77.7111 85.5319 77.7111H72.7659V101.51C72.7659 105.094 69.9081 108 66.3829 108C62.8577 108 59.9999 105.094 59.9999 101.51V48.5039H44.0425C36.9921 48.5039 31.2765 42.6922 31.2765 35.523V18.215ZM59.9999 35.523V18.215H44.0425V35.523H59.9999ZM72.7659 48.5039V64.7301H85.5319V48.5039H72.7659Z" fill="#49A3CA"/>
<path fill-rule="evenodd" clip-rule="evenodd" d="M72.7659 37.757C71.5321 37.757 70.5319 36.7568 70.5319 35.523V18.215C70.5319 12.2443 65.7815 7.46811 59.9999 7.46811H44.0425C38.2609 7.46811 33.5106 12.2443 33.5106 18.215V35.523C33.5106 41.4937 38.2609 46.2699 44.0425 46.2699H59.9999C61.2338 46.2699 62.234 47.2701 62.234 48.5039V101.51C62.234 103.896 64.1266 105.766 66.3829 105.766C68.6393 105.766 70.5319 103.896 70.5319 101.51V77.7111C70.5319 76.4773 71.5321 75.4771 72.7659 75.4771H85.5319C91.3134 75.4771 96.0638 70.7008 96.0638 64.7301V48.5039C96.0638 42.5333 91.3134 37.757 85.5319 37.757H72.7659ZM59.9999 15.981C61.2338 15.981 62.234 16.9812 62.234 18.215V35.523C62.234 36.7568 61.2338 37.757 59.9999 37.757H44.0425C42.8087 37.757 41.8085 36.7568 41.8085 35.523V18.215C41.8085 16.9812 42.8087 15.981 44.0425 15.981H59.9999ZM72.7659 66.9642C71.5321 66.9642 70.5319 65.964 70.5319 64.7301V48.5039C70.5319 47.2701 71.5321 46.2699 72.7659 46.2699H85.5319C86.7657 46.2699 87.7659 47.2701 87.7659 48.5039V64.7301C87.7659 65.964 86.7657 66.9642 85.5319 66.9642H72.7659ZM44.0425 5.23407C36.9921 5.23407 31.2765 11.0458 31.2765 18.215V35.523C31.2765 42.6922 36.9921 48.5039 44.0425 48.5039H59.9999V101.51C59.9999 105.094 62.8577 108 66.3829 108C69.9081 108 72.7659 105.094 72.7659 101.51V77.7111H85.5319C92.5823 77.7111 98.2978 71.8993 98.2978 64.7301V48.5039C98.2978 41.3348 92.5823 35.523 85.5319 35.523H72.7659V18.215C72.7659 11.0458 67.0504 5.23407 59.9999 5.23407H44.0425ZM59.9999 35.523H44.0425V18.215H59.9999V35.523ZM72.7659 48.5039H85.5319V64.7301H72.7659V48.5039Z" fill="white"/>
<path d="M57.3512 6.47518C57.3512 3.77935 55.2302 1.5 52.5001 1.5C49.77 1.5 47.6491 3.77935 47.6491 6.47518V17.3972C47.6491 20.093 49.77 22.3723 52.5001 22.3723C55.2302 22.3723 57.3512 20.093 57.3512 17.3972V6.47518Z" fill="#49A3CA" stroke="white" stroke-width="3" stroke-linecap="round" stroke-linejoin="round"/>
<path d="M112.241 45.3078H118.989L124.291 58.9611L129.601 45.3078H136.34V67.7945H131.529V54.1496L126.385 67.7945H122.23L117.094 54.1496V67.7945H112.275L112.241 45.3078Z" fill="black"/>
<path d="M154.007 54.1496V58.9611H144.368V62.9831H154.007V67.7945H139.573V45.3078H154.032V50.1691H144.393V54.1911L154.007 54.1496Z" fill="black"/>
<path d="M166.854 45.3078C171.137 45.3078 173.278 47.4518 173.278 51.7397V61.371C173.278 65.6589 171.137 67.8001 166.854 67.7945H157.215V45.3078H166.854ZM168.458 51.7397C168.49 51.5214 168.471 51.2986 168.401 51.0891C168.332 50.8795 168.215 50.689 168.06 50.5326C167.904 50.3761 167.714 50.2581 167.505 50.1878C167.296 50.1175 167.073 50.0969 166.854 50.1276H162.01V62.9831H166.83C167.048 63.0138 167.271 62.9932 167.48 62.9229C167.689 62.8526 167.879 62.7345 168.035 62.5781C168.19 62.4217 168.307 62.2311 168.377 62.0216C168.446 61.8121 168.465 61.5893 168.433 61.371L168.458 51.7397Z" fill="black"/>
<path d="M181.314 45.3078V67.7945H176.494V45.3078H181.314Z" fill="black"/>
<path d="M189.341 61.371C189.309 61.5893 189.329 61.8121 189.398 62.0216C189.467 62.2311 189.584 62.4217 189.74 62.5781C189.895 62.7345 190.085 62.8526 190.295 62.9229C190.504 62.9932 190.726 63.0138 190.945 62.9831H198.981V67.7945H190.945C186.668 67.7945 184.527 65.6534 184.521 61.371V51.7397C184.521 47.4518 186.663 45.3078 190.945 45.3078H198.981V50.1691H190.945C190.726 50.1384 190.504 50.159 190.295 50.2293C190.085 50.2996 189.895 50.4177 189.74 50.5741C189.584 50.7305 189.467 50.9211 189.398 51.1306C189.329 51.3401 189.309 51.5629 189.341 51.7813V61.371Z" fill="black"/>
<path d="M221.467 67.7945H216.648L215.152 62.9831H206.883L205.388 67.7945H200.568L207.316 45.3078H214.703L221.467 67.7945ZM208.363 58.1633H213.689L211.038 50.1691L208.363 58.1633Z" fill="black"/>
<path d="M227.891 62.9831H237.531V67.7945H223.071V45.3078H227.891V62.9831Z" fill="black"/>
<path d="M245.558 61.371C245.528 61.5898 245.549 61.8126 245.619 62.0221C245.689 62.2315 245.807 62.4218 245.963 62.578C246.119 62.7342 246.31 62.8521 246.519 62.9224C246.729 62.9926 246.951 63.0134 247.17 62.9831H255.198V67.7945H247.17C242.882 67.7945 240.741 65.6534 240.747 61.371V51.7397C240.747 47.4518 242.888 45.3078 247.17 45.3078H255.198V50.1691H247.17C246.951 50.1388 246.729 50.1596 246.519 50.2298C246.31 50.3001 246.119 50.418 245.963 50.5742C245.807 50.7304 245.689 50.9207 245.619 51.1301C245.549 51.3396 245.528 51.5624 245.558 51.7813V61.371Z" fill="black"/>
<path d="M266.441 59.7671H263.233V67.7945H258.405V45.3078H268.045C272.322 45.3078 274.463 47.4518 274.468 51.7397V53.3435C274.468 55.9695 273.482 57.8226 271.51 58.9029L274.468 67.7945H269.649L266.441 59.7671ZM263.233 50.1691V54.9889H268.053C268.271 55.0193 268.493 54.9988 268.701 54.9289C268.91 54.8591 269.099 54.7418 269.254 54.5864C269.41 54.4309 269.527 54.2415 269.597 54.0331C269.667 53.8246 269.687 53.6028 269.657 53.3851V51.7813C269.689 51.5629 269.669 51.3401 269.6 51.1306C269.531 50.9211 269.414 50.7305 269.258 50.5741C269.103 50.4177 268.913 50.2996 268.703 50.2293C268.494 50.159 268.272 50.1384 268.053 50.1691H263.233Z" fill="black"/>
<path d="M294.554 61.371C294.554 65.6589 292.412 67.8001 288.13 67.7945H284.116C279.828 67.7945 277.684 65.6534 277.684 61.371V51.7397C277.684 47.4518 279.828 45.3078 284.116 45.3078H288.13C292.412 45.3078 294.554 47.4518 294.554 51.7397V61.371ZM282.504 61.371C282.474 61.5898 282.495 61.8126 282.565 62.0221C282.635 62.2315 282.753 62.4218 282.909 62.578C283.065 62.7342 283.256 62.8521 283.465 62.9224C283.675 62.9926 283.897 63.0134 284.116 62.9831H288.13C288.348 63.0138 288.571 62.9932 288.78 62.9229C288.989 62.8526 289.179 62.7345 289.335 62.5781C289.491 62.4217 289.608 62.2311 289.677 62.0216C289.746 61.8121 289.766 61.5893 289.734 61.371V51.7397C289.766 51.5214 289.746 51.2986 289.677 51.0891C289.608 50.8795 289.491 50.689 289.335 50.5326C289.179 50.3761 288.989 50.2581 288.78 50.1878C288.571 50.1175 288.348 50.0969 288.13 50.1276H284.116C283.897 50.0972 283.675 50.118 283.465 50.1883C283.256 50.2586 283.065 50.3765 282.909 50.5327C282.753 50.6889 282.635 50.8791 282.565 51.0886C282.495 51.298 282.474 51.5209 282.504 51.7397V61.371Z" fill="black"/>
<path d="M297.77 67.7946V62.9832H307.434C307.653 63.0135 307.876 62.9927 308.085 62.9224C308.295 62.8521 308.485 62.7343 308.641 62.5781C308.797 62.4218 308.915 62.2316 308.985 62.0221C309.056 61.8127 309.077 61.5898 309.046 61.371V60.54C309.077 60.3212 309.056 60.0983 308.985 59.8889C308.915 59.6795 308.797 59.4892 308.641 59.333C308.485 59.1768 308.295 59.0589 308.085 58.9886C307.876 58.9183 307.653 58.8975 307.434 58.9279H304.193C299.905 58.9279 297.764 56.7867 297.77 52.5043V51.6733C297.77 47.3854 299.911 45.2414 304.193 45.2414H313.833V50.1692H304.193C303.974 50.1388 303.751 50.1596 303.542 50.2299C303.333 50.3002 303.142 50.4181 302.986 50.5743C302.83 50.7305 302.712 50.9208 302.642 51.1302C302.571 51.3396 302.551 51.5625 302.581 51.7813V52.6123C302.551 52.8311 302.571 53.054 302.642 53.2634C302.712 53.4729 302.83 53.6632 302.986 53.8194C303.142 53.9756 303.333 54.0935 303.542 54.1637C303.751 54.234 303.974 54.2548 304.193 54.2245H307.434C311.722 54.2245 313.866 56.3656 313.866 60.648V61.479C313.866 65.767 311.722 67.9082 307.434 67.9026L297.77 67.7946Z" fill="black"/>
<path d="M317.04 67.7946V62.9832H326.68C326.898 63.0139 327.121 62.9932 327.33 62.9229C327.539 62.8526 327.729 62.7346 327.885 62.5782C328.041 62.4217 328.158 62.2312 328.227 62.0217C328.296 61.8121 328.316 61.5894 328.284 61.371V60.54C328.316 60.3217 328.296 60.0989 328.227 59.8894C328.158 59.6798 328.041 59.4893 327.885 59.3329C327.729 59.1764 327.539 59.0584 327.33 58.9881C327.121 58.9178 326.898 58.8972 326.68 58.9279H323.464C319.187 58.9279 317.046 56.7867 317.04 52.5043V51.6733C317.04 47.3854 319.181 45.2414 323.464 45.2414H333.103V50.1692H323.464C323.245 50.1385 323.023 50.1591 322.814 50.2294C322.604 50.2997 322.414 50.4177 322.259 50.5742C322.103 50.7306 321.986 50.9211 321.917 51.1307C321.848 51.3402 321.828 51.563 321.86 51.7813V52.6123C321.828 52.8307 321.848 53.0535 321.917 53.263C321.986 53.4725 322.103 53.663 322.259 53.8195C322.414 53.9759 322.604 54.0939 322.814 54.1642C323.023 54.2345 323.245 54.2552 323.464 54.2245H326.68C330.962 54.2245 333.103 56.3656 333.103 60.648V61.479C333.103 65.767 330.962 67.9082 326.68 67.9026L317.04 67.7946Z" fill="black"/>
</svg>
