<svg width="458" height="349" viewBox="0 0 458 349" fill="none" xmlns="http://www.w3.org/2000/svg">
<g opacity="0.07">
<path d="M273.881 277.434L361.513 283.802L384.488 285.472L386.152 262.583C368.128 263.791 350.325 258.053 336.399 246.548C322.472 235.042 313.478 218.642 311.263 200.714C307.684 199.721 304.028 199.025 300.334 198.631L299.472 198.586L220.048 192.831L218.547 213.483C217.431 229.295 222.628 244.905 233 256.892C243.372 268.879 258.073 276.266 273.881 277.434Z" fill="white"/>
<path d="M220.045 192.831L299.51 198.632L300.372 198.677C304.066 199.071 307.721 199.767 311.301 200.76C324.786 204.476 336.863 212.112 346.002 222.7C355.141 233.288 360.93 246.351 362.636 260.234C370.298 262.344 378.259 263.154 386.189 262.629L392.568 174.859C393.141 167.014 392.162 159.132 389.688 151.666C387.214 144.199 383.292 137.293 378.148 131.342C373.004 125.392 366.737 120.513 359.706 116.985C352.676 113.457 345.019 111.35 337.174 110.782L316.603 109.357L226.555 102.787L220.045 192.831Z" fill="white"/>
</g>
<g opacity="0.07">
<path d="M103.543 232.076L179.233 237.576L199.077 239.019L200.513 219.249C184.946 220.292 169.569 215.336 157.541 205.399C145.512 195.462 137.744 181.297 135.831 165.812C132.739 164.954 129.582 164.352 126.391 164.013L125.647 163.974L57.0466 159.003L55.7503 176.84C54.7862 190.497 59.2751 203.98 68.2335 214.333C77.192 224.687 89.8893 231.067 103.543 232.076Z" fill="white"/>
<path d="M57.0445 159.003L125.679 164.013L126.424 164.052C129.614 164.392 132.772 164.994 135.864 165.851C147.51 169.06 157.942 175.656 165.835 184.801C173.729 193.946 178.729 205.229 180.202 217.22C186.82 219.043 193.697 219.742 200.546 219.288L206.055 143.48C206.55 136.704 205.705 129.897 203.568 123.448C201.431 116.998 198.044 111.034 193.601 105.894C189.157 100.754 183.745 96.5404 177.672 93.4934C171.6 90.4464 164.987 88.6261 158.21 88.1361L140.443 86.9045L62.6667 81.23L57.0445 159.003Z" fill="white"/>
</g>
<g opacity="0.07">
<path d="M251.244 85.6489L282.855 87.9461L291.143 88.5484L291.743 80.2917C285.241 80.7274 278.82 78.6577 273.796 74.5075C268.772 70.3572 265.528 64.4413 264.729 57.9741C263.438 57.616 262.119 57.3646 260.786 57.2227L260.476 57.2065L231.825 55.1305L231.284 62.5802C230.881 68.284 232.756 73.9148 236.497 78.2389C240.239 82.5629 245.542 85.2276 251.244 85.6489Z" fill="white"/>
<path d="M231.824 55.1299L260.489 57.2224L260.8 57.2389C262.133 57.3808 263.451 57.6321 264.743 57.9903C269.607 59.3306 273.963 62.085 277.26 65.9044C280.557 69.7238 282.645 74.4362 283.26 79.4439C286.024 80.2052 288.896 80.4972 291.757 80.3078L294.058 48.647C294.264 45.8171 293.911 42.9741 293.019 40.2806C292.126 37.5872 290.712 35.0961 288.856 32.9495C287 30.803 284.74 29.043 282.204 27.7705C279.668 26.4979 276.906 25.7377 274.076 25.533L266.655 25.0187L234.172 22.6488L231.824 55.1299Z" fill="white"/>
</g>
</svg>
