<svg width="30" height="30" viewBox="0 0 30 30" fill="none" xmlns="http://www.w3.org/2000/svg">
<path d="M15.825 24.0242L17.0259 27.7488C17.1478 28.1426 17.6353 28.2645 17.9259 27.9738C19.7353 26.1645 22.7353 23.1176 22.9415 21.4488C23.039 20.7345 22.7784 19.7838 22.4868 18.9438C20.7337 20.726 18.5503 22.4567 15.825 24.0242Z" fill="#52921B"/>
<path d="M11.0558 7.51311C10.2168 7.22154 9.2652 6.96092 8.55083 7.05842C6.88208 7.26467 3.8352 10.2647 2.02583 12.074C1.7352 12.3647 1.85708 12.8522 2.25083 12.974L5.97551 14.174C7.54301 11.4497 9.27364 9.26623 11.0558 7.51311Z" fill="#52921B"/>
<path d="M8.68291 25.4733C6.08978 26.9602 3.06729 26.9705 3.02979 26.9705C3.02979 26.9321 3.03916 23.9105 4.52697 21.3174L8.68291 25.4733Z" fill="#52921B"/>
<path d="M20.1159 8.03027C19.6209 8.03027 19.1559 8.2234 18.8062 8.57309C18.4556 8.92371 18.2625 9.38871 18.2625 9.88371C18.2625 10.3787 18.4556 10.8446 18.8062 11.1943C19.5046 11.8956 20.7262 11.8956 21.4265 11.1943C22.1493 10.4715 22.1493 9.2959 21.4265 8.57309C21.0759 8.2234 20.61 8.03027 20.1159 8.03027Z" fill="#52921B"/>
<path d="M26.9454 1.86544C23.4204 1.932 12.6617 3.327 5.95293 17.2217C5.73731 17.6679 5.83106 18.2051 6.18168 18.5548L11.4439 23.817C11.7945 24.1676 12.3307 24.2614 12.777 24.0457C26.6726 17.3379 28.0676 6.57919 28.1342 3.05419C28.1464 2.38856 27.6111 1.85325 26.9454 1.86544ZM22.6198 12.3879C21.9504 13.0564 21.0617 13.4248 20.1157 13.4248C19.1698 13.4248 18.2801 13.0564 17.6117 12.3879C16.9432 11.7195 16.5748 10.8298 16.5748 9.88388C16.5748 8.93794 16.9442 8.04825 17.6117 7.37981C18.9486 6.04294 21.2811 6.04294 22.6198 7.37981C23.9998 8.76075 23.9998 11.007 22.6198 12.3879Z" fill="#52921B"/>
</svg>
