<svg width="26" height="26" viewBox="0 0 26 26" fill="none" xmlns="http://www.w3.org/2000/svg">
<g clip-path="url(#clip0_616_11819)">
<path d="M17.0256 13.1088C16.9088 14.063 16.4797 14.9725 15.7728 15.6794C14.9136 16.5391 13.7126 16.9438 12.2044 16.8829C11.1466 16.8407 10.6581 17.1175 10.5778 17.1678C10.2538 17.4516 9.84251 17.607 9.40833 17.607C8.93352 17.607 8.48715 17.4222 8.15149 17.0865C7.57207 16.5071 7.47863 15.6134 7.87422 14.9324L8.15809 14.4825C8.25458 14.2473 8.38508 13.7832 8.35461 13.0331C8.29418 11.5244 8.69891 10.3239 9.55814 9.46473C10.262 8.7614 11.1618 8.32569 12.1348 8.20941C12.2724 7.54772 12.5705 6.92869 13.0006 6.40869H2.79454C1.67329 6.40869 0.760742 7.32073 0.760742 8.44198V18.5267H21.9773V8.51308L19.3991 11.6727C18.7928 12.4136 17.9508 12.9179 17.0256 13.1088Z" fill="#52921B"/>
<path d="M0.760793 20.6998C0.760793 21.8206 1.67334 22.7326 2.79459 22.7326H8.5745V24.4764H7.29338C6.87271 24.4764 6.53166 24.8175 6.53166 25.2382C6.53166 25.6588 6.87271 25.9999 7.29338 25.9999H15.4445C15.8652 25.9999 16.2062 25.6588 16.2062 25.2382C16.2062 24.8175 15.8652 24.4764 15.4445 24.4764H14.1634V22.7326H19.9435C21.0647 22.7326 21.9773 21.8206 21.9773 20.6998V20.0498H0.760742V20.6998H0.760793Z" fill="#52921B"/>
<path d="M9.24709 15.6323C9.24693 15.6324 9.24678 15.6325 9.24668 15.6327C9.24658 15.6327 9.24653 15.6328 9.24648 15.6329L9.24627 15.6331C9.24617 15.6331 9.24612 15.6332 9.24602 15.6333C9.24597 15.6335 9.24592 15.6335 9.24576 15.6336L9.24571 15.6337C9.24566 15.6338 9.24556 15.6338 9.24546 15.6339C9.24546 15.6339 9.24546 15.6339 9.24541 15.634C9.24536 15.634 9.24526 15.6341 9.24521 15.6342C9.24521 15.6342 9.24521 15.6342 9.24516 15.6343C9.24505 15.6343 9.245 15.6344 9.2449 15.6345C9.2449 15.6345 9.2449 15.6345 9.24485 15.6346L9.2446 15.6348C9.14832 15.7342 9.14928 15.8928 9.24744 15.991C9.29705 16.0406 9.362 16.0653 9.427 16.0653C9.49139 16.0653 9.55578 16.041 9.60519 15.9923C9.62073 15.9776 10.3899 15.2665 12.2848 15.3427C13.3508 15.3856 14.1682 15.1303 14.7144 14.5841C15.8338 13.4647 15.8338 11.6434 14.7144 10.524C14.1722 9.98175 13.4513 9.68311 12.6844 9.68311C11.9176 9.68311 11.1966 9.9817 10.6544 10.524C10.1082 11.0702 9.8529 11.8877 9.89576 12.9537C9.97234 14.8588 9.25323 15.6259 9.24744 15.6319C9.24724 15.6321 9.24719 15.6322 9.24709 15.6323Z" fill="#52921B"/>
<path d="M16.9595 11.5422C17.4562 11.3934 17.9035 11.0989 18.2372 10.6911L19.2105 9.49839L15.7433 6.03125L14.5555 7.00137C14.1467 7.3345 13.8512 7.78137 13.7019 8.27802C14.487 8.46235 15.2071 8.862 15.7916 9.44649C16.3898 10.0447 16.7792 10.7734 16.9595 11.5422Z" fill="#52921B"/>
<path d="M24.7814 0.4574C24.2142 -0.109826 23.3174 -0.155022 22.6958 0.352791L16.9292 5.0629L20.1785 8.31224L24.8865 2.54253C25.3938 1.92142 25.3486 1.02463 24.7814 0.4574Z" fill="#52921B"/>
</g>
<defs>
<clipPath id="clip0_616_11819">
<rect width="26" height="26" fill="white"/>
</clipPath>
</defs>
</svg>
