<svg width="33" height="33" viewBox="0 0 33 33" fill="none" xmlns="http://www.w3.org/2000/svg">
<path d="M9.40593 15.3721C9.67296 15.3721 9.88933 15.1556 9.88933 14.8887C9.88933 14.6217 9.67296 14.4053 9.40593 14.4053H8.0481C7.78107 14.4053 7.5647 14.6217 7.5647 14.8887V18.1113C7.5647 18.3783 7.78107 18.5947 8.0481 18.5947H9.40593C9.67296 18.5947 9.88933 18.3783 9.88933 18.1113C9.88933 17.8444 9.67296 17.6279 9.40593 17.6279H8.53149V16.9834H9.3059C9.57293 16.9834 9.7893 16.767 9.7893 16.5C9.7893 16.233 9.57293 16.0166 9.3059 16.0166H8.53149V15.3721H9.40593Z" fill="#52921B"/>
<path d="M3.74381 18.1412C3.74413 18.3907 3.94645 18.5921 4.19588 18.5914C4.59601 18.5904 5.08321 18.5891 5.17035 18.5876C6.18413 18.5698 6.91999 17.6919 6.91999 16.5C6.91999 15.2471 6.20276 14.4053 5.13522 14.4053H4.19092C3.94149 14.4053 3.73936 14.6077 3.73975 14.8571C3.74052 15.4221 3.74278 17.2765 3.74381 18.1412ZM5.9532 16.5C5.9532 17.0509 5.70589 17.6112 5.15346 17.6209C5.05008 17.6227 4.87838 17.6242 4.7108 17.6254C4.70957 17.2509 4.70738 15.7623 4.7068 15.3721H5.13522C5.89422 15.3721 5.9532 16.2354 5.9532 16.5Z" fill="#52921B"/>
<path d="M13.461 14.436C13.2078 14.3519 12.934 14.489 12.8499 14.7423L12.179 16.7618L11.4738 14.7303C11.3864 14.4781 11.1107 14.3446 10.8587 14.4321C10.6065 14.5197 10.473 14.7951 10.5605 15.0473L11.6636 18.2251C11.7424 18.4467 11.9526 18.5948 12.1876 18.5948H12.1914C12.4278 18.5932 12.6379 18.4418 12.7152 18.2146L13.7674 15.0471C13.8515 14.7938 13.7143 14.5202 13.461 14.436Z" fill="#52921B"/>
<path d="M23.406 18.1113C23.406 18.3831 23.6304 18.6026 23.9042 18.5945C24.1688 18.5865 24.3728 18.3557 24.3728 18.091V17.1923C24.5295 17.1915 24.6887 17.1909 24.7868 17.1909C25.5645 17.1909 26.1974 16.5661 26.1974 15.7981C26.1974 15.0301 25.5646 14.4053 24.7868 14.4053H23.8572C23.608 14.4053 23.406 14.6073 23.406 14.8564V18.1113ZM24.7868 15.372C25.0273 15.372 25.2306 15.5671 25.2306 15.798C25.2306 16.029 25.0274 16.2241 24.7868 16.2241C24.6894 16.2241 24.5321 16.2247 24.3765 16.2254C24.3757 16.0634 24.3747 15.5421 24.3743 15.372H24.7868Z" fill="#52921B"/>
<path d="M20.6667 18.5947C21.8218 18.5947 22.7615 17.655 22.7615 16.5C22.7615 15.345 21.8218 14.4053 20.6667 14.4053C19.5117 14.4053 18.572 15.345 18.572 16.5C18.572 17.655 19.5117 18.5947 20.6667 18.5947ZM20.6667 15.3721C21.2887 15.3721 21.7947 15.8781 21.7947 16.5C21.7947 17.1219 21.2887 17.6279 20.6667 17.6279C20.0448 17.6279 19.5388 17.1219 19.5388 16.5C19.5388 15.8781 20.0448 15.3721 20.6667 15.3721Z" fill="#52921B"/>
<path d="M28.4457 17.6282C28.1488 17.6282 27.8638 17.5093 27.6834 17.3103C27.5041 17.1124 27.1984 17.0975 27.0006 17.2767C26.8028 17.456 26.7877 17.7617 26.967 17.9595C27.333 18.3633 27.8719 18.5949 28.4457 18.5949C29.1629 18.5949 29.7656 18.1343 29.8789 17.4996C29.9647 17.0188 29.7506 16.3923 28.8922 16.0756C28.5114 15.9352 28.156 15.7826 28.0324 15.7286C27.9865 15.6863 27.986 15.6317 27.9904 15.6007C27.9964 15.5594 28.0275 15.4582 28.189 15.4095C28.5797 15.2919 28.8728 15.4869 28.9295 15.5289C29.0721 15.7073 29.3257 15.7646 29.5348 15.653C29.7701 15.5272 29.8591 15.2343 29.7333 14.9989C29.5623 14.679 28.7856 14.22 27.9102 14.4838C27.4356 14.6268 27.0997 15.0021 27.0334 15.4633C26.971 15.898 27.1595 16.3162 27.5255 16.5548C27.5468 16.5688 27.5693 16.5809 27.5925 16.5913C27.6112 16.5996 28.0564 16.7978 28.5576 16.9827C28.7533 17.0549 28.9532 17.184 28.9272 17.3296C28.9057 17.4501 28.7378 17.6282 28.4457 17.6282Z" fill="#52921B"/>
<path d="M26.7979 8.14118L27.8078 7.43413C28.2452 7.12785 28.3514 6.52502 28.0452 6.08764C27.7389 5.65026 27.1361 5.54397 26.6987 5.85019L23.7121 7.94144C23.2747 8.24772 23.1684 8.85055 23.4747 9.28793L25.5659 12.2746C25.8722 12.712 26.475 12.8183 26.9124 12.5121C27.3498 12.2058 27.4561 11.603 27.1498 11.1656L26.3535 10.0283C29.1681 10.9381 31.1862 13.6361 31.0609 16.7769C30.9176 20.3657 27.96 23.2461 24.3688 23.2991C20.5728 23.3551 17.4668 20.2834 17.4668 16.5C17.4668 11.6616 13.5118 7.72958 8.66494 7.7669C3.87601 7.80377 -0.0173442 11.7432 5.81118e-05 16.5323C0.0143023 20.4539 2.62678 23.7741 6.20206 24.8589L5.19221 25.566C4.75483 25.8722 4.64855 26.4751 4.95476 26.9124C5.26104 27.3498 5.86387 27.4561 6.30125 27.1499L9.28788 25.0586C9.72526 24.7524 9.83155 24.1495 9.52533 23.7122L7.43408 20.7255C7.1278 20.2881 6.52497 20.1818 6.08759 20.488C5.65021 20.7943 5.54393 21.3971 5.85021 21.8345L6.64653 22.9718C3.83186 22.062 1.81377 19.364 1.93913 16.2231C2.08235 12.6343 5.03997 9.75399 8.63124 9.70094C12.4272 9.64493 15.5332 12.7166 15.5332 16.5C15.5332 21.3385 19.4882 25.2705 24.335 25.2332C29.124 25.1963 33.0173 21.2569 32.9999 16.4678C32.9857 12.5462 30.3732 9.22599 26.7979 8.14118Z" fill="#52921B"/>
</svg>
