<svg width="18" height="18" viewBox="0 0 18 18" fill="none" xmlns="http://www.w3.org/2000/svg">
<g clip-path="url(#clip0_616_12044)">
<path d="M11.6634 9.74707L10.1559 11.2597C9.54454 11.8732 8.4689 11.8864 7.84435 11.2597L6.33674 9.74707L0.922119 15.1793C1.12367 15.2725 1.34589 15.3281 1.58214 15.3281H16.4181C16.6543 15.3281 16.8765 15.2725 17.078 15.1793L11.6634 9.74707Z" fill="white"/>
<path d="M16.418 2.67188H1.58207C1.34582 2.67188 1.1236 2.72749 0.922119 2.82069L6.70803 8.6258C6.70842 8.62618 6.70887 8.62625 6.70926 8.62664C6.70965 8.62703 6.70972 8.62756 6.70972 8.62756L8.59103 10.5151C8.79086 10.7149 9.20929 10.7149 9.40912 10.5151L11.29 8.62787C11.29 8.62787 11.2905 8.62703 11.2909 8.62664C11.2909 8.62664 11.2917 8.62618 11.2921 8.6258L17.0779 2.82066C16.8764 2.72742 16.6543 2.67188 16.418 2.67188Z" fill="white"/>
<path d="M0.168258 3.55859C0.0639844 3.76946 0 4.00353 0 4.25427V13.7465C0 13.9972 0.0639141 14.2313 0.168223 14.4421L5.59223 9.00054L0.168258 3.55859Z" fill="white"/>
<path d="M17.8317 3.55859L12.4077 9.00061L17.8317 14.4423C17.9359 14.2314 17.9999 13.9973 17.9999 13.7465V4.25434C17.9999 4.00353 17.9359 3.76946 17.8317 3.55859Z" fill="white"/>
</g>
<defs>
<clipPath id="clip0_616_12044">
<rect width="18" height="18" fill="white"/>
</clipPath>
</defs>
</svg>
