<svg width="160" height="39" viewBox="0 0 160 39" fill="none" xmlns="http://www.w3.org/2000/svg">
<path d="M157.816 29.2875L150.06 36.9825L148.026 39L146 36.9901C147.801 35.6433 149.014 33.6637 149.39 31.4576C149.766 29.2515 149.276 26.9864 148.021 25.1272C148.278 24.7442 148.567 24.3828 148.884 24.0467L148.961 23.9727L155.993 17L157.821 18.8134C159.217 20.2046 160.001 22.0881 160 24.0514C159.999 26.0147 159.214 27.8976 157.816 29.2875Z" fill="white"/>
<path d="M156 16.9359L148.952 23.9393L148.874 24.0136C148.556 24.3508 148.267 24.7134 148.01 25.0977C147.037 26.5428 146.519 28.2422 146.52 29.9803C146.522 31.7184 147.043 33.417 148.017 34.8606C147.465 35.6817 146.777 36.4049 145.984 37L138.196 29.2673C137.5 28.5763 136.948 27.7559 136.571 26.8529C136.194 25.9499 136 24.982 136 24.0045C136 23.027 136.194 22.059 136.571 21.156C136.948 20.253 137.5 19.4326 138.196 18.7417L140.027 16.9359L148.014 9L156 16.9359Z" fill="#EDEDED"/>
<path d="M8.09106 38.6456C6.45682 38.6456 5.04754 38.376 3.86323 37.8368C2.72822 37.3383 1.76889 36.5107 1.10932 35.4611C0.462864 34.4177 0.101495 33.1216 0.0252128 31.5727C0.00969781 30.859 0 30.0929 0 29.2745C0 28.4561 0.00969781 27.6745 0.0252128 26.9259C0.0950302 25.4106 0.460926 24.1229 1.1229 23.0627C1.78224 22.0024 2.74606 21.1657 3.88844 20.6618C5.07146 20.1227 6.47233 19.853 8.09106 19.853C9.1677 19.8431 10.2402 19.9882 11.2755 20.2836C12.1966 20.5438 13.0632 20.9682 13.8335 21.5364C14.5446 22.0619 15.129 22.7398 15.5441 23.5204C15.9609 24.3317 16.1795 25.2303 16.1821 26.1424C16.1921 26.2139 16.1843 26.2868 16.1592 26.3545C16.1342 26.4221 16.0927 26.4826 16.0386 26.5303C15.9294 26.6326 15.7849 26.6889 15.6352 26.6874H12.1191C11.9341 26.6993 11.7504 26.6487 11.5974 26.5438C11.4443 26.3987 11.3353 26.2131 11.2833 26.0086C11.0389 25.0881 10.6433 24.4571 10.0964 24.1157C9.48315 23.7599 8.78218 23.5839 8.07361 23.6077C7.11556 23.6077 6.35855 23.8728 5.8026 24.4029C5.24665 24.933 4.94217 25.816 4.88916 27.052C4.83615 28.4742 4.83615 29.9358 4.88916 31.4369C4.94088 32.6742 5.24535 33.5573 5.8026 34.0861C6.35985 34.6149 7.11685 34.8806 8.07361 34.8831C8.78804 34.9051 9.49407 34.7242 10.1099 34.3615C10.6672 34.0124 11.0583 33.386 11.2833 32.4822C11.3211 32.2753 11.4269 32.087 11.5839 31.947C11.7425 31.8434 11.93 31.7931 12.1191 31.8034H15.643C15.7926 31.802 15.9371 31.8582 16.0464 31.9605C16.1008 32.0081 16.1424 32.0685 16.1675 32.1362C16.1926 32.204 16.2003 32.2769 16.1899 32.3484C16.1875 33.2612 15.9689 34.1605 15.5518 34.9724C15.1368 35.7531 14.5523 36.431 13.8413 36.9564C13.071 37.5246 12.2044 37.949 11.2833 38.2092C10.2457 38.5074 9.17057 38.6544 8.09106 38.6456Z" fill="white"/>
<path d="M25.0567 38.6462C23.597 38.6462 22.3687 38.4114 21.3719 37.9421C20.42 37.5149 19.6195 36.8098 19.0757 35.9194C18.5209 34.961 18.2111 33.8805 18.1739 32.7737C18.1571 32.4246 18.1487 32.0283 18.1487 31.5849C18.1487 31.1427 18.1487 30.7548 18.1739 30.4212C18.2072 29.3043 18.5314 28.2153 19.1145 27.262C19.6805 26.3821 20.4886 25.6844 21.4417 25.2528C22.4424 24.7809 23.6474 24.5456 25.0567 24.5469C26.466 24.5482 27.68 24.7835 28.6988 25.2528C29.6519 25.6844 30.4601 26.3821 31.0261 27.262C31.6083 28.2157 31.9325 29.3044 31.9667 30.4212C31.9841 30.7509 31.9919 31.1388 31.9919 31.5849C31.9919 32.0309 31.9919 32.4246 31.9667 32.7737C31.9291 33.8801 31.6201 34.9604 31.0668 35.9194C30.5217 36.8095 29.7207 37.5144 28.7687 37.9421C27.7731 38.4114 26.5358 38.6462 25.0567 38.6462ZM25.0567 35.4616C25.8402 35.4616 26.4104 35.227 26.7672 34.7577C27.1241 34.2883 27.3283 33.5831 27.3801 32.6419C27.3975 32.382 27.4072 32.0328 27.4072 31.5984C27.4072 31.164 27.3975 30.8227 27.3801 30.5551C27.3283 29.6319 27.1241 28.9312 26.7672 28.4528C26.4104 27.9744 25.8402 27.7352 25.0567 27.7352C24.3081 27.7352 23.747 27.9744 23.3733 28.4528C22.9997 28.9312 22.7954 29.6319 22.7605 30.5551C22.743 30.8149 22.7333 31.164 22.7333 31.5984C22.7333 32.0328 22.743 32.3742 22.7605 32.6419C22.7954 33.5818 22.9997 34.287 23.3733 34.7577C23.747 35.2283 24.3081 35.4629 25.0567 35.4616Z" fill="white"/>
<path d="M39.6581 38.6457C38.8865 38.6571 38.12 38.5194 37.4007 38.2403C36.7409 37.9787 36.1508 37.5678 35.6766 37.0398C35.1785 36.4757 34.801 35.8158 34.5672 35.1005C34.2922 34.2614 34.1425 33.3864 34.1231 32.5036C34.1057 32.1565 34.0979 31.8481 34.0979 31.5766C34.0979 31.3051 34.0979 30.9948 34.1231 30.6515C34.1466 29.7939 34.2963 28.9444 34.5672 28.1304C34.801 27.4176 35.1741 26.7583 35.6649 26.191C36.1385 25.6565 36.7274 25.2367 37.3871 24.9634C38.1073 24.6682 38.8798 24.5218 39.6581 24.5329C40.4283 24.5133 41.1937 24.6601 41.9019 24.9634C42.498 25.2292 43.0383 25.6057 43.4942 26.0727V20.4873C43.4903 20.4005 43.5046 20.314 43.5361 20.233C43.5676 20.1521 43.6156 20.0785 43.6771 20.0172C43.7386 19.9559 43.8122 19.9081 43.8933 19.8769C43.9743 19.8456 44.061 19.8315 44.1477 19.8357H47.3322C47.5022 19.8341 47.6659 19.8996 47.7879 20.018C47.8517 20.0779 47.902 20.1509 47.9354 20.2318C47.9689 20.3127 47.9847 20.3998 47.9819 20.4873V37.7147C47.9775 37.8862 47.9074 38.0493 47.7861 38.1706C47.6649 38.2919 47.5017 38.362 47.3302 38.3664H44.3727C44.2851 38.37 44.1977 38.3546 44.1167 38.3211C44.0357 38.2876 43.9629 38.2369 43.9034 38.1725C43.7841 38.0509 43.7178 37.887 43.7191 37.7167V36.8808C43.2747 37.4081 42.7234 37.8351 42.1017 38.1337C41.3378 38.4914 40.5013 38.6667 39.6581 38.6457ZM41.0932 35.1548C41.5803 35.1784 42.0618 35.0422 42.4644 34.7669C42.7997 34.5182 43.0611 34.183 43.2207 33.7973C43.3886 33.3819 43.4812 32.9399 43.4942 32.4921C43.5116 32.143 43.5213 31.8133 43.5213 31.4991C43.5213 31.1849 43.5116 30.8649 43.4942 30.5294C43.4806 30.1102 43.383 29.698 43.2071 29.3173C43.0374 28.9468 42.7691 28.63 42.4314 28.4019C42.0186 28.1694 41.5525 28.0485 41.0788 28.0509C40.6051 28.0533 40.1402 28.1789 39.7298 28.4155C39.3888 28.662 39.1337 29.0092 39.0006 29.4084C38.8458 29.8545 38.7532 30.3198 38.7252 30.7912C38.6728 31.3291 38.6728 31.8708 38.7252 32.4086C38.7531 32.8806 38.8458 33.3466 39.0006 33.7934C39.1337 34.192 39.3888 34.5387 39.7298 34.7844C40.1322 35.0437 40.6054 35.1711 41.0835 35.1489L41.0932 35.1548Z" fill="white"/>
<path d="M57.3181 38.6459C55.265 38.6459 53.6294 38.0892 52.4115 36.976C51.1936 35.8628 50.5581 34.2098 50.5051 32.017V31.0958C50.5214 29.8594 50.8396 28.6457 51.4321 27.5604C51.9775 26.5967 52.7952 25.8155 53.7826 25.3146C54.8739 24.7791 56.0776 24.5131 57.2929 24.5388C58.8224 24.5388 60.0882 24.8433 61.0902 25.4523C62.0698 26.0396 62.8549 26.9022 63.3476 27.9327C63.8682 29.0518 64.1269 30.2749 64.104 31.5089V32.1353C64.1078 32.2219 64.0936 32.3084 64.0622 32.3892C64.0309 32.47 63.983 32.5434 63.9217 32.6047C63.8604 32.666 63.787 32.7139 63.7062 32.7453C63.6254 32.7766 63.539 32.7909 63.4524 32.787H55.0995V32.9693C55.1104 33.4433 55.2035 33.9118 55.3749 34.354C55.5205 34.746 55.7731 35.0894 56.1041 35.345C56.4484 35.5963 56.8669 35.7253 57.2929 35.7115C57.5936 35.7212 57.8926 35.6629 58.1676 35.5409C58.3808 35.4431 58.5771 35.3122 58.7494 35.153C58.8789 35.0343 59.0013 34.908 59.1159 34.7749C59.2174 34.6334 59.3459 34.5133 59.4941 34.4219C59.6411 34.3711 59.7965 34.3493 59.9518 34.3578H63.1867C63.3452 34.3519 63.4997 34.4083 63.6172 34.5149C63.6737 34.5673 63.7164 34.6327 63.7418 34.7054C63.7672 34.7781 63.7743 34.8558 63.7627 34.9319C63.7073 35.3205 63.5545 35.6887 63.3185 36.0024C62.9826 36.4776 62.5727 36.896 62.1045 37.2417C61.5009 37.6882 60.8253 38.028 60.1069 38.2463C59.2041 38.5251 58.2629 38.6599 57.3181 38.6459ZM55.0995 30.2154H59.5116V30.163C59.5236 29.6597 59.4394 29.1588 59.2633 28.6872C59.1133 28.3006 58.8496 27.9685 58.507 27.7349C58.1453 27.5029 57.7224 27.3847 57.2929 27.3955C56.8756 27.3854 56.4653 27.5039 56.1177 27.7349C55.7785 27.9722 55.5157 28.3031 55.3613 28.6872C55.1757 29.1565 55.0867 29.6584 55.0995 30.163V30.2154Z" fill="white"/>
<path d="M67.2108 38.3841C67.1232 38.3877 67.0358 38.3722 66.9548 38.3387C66.8738 38.3052 66.801 38.2545 66.7415 38.1901C66.6227 38.0684 66.5571 37.9044 66.5592 37.7344V25.4717C66.5553 25.3851 66.5695 25.2987 66.6009 25.2179C66.6323 25.137 66.6801 25.0637 66.7414 25.0024C66.8027 24.9411 66.8761 24.8933 66.9569 24.8619C67.0377 24.8305 67.1242 24.8163 67.2108 24.8201H70.0558C70.1424 24.8163 70.2289 24.8305 70.3097 24.8619C70.3905 24.8933 70.4639 24.9411 70.5252 25.0024C70.5865 25.0637 70.6343 25.137 70.6657 25.2179C70.6971 25.2987 70.7113 25.3851 70.7075 25.4717V26.36C71.1036 25.8499 71.6016 25.4279 72.1698 25.1207C72.8501 24.7494 73.6133 24.5559 74.3884 24.5583C76.4066 24.5053 77.7901 25.2539 78.5386 26.8041C78.9578 26.1243 79.5475 25.566 80.2492 25.1847C80.9969 24.7757 81.8351 24.5604 82.6874 24.5584C83.5397 24.5564 84.379 24.7676 85.1286 25.1731C85.8813 25.6128 86.4856 26.2671 86.8644 27.0523C87.3014 27.8966 87.5192 28.9885 87.518 30.3279V37.7402C87.5191 37.9101 87.4537 38.0737 87.3356 38.1959C87.2756 38.2602 87.2024 38.3108 87.1211 38.3442C87.0398 38.3777 86.9522 38.3932 86.8644 38.3899H83.837C83.7475 38.3926 83.6584 38.3767 83.5753 38.3434C83.4922 38.31 83.4169 38.2598 83.3541 38.1959C83.2924 38.1372 83.2434 38.0665 83.21 37.9882C83.1767 37.9098 83.1597 37.8253 83.1602 37.7402V30.5102C83.1815 30.0141 83.0927 29.5193 82.9003 29.0615C82.7554 28.7332 82.5076 28.4609 82.1944 28.2857C81.8797 28.1243 81.5298 28.0437 81.1762 28.0511C80.8534 28.0532 80.5359 28.1337 80.2511 28.2857C79.9301 28.4587 79.6737 28.7308 79.52 29.0615C79.317 29.5164 79.2227 30.0125 79.2446 30.5102V37.7402C79.2466 37.9102 79.181 38.0742 79.0623 38.1959C79.0027 38.2602 78.9299 38.3108 78.8489 38.3443C78.7679 38.3778 78.6806 38.3933 78.593 38.3899H75.5637C75.4761 38.3935 75.3887 38.378 75.3077 38.3445C75.2266 38.311 75.1538 38.2603 75.0943 38.1959C75.0335 38.1365 74.9851 38.0657 74.9518 37.9875C74.9185 37.9093 74.901 37.8252 74.9004 37.7402V30.5102C74.9239 30.0112 74.8253 29.5139 74.6134 29.0615C74.4538 28.7348 74.1988 28.4643 73.8822 28.2857C73.5837 28.1277 73.2503 28.047 72.9125 28.0511C72.5808 28.0512 72.2541 28.1317 71.9603 28.2857C71.6402 28.4598 71.384 28.7316 71.2292 29.0615C71.0285 29.5075 70.9348 29.9943 70.9557 30.483V37.7402C70.9513 37.9116 70.8812 38.0749 70.76 38.1961C70.6387 38.3174 70.4755 38.3874 70.3041 38.3919L67.2108 38.3841Z" fill="white"/>
<path d="M91.0941 22.8533C91.0073 22.8574 90.9206 22.8435 90.8396 22.8122C90.7586 22.7809 90.685 22.7331 90.6234 22.6718C90.5619 22.6104 90.5139 22.537 90.4824 22.4561C90.4509 22.3751 90.4366 22.2885 90.4405 22.2017V19.8473C90.4399 19.6769 90.5052 19.5129 90.6228 19.3896C90.6831 19.3257 90.7563 19.2752 90.8375 19.2418C90.9188 19.2084 91.0062 19.1927 91.0941 19.1957H94.2262C94.3979 19.2001 94.5614 19.2704 94.6827 19.3921C94.804 19.5137 94.8739 19.6774 94.8778 19.8492V22.1978C94.8814 22.2854 94.8659 22.3727 94.8324 22.4538C94.799 22.5348 94.7483 22.6076 94.6838 22.6671C94.5618 22.7855 94.3981 22.851 94.2281 22.8494L91.0941 22.8533ZM91.1193 38.3838C91.0317 38.3873 90.9444 38.3717 90.8634 38.3383C90.7823 38.3048 90.7095 38.2542 90.65 38.1899C90.5312 38.0681 90.4656 37.9042 90.4677 37.7341V25.4715C90.4638 25.3849 90.478 25.2984 90.5094 25.2176C90.5408 25.1368 90.5887 25.0634 90.6499 25.0021C90.7112 24.9408 90.7846 24.893 90.8654 24.8616C90.9462 24.8302 91.0327 24.816 91.1193 24.8199H94.199C94.2858 24.8157 94.3724 24.8297 94.4535 24.861C94.5345 24.8922 94.6081 24.9401 94.6696 25.0014C94.7311 25.0627 94.7792 25.1362 94.8107 25.2171C94.8422 25.298 94.8564 25.3847 94.8526 25.4715V37.7399C94.8537 37.9098 94.7883 38.0734 94.6703 38.1956C94.6102 38.2599 94.5371 38.3105 94.4558 38.3439C94.3744 38.3774 94.2869 38.393 94.199 38.3896L91.1193 38.3838Z" fill="white"/>
<path d="M98.5841 38.384C98.4965 38.3875 98.4092 38.3719 98.3282 38.3385C98.2472 38.305 98.1744 38.2544 98.1148 38.1901C97.996 38.0683 97.9305 37.9044 97.9325 37.7343V25.4716C97.9286 25.385 97.9428 25.2986 97.9742 25.2178C98.0056 25.137 98.0535 25.0636 98.1148 25.0023C98.1761 24.941 98.2494 24.8932 98.3303 24.8618C98.4111 24.8304 98.4975 24.8162 98.5841 24.82H101.586C101.765 24.8146 101.939 24.8802 102.069 25.0023C102.133 25.0623 102.183 25.1351 102.217 25.2161C102.25 25.297 102.266 25.3841 102.263 25.4716V26.4646C102.74 25.8913 103.335 25.4282 104.009 25.1071C104.815 24.7253 105.7 24.5373 106.592 24.5582C107.529 24.5401 108.453 24.7746 109.268 25.237C110.057 25.7068 110.692 26.3962 111.095 27.221C111.538 28.0924 111.76 29.1713 111.76 30.4578V37.7401C111.761 37.91 111.696 38.0736 111.578 38.1958C111.518 38.2601 111.445 38.3107 111.363 38.3441C111.282 38.3776 111.194 38.3932 111.107 38.3898H107.81C107.638 38.3858 107.474 38.316 107.353 38.1947C107.231 38.0734 107.161 37.9099 107.156 37.7382V30.6129C107.156 29.7945 106.962 29.1636 106.574 28.7201C106.186 28.2766 105.605 28.0549 104.829 28.0549C104.513 28.04 104.198 28.0916 103.904 28.2062C103.61 28.3208 103.343 28.4959 103.12 28.7201C102.694 29.1649 102.48 29.7958 102.48 30.6129V37.7382C102.476 37.9096 102.406 38.0728 102.285 38.194C102.163 38.3153 102 38.3854 101.829 38.3898L98.5841 38.384Z" fill="white"/>
<path d="M121.527 38.3839C120.539 38.4085 119.557 38.2268 118.643 37.8505C117.855 37.512 117.2 36.9248 116.777 36.1788C116.343 35.4224 116.125 34.4436 116.124 33.2425V28.2312H114.089C113.91 28.2366 113.737 28.1711 113.606 28.0489C113.542 27.9892 113.492 27.9164 113.458 27.8354C113.425 27.7544 113.409 27.6672 113.412 27.5796V25.4715C113.409 25.3839 113.425 25.2967 113.458 25.2157C113.492 25.1347 113.542 25.0619 113.606 25.0022C113.737 24.88 113.91 24.8145 114.089 24.8199H116.124V20.5126C116.121 20.425 116.137 20.3379 116.17 20.257C116.203 20.1761 116.254 20.1031 116.318 20.0432C116.44 19.9247 116.605 19.8592 116.775 19.8609H119.803C119.889 19.8574 119.976 19.8718 120.056 19.9032C120.137 19.9346 120.21 19.9821 120.272 20.0432C120.335 20.1039 120.384 20.177 120.418 20.2577C120.451 20.3385 120.467 20.4252 120.466 20.5126V24.8199H123.728C123.907 24.8145 124.08 24.88 124.211 25.0022C124.275 25.0622 124.325 25.135 124.358 25.2159C124.392 25.2968 124.408 25.384 124.405 25.4715V27.5874C124.408 27.6749 124.392 27.762 124.358 27.8429C124.325 27.9238 124.275 27.9967 124.211 28.0567C124.08 28.1789 123.907 28.2444 123.728 28.239H120.458V32.8935C120.433 33.3858 120.55 33.8748 120.798 34.3014C121.022 34.6505 121.406 34.8251 121.946 34.8251H123.955C124.041 34.8215 124.128 34.8359 124.209 34.8674C124.289 34.8989 124.363 34.9467 124.424 35.0079C124.486 35.0691 124.534 35.1424 124.565 35.2231C124.597 35.3038 124.612 35.3901 124.608 35.4767V37.7477C124.61 37.918 124.543 38.0819 124.424 38.2035C124.365 38.2678 124.292 38.3184 124.211 38.3518C124.13 38.3853 124.042 38.4009 123.955 38.3974L121.527 38.3839Z" fill="white"/>
</svg>
