<svg width="229" height="197" viewBox="0 0 229 197" fill="none" xmlns="http://www.w3.org/2000/svg">
<g opacity="0.07">
<path d="M152.654 43.8552L199.614 42.333L211.926 41.9339L212.323 54.1997C202.719 53.1674 193.083 55.8511 185.395 61.6997C177.707 67.5483 172.55 76.1181 170.982 85.6498C169.048 86.1035 167.08 86.3973 165.097 86.5283L164.636 86.5339L122.075 87.9044L121.716 76.8377C121.459 68.3651 124.571 60.1361 130.37 53.9538C136.169 47.7715 144.183 44.1401 152.654 43.8552Z" fill="white"/>
<path d="M122.074 87.9049L164.657 86.5107L165.119 86.5049C167.101 86.3739 169.069 86.0801 171.003 85.6264C178.288 83.9305 184.905 80.1097 190.015 74.6485C195.125 69.1873 198.499 62.3315 199.708 54.9505C203.847 53.9872 208.119 53.7255 212.344 54.1763L213.869 101.21C214.007 105.414 213.315 109.604 211.833 113.54C210.35 117.477 208.107 121.083 205.231 124.152C202.354 127.221 198.901 129.693 195.069 131.427C191.237 133.161 187.1 134.123 182.896 134.258L171.874 134.578L123.619 136.156L122.074 87.9049Z" fill="white"/>
</g>
<g opacity="0.07">
<path d="M60.6672 64.436L101.227 63.1213L111.861 62.7765L112.204 73.3707C103.909 72.4791 95.5866 74.797 88.9463 79.8486C82.3061 84.9001 77.8515 92.302 76.4971 100.535C74.8266 100.927 73.1267 101.18 71.4145 101.293L71.0161 101.298L34.2553 102.482L33.9455 92.9235C33.7234 85.6056 36.4112 78.4981 41.42 73.1583C46.4288 67.8186 53.3501 64.682 60.6672 64.436Z" fill="white"/>
<path d="M34.2542 102.482L71.0342 101.278L71.4328 101.273C73.1449 101.16 74.8448 100.906 76.5154 100.514C82.8072 99.0492 88.5223 95.7491 92.9362 91.0321C97.3501 86.3151 100.264 80.3937 101.308 74.0186C104.883 73.1866 108.573 72.9606 112.223 73.3499L113.539 113.974C113.658 117.605 113.061 121.224 111.78 124.624C110.5 128.024 108.563 131.138 106.078 133.789C103.594 136.44 100.611 138.575 97.3014 140.073C93.9914 141.571 90.4189 142.401 86.7877 142.518L77.2679 142.795L35.5892 144.158L34.2542 102.482Z" fill="white"/>
</g>
<g opacity="0.07">
<path d="M136.444 145.843L153.383 145.293L157.824 145.149L157.968 149.574C154.503 149.202 151.027 150.17 148.254 152.279C145.481 154.389 143.62 157.481 143.055 160.919C142.357 161.083 141.647 161.189 140.932 161.236L140.766 161.238L125.413 161.732L125.283 157.74C125.191 154.684 126.313 151.715 128.405 149.485C130.497 147.255 133.388 145.945 136.444 145.843Z" fill="white"/>
<path d="M125.412 161.732L140.773 161.23L140.94 161.227C141.655 161.18 142.365 161.074 143.062 160.911C145.69 160.299 148.077 158.921 149.92 156.951C151.764 154.981 152.981 152.507 153.417 149.845C154.91 149.497 156.451 149.403 157.975 149.566L158.525 166.532C158.575 168.048 158.325 169.56 157.791 170.98C157.256 172.4 156.447 173.701 155.409 174.808C154.372 175.915 153.126 176.807 151.744 177.432C150.361 178.058 148.869 178.405 147.353 178.453L143.377 178.569L125.97 179.138L125.412 161.732Z" fill="white"/>
</g>
</svg>
