<svg width="22" height="22" viewBox="0 0 22 22" fill="none" xmlns="http://www.w3.org/2000/svg">
<g clip-path="url(#clip0_617_12067)">
<path d="M12 0.000490823H10C9.72389 0.000490823 9.50005 0.224324 9.50005 0.500443V1.0004H4.41012C4.134 0.219428 3.27697 -0.189942 2.496 0.086177C1.71503 0.362296 1.30566 1.21933 1.58178 2.0003C1.8579 2.78127 2.71494 3.19064 3.49591 2.91452C3.92311 2.76343 4.25904 2.42751 4.41012 2.0003H6.38003C3.18516 4.00028 2.5002 8.3701 2.5002 8.43008C2.45928 8.70323 2.64744 8.95766 2.92041 8.99876C2.92356 8.99928 2.92688 8.99963 2.9302 9.00016H3.00015C3.25109 9.00261 3.46495 8.81864 3.5001 8.57015C3.5001 8.50021 4.43513 2.40023 9.50005 2.0003V2.50025C9.50005 2.77637 9.72389 3.00021 10 3.00021H12C12.2761 3.00021 12.4999 2.77637 12.4999 2.50025V2.0003C17.1249 2.41527 18.4999 8.50021 18.4999 8.58012C18.5396 8.82459 18.7522 9.0033 18.9998 9.00016H19.1048C19.3762 8.94944 19.5551 8.68819 19.5043 8.41679C19.5029 8.40962 19.5015 8.40245 19.4998 8.39528C19.4998 8.3402 18.4999 4.00046 15.4099 2.00048H17.5899C17.866 2.78144 18.723 3.19081 19.504 2.91469C20.285 2.63857 20.6943 1.78154 20.4182 1.00057C20.1421 0.219603 19.2851 -0.189767 18.5041 0.0863518C18.0769 0.237439 17.741 0.573364 17.5899 1.00057H12.4999V0.500618C12.4999 0.224324 12.2761 0.000490823 12 0.000490823Z" fill="#478C0D"/>
<path d="M11.0002 14.0004C11.2763 14.0004 11.5001 13.7766 11.5001 13.5004C11.5001 13.2243 11.2763 13.0005 11.0002 13.0005C10.7241 13.0005 10.5002 13.2243 10.5002 13.5004C10.5002 13.7766 10.7241 14.0004 11.0002 14.0004Z" fill="#478C0D"/>
<path d="M6.64505 13.8552C7.59722 14.8652 8.23182 16.1325 8.46999 17.5002H13.5298C13.768 16.1327 14.4026 14.8652 15.3548 13.8552C15.4987 13.7106 15.5403 13.4929 15.4597 13.3052L11.5 3.90039V12.0902C12.2809 12.3664 12.6903 13.2234 12.4142 14.0044C12.1381 14.7853 11.281 15.1947 10.5001 14.9186C9.71909 14.6425 9.30972 13.7854 9.58584 13.0045C9.73692 12.5772 10.0728 12.2413 10.5001 12.0902V3.90039L6.54013 13.3052C6.45952 13.4929 6.50114 13.7106 6.64505 13.8552Z" fill="#478C0D"/>
<path d="M7.5 21.4999C7.5 21.776 7.72383 21.9998 7.99995 21.9998H13.9999C14.276 21.9998 14.4999 21.776 14.4999 21.4999V18.5H7.5V21.4999Z" fill="#478C0D"/>
</g>
<defs>
<clipPath id="clip0_617_12067">
<rect width="22" height="22" fill="white"/>
</clipPath>
</defs>
</svg>
