<svg width="31" height="31" viewBox="0 0 31 31" fill="none" xmlns="http://www.w3.org/2000/svg">
<g clip-path="url(#clip0_616_11826)">
<path d="M30.6931 16.0714C30.3173 15.7394 29.7433 15.7751 29.4112 16.1509L29.3966 16.1675V15.531C29.3966 11.8192 27.951 8.32946 25.3262 5.70466C22.7017 3.08009 19.2119 1.63477 15.5001 1.63477C13.258 1.63477 11.03 2.18158 9.05682 3.21585C7.1477 4.21653 5.47201 5.67226 4.21093 7.42599C3.91813 7.83303 4.01084 8.40065 4.41812 8.69346C4.82539 8.98649 5.39302 8.89378 5.68582 8.48651C6.78276 6.96101 8.24015 5.69472 9.90022 4.8246C11.6142 3.92609 13.5505 3.45117 15.5001 3.45117C22.161 3.45117 27.5802 8.87037 27.5802 15.5312V16.1677L27.5653 16.1511C27.2332 15.7751 26.6592 15.7396 26.2834 16.0717C25.9073 16.4037 25.8719 16.9777 26.2039 17.3536L27.8075 19.169C27.9799 19.3642 28.2277 19.4758 28.4881 19.4758C28.7485 19.4758 28.9964 19.3642 29.1688 19.169L30.7724 17.3536C31.1047 16.9775 31.0692 16.4035 30.6931 16.0714Z" fill="#52921B"/>
<path d="M26.582 22.3656C26.1748 22.0728 25.6074 22.1652 25.3143 22.5725C24.2174 24.0978 22.76 25.3641 21.0999 26.2344C19.3859 27.1329 17.4494 27.6078 15.5001 27.6078C8.83918 27.6078 3.41999 22.1887 3.41999 15.5278V14.8913L3.43489 14.9081C3.76695 15.2839 4.34097 15.3197 4.71678 14.9874C5.09284 14.6553 5.12831 14.0813 4.79625 13.7055L3.1927 11.89C3.02005 11.6949 2.77242 11.583 2.51202 11.583C2.25162 11.583 2.00352 11.6949 1.83134 11.89L0.227557 13.7055C-0.104505 14.0815 -0.0690287 14.6553 0.307025 14.9874C0.479678 15.1401 0.694194 15.2151 0.908001 15.2151C1.15918 15.2151 1.40941 15.1113 1.58892 14.9081L1.60358 14.8913V15.5278C1.60358 19.2398 3.04914 22.7293 5.67395 25.3541C8.29852 27.9789 11.7882 29.4243 15.5001 29.4243C17.742 29.4243 19.9701 28.8774 21.9433 27.8432C23.8522 26.8425 25.5279 25.3865 26.789 23.633C27.0818 23.2258 26.9893 22.6584 26.582 22.3656Z" fill="#52921B"/>
<path d="M6.542 17.8546C6.47956 18.0871 6.5122 18.335 6.63282 18.5436L8.44923 21.6899C8.56961 21.8985 8.76804 22.0506 9.00053 22.113C9.23326 22.1752 9.48113 22.1428 9.68973 22.0222L11.0253 21.2512C11.5586 21.6679 12.1497 22.0099 12.7755 22.2639V23.8038C12.7755 24.3052 13.1821 24.712 13.6837 24.712H17.3165C17.8179 24.712 18.2247 24.3052 18.2247 23.8038V22.2639C18.8505 22.0099 19.4416 21.6679 19.9749 21.2512L21.3105 22.0222C21.5189 22.1426 21.767 22.1752 21.9994 22.113C22.2322 22.0506 22.4306 21.8985 22.551 21.6899L24.3674 18.5436C24.4878 18.335 24.5204 18.0871 24.4582 17.8546C24.3958 17.6219 24.2435 17.4234 24.0351 17.3031L22.6967 16.5304C22.7426 16.1988 22.7657 15.8632 22.7657 15.5276C22.7657 15.1879 22.7421 14.849 22.695 14.5136L24.0351 13.74C24.2437 13.6196 24.3958 13.4212 24.4582 13.1885C24.5204 12.9557 24.4878 12.7079 24.3674 12.4993L22.551 9.3532C22.3003 8.91896 21.7447 8.7702 21.3105 9.0209L19.9662 9.79713C19.435 9.38347 18.847 9.04384 18.2247 8.79125V7.23926C18.2247 6.73785 17.8182 6.33105 17.3165 6.33105H13.6837C13.1821 6.33105 12.7755 6.73785 12.7755 7.23926V8.79125C12.1535 9.04384 11.5653 9.38347 11.0343 9.79713L9.68973 9.0209C9.25549 8.76996 8.69993 8.91896 8.44923 9.3532L6.63282 12.4993C6.51243 12.7079 6.47979 12.956 6.542 13.1885C6.60443 13.4212 6.75651 13.6196 6.96512 13.74L8.30519 14.5136C8.25812 14.849 8.23447 15.1879 8.23447 15.5276C8.23447 15.8632 8.25765 16.1986 8.30353 16.5304L6.96535 17.3031C6.75651 17.4234 6.60443 17.6219 6.542 17.8546ZM15.5001 12.803C17.0048 12.803 18.2247 14.0229 18.2247 15.5276C18.2247 17.0323 17.0048 18.2522 15.5001 18.2522C13.9952 18.2522 12.7755 17.0323 12.7755 15.5276C12.7755 14.0229 13.9954 12.803 15.5001 12.803Z" fill="#52921B"/>
</g>
<defs>
<clipPath id="clip0_616_11826">
<rect width="31" height="31" fill="white"/>
</clipPath>
</defs>
</svg>
