<svg width="11" height="11" viewBox="0 0 11 11" fill="none" xmlns="http://www.w3.org/2000/svg">
<g clip-path="url(#clip0_493_5105)">
<path d="M7.65534 1.00684H3.34284C2.15197 1.00684 1.18658 1.96667 1.18658 3.15069V7.43838C1.18658 8.6224 2.15197 9.58223 3.34284 9.58223H7.65534C8.8462 9.58223 9.81159 8.6224 9.81159 7.43838V3.15069C9.81159 1.96667 8.8462 1.00684 7.65534 1.00684Z" stroke="#444444" stroke-width="1.15027" stroke-linecap="round" stroke-linejoin="round"/>
<path d="M7.22401 5.02405C7.27723 5.3809 7.21593 5.74534 7.04882 6.06554C6.88171 6.38575 6.6173 6.64541 6.29321 6.8076C5.96912 6.96979 5.60184 7.02624 5.24362 6.96893C4.88539 6.91162 4.55447 6.74346 4.29791 6.48837C4.04135 6.23329 3.87222 5.90427 3.81457 5.5481C3.75693 5.19194 3.81371 4.82678 3.97684 4.50455C4.13996 4.18232 4.40113 3.91943 4.72318 3.75328C5.04524 3.58714 5.41179 3.52618 5.7707 3.5791C6.13679 3.63308 6.47573 3.80269 6.73743 4.06288C6.99913 4.32308 7.16972 4.66006 7.22401 5.02405Z" stroke="#444444" stroke-width="1.15027" stroke-linecap="round" stroke-linejoin="round"/>
<ellipse cx="7.87023" cy="2.93515" rx="0.647027" ry="0.643155" fill="#444444"/>
</g>
<defs>
<clipPath id="clip0_493_5105">
<rect width="10.35" height="10.2905" fill="white" transform="translate(0.323792 0.148438)"/>
</clipPath>
</defs>
</svg>
