<svg width="445" height="483" viewBox="0 0 445 483" fill="none" xmlns="http://www.w3.org/2000/svg">
<path d="M430.289 351.488C430.276 352.536 429.952 353.558 429.358 354.422C428.764 355.287 427.927 355.956 426.953 356.345C425.979 356.734 424.911 356.825 423.885 356.606C422.859 356.388 421.921 355.871 421.189 355.119C420.458 354.367 419.966 353.416 419.775 352.384C419.584 351.353 419.704 350.288 420.119 349.325C420.534 348.361 421.225 347.543 422.105 346.972C422.986 346.402 424.015 346.106 425.064 346.121C425.76 346.129 426.447 346.275 427.086 346.549C427.726 346.824 428.304 347.222 428.79 347.72C429.275 348.219 429.657 348.808 429.914 349.455C430.172 350.101 430.299 350.792 430.289 351.488Z" fill="white"/>
<path d="M422.665 351.628L424.714 353.677L427.55 349.953" stroke="white" stroke-width="0.92" stroke-linecap="round" stroke-linejoin="round"/>
<path d="M61.6608 156.406C61.6673 157.453 61.3631 158.478 60.7867 159.352C60.2103 160.225 59.3877 160.909 58.4229 161.315C57.4581 161.721 56.3946 161.832 55.3668 161.633C54.3391 161.434 53.3933 160.935 52.6493 160.199C51.9053 159.463 51.3965 158.522 51.1872 157.496C50.978 156.471 51.0777 155.406 51.4737 154.437C51.8698 153.468 52.5444 152.639 53.4122 152.053C54.28 151.468 55.3019 151.153 56.3487 151.149C57.0433 151.143 57.7321 151.274 58.3757 151.536C59.0192 151.797 59.6047 152.184 60.0984 152.672C60.5921 153.161 60.9843 153.742 61.2524 154.383C61.5206 155.024 61.6593 155.711 61.6608 156.406Z" fill="white"/>
<path d="M54.0485 156.691L56.1405 158.696L58.9006 154.928" stroke="white" stroke-width="0.92" stroke-linecap="round" stroke-linejoin="round"/>
<path d="M318.066 200.491C317.947 202.085 317.358 203.608 316.374 204.867C315.39 206.126 314.054 207.066 312.536 207.566C311.019 208.066 309.386 208.106 307.846 207.679C306.306 207.252 304.927 206.378 303.883 205.168C302.84 203.957 302.178 202.465 301.983 200.878C301.787 199.292 302.066 197.684 302.785 196.256C303.503 194.828 304.629 193.646 306.019 192.857C307.41 192.069 309.002 191.711 310.596 191.828C312.735 191.987 314.723 192.99 316.124 194.614C317.524 196.238 318.223 198.352 318.066 200.491Z" fill="white"/>
<path d="M306.423 200.02L309.37 203.328L314.036 197.917" stroke="white" stroke-width="1.4" stroke-linecap="round" stroke-linejoin="round"/>
<path d="M444.735 279.472C444.738 279.859 444.625 280.237 444.411 280.56C444.198 280.882 443.894 281.133 443.537 281.282C443.18 281.431 442.787 281.471 442.408 281.396C442.029 281.321 441.681 281.135 441.407 280.862C441.134 280.589 440.948 280.24 440.873 279.861C440.798 279.482 440.838 279.089 440.987 278.732C441.136 278.375 441.387 278.071 441.71 277.858C442.032 277.644 442.41 277.532 442.797 277.534C443.31 277.537 443.802 277.742 444.164 278.105C444.527 278.468 444.733 278.959 444.735 279.472Z" fill="white"/>
<path opacity="0.3" d="M387.244 145.673C387.246 146.059 387.134 146.437 386.921 146.759C386.708 147.081 386.404 147.332 386.048 147.482C385.692 147.631 385.3 147.671 384.921 147.597C384.542 147.523 384.194 147.338 383.92 147.066C383.646 146.794 383.459 146.446 383.383 146.068C383.307 145.689 383.345 145.297 383.492 144.94C383.64 144.583 383.889 144.278 384.21 144.063C384.531 143.849 384.908 143.734 385.295 143.734C385.81 143.734 386.304 143.938 386.669 144.301C387.035 144.664 387.241 145.157 387.244 145.673Z" fill="white"/>
<path d="M34.3335 253.119C34.3335 253.734 34.1511 254.336 33.8093 254.847C33.4675 255.359 32.9817 255.757 32.4133 255.993C31.8449 256.228 31.2195 256.29 30.6161 256.17C30.0127 256.05 29.4584 255.753 29.0234 255.318C28.5884 254.883 28.2921 254.329 28.1721 253.726C28.0521 253.122 28.1137 252.497 28.3491 251.929C28.5845 251.36 28.9832 250.874 29.4947 250.533C30.0063 250.191 30.6077 250.008 31.2229 250.008C32.0479 250.008 32.8391 250.336 33.4224 250.919C34.0058 251.503 34.3335 252.294 34.3335 253.119Z" fill="white"/>
<path opacity="0.3" d="M417.178 225.803C417.18 226.75 416.901 227.677 416.376 228.466C415.851 229.255 415.104 229.87 414.228 230.234C413.353 230.597 412.39 230.693 411.461 230.509C410.531 230.324 409.677 229.868 409.007 229.198C408.337 228.528 407.881 227.674 407.697 226.745C407.512 225.815 407.608 224.852 407.972 223.977C408.335 223.102 408.951 222.355 409.739 221.829C410.528 221.304 411.455 221.025 412.403 221.027C413.669 221.027 414.884 221.53 415.779 222.426C416.675 223.322 417.178 224.536 417.178 225.803Z" fill="white"/>
<path opacity="0.3" d="M12.0117 288.541C12.0117 289.486 11.7316 290.409 11.2069 291.194C10.6821 291.979 9.93632 292.592 9.06372 292.953C8.19113 293.314 7.23095 293.409 6.30461 293.225C5.37826 293.04 4.52736 292.586 3.85951 291.918C3.19165 291.25 2.73684 290.399 2.55258 289.473C2.36831 288.546 2.46289 287.586 2.82433 286.714C3.18577 285.841 3.79784 285.095 4.58316 284.57C5.36847 284.046 6.29175 283.766 7.23625 283.766C8.50188 283.769 9.71485 284.273 10.6098 285.168C11.5047 286.062 12.0088 287.275 12.0117 288.541Z" fill="white"/>
<path opacity="0.3" d="M184.617 126.637C184.617 127.252 184.435 127.854 184.093 128.365C183.751 128.877 183.265 129.275 182.697 129.511C182.128 129.746 181.503 129.808 180.9 129.688C180.296 129.568 179.742 129.272 179.307 128.836C178.872 128.401 178.576 127.847 178.456 127.244C178.336 126.64 178.397 126.015 178.633 125.447C178.868 124.878 179.267 124.392 179.778 124.051C180.29 123.709 180.891 123.526 181.506 123.526C182.331 123.526 183.123 123.854 183.706 124.437C184.289 125.021 184.617 125.812 184.617 126.637Z" fill="white"/>
<path opacity="0.3" d="M207.914 226.307C207.914 226.923 207.731 227.524 207.389 228.036C207.046 228.548 206.56 228.947 205.991 229.182C205.422 229.417 204.796 229.478 204.192 229.357C203.589 229.236 203.034 228.939 202.6 228.503C202.165 228.066 201.87 227.511 201.751 226.907C201.632 226.303 201.695 225.677 201.932 225.109C202.17 224.541 202.57 224.056 203.083 223.715C203.596 223.375 204.198 223.194 204.814 223.196C205.222 223.196 205.626 223.277 206.003 223.433C206.38 223.59 206.722 223.819 207.01 224.108C207.298 224.397 207.526 224.74 207.681 225.117C207.836 225.495 207.915 225.899 207.914 226.307Z" fill="white"/>
<path opacity="0.2" d="M265.767 158.016C265.769 158.632 265.588 159.235 265.247 159.748C264.906 160.262 264.42 160.662 263.851 160.899C263.283 161.136 262.656 161.198 262.052 161.078C261.447 160.959 260.892 160.662 260.456 160.227C260.021 159.791 259.724 159.236 259.605 158.631C259.485 158.027 259.547 157.401 259.784 156.832C260.021 156.263 260.421 155.777 260.935 155.436C261.448 155.095 262.051 154.914 262.667 154.917C263.488 154.919 264.275 155.247 264.855 155.828C265.436 156.408 265.764 157.195 265.767 158.016Z" fill="white"/>
<path d="M3.40279 246.504C3.23911 246.501 3.08312 246.434 2.9684 246.317C2.85367 246.2 2.7894 246.043 2.78943 245.879V241.498C2.80942 241.348 2.88319 241.211 2.99701 241.111C3.11084 241.011 3.25698 240.957 3.40826 240.957C3.55955 240.957 3.70569 241.011 3.81951 241.111C3.93334 241.211 4.0071 241.348 4.0271 241.498V245.879C4.0271 246.045 3.96132 246.204 3.84424 246.321C3.72716 246.438 3.56836 246.504 3.40279 246.504Z" fill="white"/>
<path d="M5.59332 244.313H1.21219C1.12402 244.325 1.03435 244.318 0.949195 244.292C0.864039 244.266 0.78536 244.222 0.718433 244.164C0.651505 244.105 0.597872 244.033 0.561127 243.952C0.524381 243.871 0.505371 243.783 0.505371 243.694C0.505371 243.605 0.524381 243.517 0.561127 243.436C0.597872 243.355 0.651505 243.283 0.718433 243.224C0.78536 243.166 0.864039 243.122 0.949195 243.096C1.03435 243.071 1.12402 243.064 1.21219 243.075H5.59332C5.68149 243.064 5.77116 243.071 5.85632 243.096C5.94147 243.122 6.02015 243.166 6.08708 243.224C6.154 243.283 6.20764 243.355 6.24438 243.436C6.28113 243.517 6.30014 243.605 6.30014 243.694C6.30014 243.783 6.28113 243.871 6.24438 243.952C6.20764 244.033 6.154 244.105 6.08708 244.164C6.02015 244.222 5.94147 244.266 5.85632 244.292C5.77116 244.318 5.68149 244.325 5.59332 244.313Z" fill="white"/>
<path d="M39.9523 133.033H38.3861V131.434C38.3833 131.269 38.3166 131.112 38.2001 130.996C38.0836 130.879 37.9265 130.812 37.7618 130.81C37.6078 130.826 37.4654 130.899 37.3622 131.014C37.259 131.129 37.2023 131.279 37.2032 131.434V133H35.5712C35.4213 133.02 35.2837 133.094 35.184 133.208C35.0844 133.322 35.0294 133.468 35.0294 133.619C35.0294 133.77 35.0844 133.916 35.184 134.03C35.2837 134.144 35.4213 134.218 35.5712 134.238H37.2032V135.815C37.2032 135.978 37.2678 136.134 37.3828 136.249C37.4979 136.364 37.6539 136.428 37.8165 136.428C37.9802 136.428 38.1374 136.364 38.2542 136.249C38.3709 136.135 38.438 135.979 38.4409 135.815V134.238H40.0071C40.0953 134.25 40.185 134.242 40.2701 134.217C40.3553 134.191 40.4339 134.147 40.5009 134.089C40.5678 134.03 40.6214 133.958 40.6582 133.877C40.6949 133.796 40.7139 133.708 40.7139 133.619C40.7139 133.53 40.6949 133.442 40.6582 133.361C40.6214 133.28 40.5678 133.208 40.5009 133.149C40.4339 133.091 40.3553 133.047 40.2701 133.021C40.185 132.996 40.0953 132.988 40.0071 133L39.9523 133.033Z" fill="white"/>
<path d="M402.052 188.87C401.889 188.868 401.733 188.801 401.618 188.684C401.503 188.567 401.439 188.41 401.439 188.246V183.865C401.459 183.715 401.533 183.577 401.647 183.478C401.761 183.378 401.907 183.323 402.058 183.323C402.209 183.323 402.355 183.378 402.469 183.478C402.583 183.577 402.657 183.715 402.677 183.865V188.246C402.677 188.412 402.611 188.571 402.494 188.688C402.377 188.805 402.218 188.87 402.052 188.87Z" fill="white"/>
<path d="M404.243 186.68H399.862C399.698 186.677 399.542 186.61 399.427 186.493C399.313 186.377 399.248 186.22 399.248 186.056C399.248 185.893 399.313 185.737 399.428 185.622C399.543 185.507 399.699 185.442 399.862 185.442H404.243C404.324 185.441 404.405 185.456 404.481 185.486C404.557 185.516 404.626 185.561 404.684 185.618C404.742 185.675 404.788 185.743 404.82 185.819C404.851 185.894 404.867 185.974 404.867 186.056C404.867 186.221 404.802 186.38 404.684 186.497C404.567 186.614 404.409 186.68 404.243 186.68Z" fill="white"/>
<path d="M184.88 160.853H183.314V159.286C183.314 159.204 183.298 159.123 183.266 159.048C183.235 158.972 183.189 158.903 183.131 158.845C183.073 158.787 183.004 158.741 182.928 158.71C182.853 158.678 182.771 158.662 182.689 158.662C182.607 158.662 182.526 158.678 182.451 158.71C182.375 158.741 182.306 158.787 182.248 158.845C182.19 158.903 182.144 158.972 182.113 159.048C182.081 159.123 182.065 159.204 182.065 159.286V160.853H180.499C180.333 160.853 180.175 160.918 180.057 161.036C179.94 161.153 179.875 161.311 179.875 161.477C179.875 161.643 179.94 161.801 180.057 161.918C180.175 162.036 180.333 162.101 180.499 162.101H182.065V163.668C182.065 163.833 182.131 163.992 182.248 164.109C182.365 164.226 182.524 164.292 182.689 164.292C182.855 164.292 183.014 164.226 183.131 164.109C183.248 163.992 183.314 163.833 183.314 163.668V162.101H184.88C185.046 162.101 185.204 162.036 185.321 161.918C185.439 161.801 185.504 161.643 185.504 161.477C185.504 161.311 185.439 161.153 185.321 161.036C185.204 160.918 185.046 160.853 184.88 160.853Z" fill="white"/>
<path opacity="0.3" d="M378.35 186.625C378.33 186.522 378.304 186.42 378.274 186.319C378.19 185.902 378.077 185.492 377.934 185.092C377.631 184.193 377.203 183.342 376.664 182.562L377.912 181.324L374.944 178.367L374.889 178.422L373.717 179.626C372.488 178.794 371.101 178.22 369.643 177.94V176.198H365.459V177.94C364.007 178.22 362.628 178.794 361.406 179.626L360.18 178.389L357.211 181.346L358.449 182.584C357.624 183.814 357.051 185.195 356.762 186.647H355.021V190.831H356.773C357.053 192.288 357.623 193.673 358.449 194.906L357.211 196.132L360.18 199.09L361.406 197.852C362.632 198.686 364.014 199.26 365.47 199.539V201.291H369.654V199.539C371.112 199.258 372.499 198.685 373.728 197.852L374.9 199.035L374.955 199.09L376.74 197.315L377.923 196.132L376.74 194.96H376.675L376.74 194.873C377.539 193.664 378.09 192.309 378.361 190.886H380.114V186.702L378.35 186.625ZM367.551 195.705C366.169 195.703 364.819 195.291 363.672 194.522C362.524 193.753 361.63 192.661 361.103 191.384C360.575 190.107 360.439 188.702 360.71 187.347C360.98 185.993 361.647 184.748 362.625 183.772C363.602 182.796 364.847 182.132 366.203 181.863C367.558 181.594 368.962 181.733 370.238 182.262C371.515 182.792 372.605 183.687 373.373 184.836C374.14 185.985 374.55 187.336 374.55 188.717C374.55 189.636 374.369 190.545 374.017 191.394C373.665 192.243 373.149 193.013 372.499 193.662C371.849 194.311 371.077 194.826 370.228 195.176C369.379 195.527 368.469 195.707 367.551 195.705Z" fill="white"/>
<path opacity="0.3" d="M391.384 198.695C391.39 198.637 391.39 198.578 391.384 198.52C391.34 198.285 391.278 198.055 391.198 197.83C391.025 197.322 390.786 196.839 390.486 196.395L391.176 195.705L389.511 194.029L388.843 194.697C388.152 194.229 387.373 193.905 386.554 193.744V192.77H384.188V193.755C383.369 193.916 382.591 194.24 381.899 194.708L381.198 194.007L379.533 195.683L380.234 196.373C379.765 197.068 379.44 197.85 379.281 198.673H378.296V201.028H379.281C379.442 201.85 379.766 202.633 380.234 203.328L379.533 204.018L381.198 205.694L381.899 204.993C382.589 205.462 383.368 205.782 384.188 205.935V207.008H386.554V205.913C387.374 205.76 388.153 205.44 388.843 204.971L389.511 205.639L390.519 204.631L391.176 203.963L390.519 203.306C390.968 202.625 391.277 201.862 391.428 201.061H392.414V198.706L391.384 198.695ZM385.294 203.81C384.515 203.81 383.752 203.579 383.104 203.145C382.455 202.712 381.95 202.096 381.652 201.376C381.353 200.655 381.275 199.863 381.427 199.098C381.579 198.333 381.955 197.63 382.506 197.079C383.058 196.527 383.76 196.152 384.525 196C385.29 195.848 386.083 195.926 386.803 196.224C387.524 196.523 388.14 197.028 388.573 197.676C389.006 198.325 389.237 199.087 389.237 199.867C389.237 200.385 389.135 200.897 388.937 201.376C388.739 201.854 388.449 202.289 388.083 202.655C387.716 203.021 387.282 203.312 386.803 203.51C386.325 203.708 385.812 203.81 385.294 203.81Z" fill="white"/>
<path d="M180.521 246.723V259.396C180.522 259.582 180.46 259.763 180.345 259.91C180.267 260.03 180.159 260.127 180.033 260.194C179.907 260.261 179.766 260.295 179.623 260.294H160.97C160.743 260.291 160.525 260.205 160.357 260.053V248.289C160.357 248.187 160.377 248.086 160.416 247.992C160.455 247.897 160.512 247.812 160.584 247.74C160.657 247.667 160.742 247.61 160.837 247.571C160.931 247.532 161.032 247.512 161.134 247.512H174.223C174.326 247.512 174.428 247.491 174.523 247.452C174.618 247.412 174.704 247.354 174.777 247.28C174.849 247.207 174.906 247.12 174.944 247.024C174.983 246.928 175.002 246.826 175 246.723C174.999 246.622 175.018 246.521 175.056 246.426C175.094 246.332 175.15 246.246 175.221 246.174C175.292 246.102 175.377 246.044 175.471 246.005C175.565 245.966 175.666 245.946 175.767 245.946H179.699C179.805 245.941 179.91 245.958 180.009 245.995C180.107 246.032 180.198 246.088 180.274 246.161C180.351 246.233 180.412 246.32 180.454 246.417C180.497 246.514 180.519 246.618 180.521 246.723Z" fill="#8989E5"/>
<path d="M180.345 259.91C180.267 260.03 180.159 260.127 180.033 260.194C179.907 260.261 179.765 260.295 179.623 260.294H160.97C160.743 260.291 160.525 260.205 160.357 260.053C160.279 259.977 160.216 259.888 160.17 259.79V259.724L156.03 250.272C155.968 250.156 155.938 250.026 155.943 249.894C155.947 249.763 155.987 249.635 156.057 249.524C156.127 249.412 156.225 249.322 156.342 249.261C156.458 249.2 156.589 249.171 156.72 249.177H175.209C175.353 249.176 175.495 249.218 175.616 249.298C175.737 249.378 175.831 249.492 175.888 249.626L179.776 258.475L180.345 259.91Z" fill="white"/>
<path d="M290.213 470.073H292.404L278.537 343.688C278.47 343.169 278.218 342.691 277.828 342.342C277.438 341.992 276.936 341.794 276.413 341.782H205.219C204.696 341.794 204.194 341.992 203.804 342.342C203.414 342.691 203.162 343.169 203.095 343.688L189.261 470.073H191.452L206.906 351.782C206.984 351.271 207.239 350.804 207.628 350.463C208.017 350.122 208.514 349.93 209.031 349.92H272.634C273.153 349.919 273.654 350.108 274.044 350.451C274.433 350.794 274.684 351.267 274.748 351.782L290.213 470.073Z" fill="#80AAFF"/>
<path d="M278.899 366.821H202.733L205.504 347.183H276.073L278.899 366.821Z" fill="#80AAFF"/>
<path d="M286.851 431.88H194.781V435.035H286.851V431.88Z" fill="#80AAFF"/>
<path d="M242.503 449.81C243.467 452.57 245.789 454.103 247.815 455.637C249.841 457.17 249.293 460.379 250.126 463.117C250.439 464.541 251.207 465.823 252.314 466.772C253.42 467.72 254.805 468.283 256.259 468.375C259.972 468.89 267.848 469.47 269.83 466.644C270.057 466.336 270.231 465.991 270.345 465.626C271.133 463.161 268.735 460.719 266.818 458.134C264.627 455.188 262.667 450.905 260.104 446.557C259.353 445.347 258.89 443.982 258.751 442.565C258.612 441.148 258.802 439.718 259.304 438.386L249.184 433.348C247.804 438.342 246.599 438.233 245.635 439.919C244.515 441.809 243.576 443.8 242.831 445.867C242.319 447.116 242.205 448.493 242.503 449.81Z" fill="#3F3F3F"/>
<g style="mix-blend-mode:multiply">
<path d="M242.503 449.81C243.467 452.57 245.789 454.104 247.815 455.637C249.841 457.171 249.293 460.38 250.126 463.118C250.439 464.541 251.207 465.824 252.313 466.772C253.42 467.721 254.805 468.283 256.259 468.375C259.972 468.89 267.848 469.471 269.83 466.645C270.057 466.336 270.231 465.992 270.345 465.626C265.679 466.491 259.206 466.174 256.413 465.09C253.62 464.005 250.52 458.288 249.764 456.251C249.009 454.213 246.818 452.899 245.033 451.015C243.861 449.54 243.104 447.777 242.842 445.911C242.336 447.146 242.217 448.506 242.503 449.81Z" fill="#BF9271"/>
</g>
<path d="M238.625 449.81C237.662 452.57 235.34 454.103 233.313 455.637C231.287 457.17 231.835 460.379 231.002 463.117C230.687 464.542 229.917 465.825 228.808 466.773C227.7 467.721 226.314 468.283 224.858 468.375C221.156 468.89 213.281 469.47 211.298 466.644C211.067 466.338 210.892 465.993 210.783 465.626C209.984 463.161 212.393 460.719 214.299 458.134C216.49 455.188 218.461 450.905 221.024 446.557C221.772 445.346 222.233 443.98 222.372 442.564C222.511 441.148 222.323 439.719 221.824 438.386L231.944 433.348C233.313 438.342 234.529 438.233 235.493 439.919C236.609 441.811 237.548 443.802 238.297 445.867C238.809 447.116 238.924 448.493 238.625 449.81Z" fill="#3F3F3F"/>
<g style="mix-blend-mode:multiply">
<path d="M238.625 449.81C237.662 452.57 235.34 454.104 233.313 455.637C231.287 457.171 231.835 460.38 231.002 463.118C230.687 464.542 229.917 465.825 228.809 466.773C227.7 467.722 226.314 468.284 224.858 468.375C221.156 468.89 213.281 469.471 211.298 466.645C211.067 466.339 210.892 465.994 210.783 465.626C215.449 466.491 221.922 466.174 224.715 465.09C227.508 464.005 230.597 458.288 231.353 456.251C232.109 454.213 234.31 452.899 236.084 451.015C237.259 449.541 238.015 447.778 238.275 445.911C238.785 447.145 238.907 448.505 238.625 449.81Z" fill="#BF9271"/>
</g>
<path d="M278.987 333.721C278.987 333.721 295.876 347.116 293.083 362.746C290.29 378.375 261.736 442.778 261.736 442.778C261.736 442.778 252.415 443.446 247.497 436.086C247.497 436.086 255.723 381.727 263.543 368.606L243.445 365.254L224.748 368.606C224.748 368.606 232.7 425.013 233.511 435.9C233.511 435.9 232.339 440.861 220.674 442.877C220.674 442.877 194.573 377.817 192.35 366.371C190.126 354.925 199.25 340.424 199.25 340.424L228.626 316.142C228.626 316.142 264.069 321.169 264.901 321.169C265.734 321.169 278.987 333.721 278.987 333.721Z" fill="#333334"/>
<path d="M201.265 329.121C200.17 335.89 199.25 340.425 199.25 340.425C199.25 340.425 213.27 327.49 238.45 326.394C263.631 325.299 278.976 333.722 278.976 333.722C278.976 333.722 278.614 330.83 278.078 326.307C277.661 322.813 277.147 318.311 276.632 313.437C275.197 299.976 273.707 283.547 274.167 276.57C275 263.81 282.546 258.783 276.895 253.131C271.243 247.479 248.012 239.243 248.012 239.243L228.877 239.867C228.877 239.867 198.834 250.82 197.366 255.201C195.899 259.582 203.642 268.804 204.486 289.812C204.659 299.701 204.054 309.589 202.678 319.384C202.218 322.911 201.725 326.219 201.265 329.121Z" fill="#646464"/>
<path d="M251.298 240.469C251.298 240.469 253.959 244.336 258.088 263.646C261.374 279.122 263.784 304.28 266.424 311.696C269.063 319.111 278.986 333.722 278.986 333.722C278.986 333.722 262.075 328.147 239.491 333.897C216.742 339.68 201.616 338.541 201.616 338.541C201.616 338.541 202.426 337.347 210.553 318.892C218.68 300.436 219.589 274.73 220.115 265.157C221.156 246.242 223.401 241.915 223.401 241.915L238.549 235.409L251.298 240.469Z" fill="white"/>
<path d="M283.51 325.058H283.455C273.401 323.831 267.026 282.955 267.322 271.586L278.636 255.705C278.636 255.705 282.678 265.781 286.938 307.084C288.647 323.765 290.323 325.058 283.51 325.058Z" fill="#646464"/>
<path d="M286.927 307.073C292.338 307.828 318.745 313.097 318.745 313.097C318.745 313.097 319.194 320.621 317.65 322.845C317.65 322.845 283.028 323.162 278.132 322.746C273.236 322.33 271.802 315.945 272.557 309.263" fill="#646464"/>
<path d="M274.178 270.534C274.178 270.534 274.507 273.765 274.89 278.617C275.076 281.049 275.284 283.886 275.438 286.931C275.591 289.975 275.646 293.207 275.821 296.449C276.15 302.933 276.61 309.406 277.092 314.236C277.322 316.656 277.563 318.617 277.782 320.052C277.88 320.753 277.979 321.29 278.044 321.662C278.11 322.034 278.154 322.221 278.154 322.221L277.059 322.44L276.96 321.848C276.894 321.465 276.807 320.906 276.719 320.194C276.533 318.781 276.325 316.755 276.15 314.324C275.766 309.45 275.438 302.965 275.251 296.47C275.131 293.185 275.131 289.975 275.065 286.942C275 283.908 274.824 281.06 274.693 278.639C274.441 273.82 274.178 270.534 274.178 270.534Z" fill="#43407C"/>
<path d="M257.53 315.156C256.687 314.806 251.112 313.492 249.863 313.689C248.614 313.886 244.825 313.689 243.532 313.689C242.24 313.689 238.056 313.163 238.056 313.163L238.516 319.483C239.797 319.545 241.066 319.762 242.295 320.129C244.25 320.325 246.225 320.055 248.056 319.34L248.351 319.165C249.084 319.903 250.038 320.381 251.068 320.523C251.068 320.523 251.878 320.447 251.802 320.118C251.48 319.497 251.114 318.901 250.706 318.333C251.495 319.143 252.798 320.447 254.299 320.523C254.299 320.523 255.109 320.447 255.033 320.118C254.592 319.331 254.106 318.57 253.576 317.84C254.233 318.409 255.767 320.414 257.65 320.501C257.65 320.501 258.461 320.425 258.384 320.096C258.175 319.686 257.937 319.29 257.672 318.913C258.22 319.333 258.807 319.7 259.425 320.009C261.418 320.994 262.557 320.239 262.557 320.009C261.057 318.219 259.372 316.593 257.53 315.156Z" fill="#FBAB99"/>
<path d="M243.499 319.822H320.224C320.439 319.822 320.645 319.907 320.797 320.059C320.949 320.211 321.034 320.417 321.034 320.632V323.064H242.7V320.632C242.7 320.419 242.784 320.215 242.933 320.063C243.083 319.911 243.286 319.825 243.499 319.822Z" fill="#4A4B4D"/>
<path d="M198.002 254.303C189.907 263.164 187.739 286.559 190.247 305.956C191.276 313.864 190.849 323.481 202.624 323.481C211.736 323.481 239.228 322.856 239.228 322.856C240.816 319.362 240.323 313.108 240.323 313.108L208.418 306.997C208.418 306.997 208.418 279.878 206.457 273.317" fill="#646464"/>
<path d="M225.909 240.831C235.263 243.207 248.833 239.549 248.833 239.549C247.399 238.574 246.862 235.343 246.72 231.97C246.635 229.662 246.672 227.352 246.829 225.048C246.928 223.481 247.037 222.452 247.037 222.452L227.421 209.977C229.37 221.838 228.998 231.806 227.848 237.03C227.542 238.444 226.874 239.753 225.909 240.831Z" fill="#FBAB99"/>
<path d="M234.956 220.645C234.956 220.645 240.345 228.366 246.72 231.97C246.635 229.662 246.672 227.351 246.829 225.048L234.956 220.645Z" fill="#EF998B"/>
<path d="M262.338 195.607C262.338 195.607 265.087 224.172 254.671 230.502C249.972 233.35 234.617 220.349 234.617 220.349C234.617 220.349 224.562 211.663 226.292 201.598C229.534 182.595 259.392 176.702 262.338 195.607Z" fill="#FBAB99"/>
<path d="M269.775 186.975C268.98 186.418 268.071 186.044 267.114 185.88C266.996 185.164 266.695 184.49 266.24 183.924C265.785 183.358 265.192 182.919 264.518 182.649C263.747 182.278 262.895 182.105 262.041 182.146C261.186 182.186 260.355 182.438 259.622 182.879C259.333 182.224 258.916 181.634 258.394 181.142C257.873 180.651 257.259 180.27 256.588 180.02C252.207 178.246 250.224 181.302 250.224 181.302C250.224 181.302 247.41 176.132 240.728 177.775C239.108 178.112 237.659 179.009 236.635 180.31C235.611 181.61 235.079 183.229 235.131 184.883C233.652 184.245 232.01 184.089 230.437 184.437C228.864 184.785 227.441 185.619 226.369 186.822C225.295 187.833 224.573 189.161 224.309 190.611C224.045 192.062 224.253 193.559 224.901 194.883C223.786 194.863 222.7 195.236 221.832 195.937C220.965 196.638 220.372 197.622 220.159 198.717C219.359 202.474 223.029 204.686 223.029 204.686C222.138 206.662 221.827 208.849 222.13 210.995C222.601 214.719 226.818 217.413 226.818 217.413C226.576 217.848 226.431 218.331 226.393 218.827C226.355 219.324 226.426 219.823 226.6 220.289C226.774 220.756 227.047 221.179 227.4 221.53C227.754 221.88 228.179 222.15 228.647 222.32C230.049 222.682 226.884 206.723 233.565 206.921C237.541 207.03 238.79 213.908 239.425 213.262C240.06 212.616 238.735 204.281 240.016 202.934C240.786 202.032 241.734 201.3 242.801 200.783C243.869 200.267 245.031 199.977 246.216 199.933C247.062 199.93 247.883 199.639 248.542 199.107C249.201 198.576 249.659 197.835 249.841 197.008C249.841 197.008 252.612 199.648 255.175 198.859C255.879 198.679 256.506 198.279 256.967 197.718C257.428 197.156 257.698 196.463 257.738 195.738C258.742 196.385 259.829 196.894 260.969 197.249C272.261 201.663 274.551 190.294 269.775 186.975Z" fill="#3F3F3F"/>
<path d="M208.418 273.021C208.965 278.661 209.283 284.324 209.425 289.997C209.513 292.834 209.491 295.682 209.425 298.519C209.425 299.943 209.348 301.355 209.261 302.779C209.173 304.203 209.064 305.627 208.932 307.04L208.505 306.459L230.071 311.136C226.402 310.786 222.766 310.216 219.118 309.592C217.3 309.307 215.493 308.935 213.642 308.595L208.22 307.5L207.749 307.401L207.804 306.909C207.947 305.517 208.089 304.116 208.177 302.703C208.264 301.29 208.341 299.888 208.385 298.475C208.428 297.062 208.472 295.649 208.494 294.236V289.997C208.494 287.172 208.494 284.335 208.494 281.509C208.494 278.683 208.461 275.857 208.418 273.021Z" fill="#43407C"/>
<path d="M208.352 307.523C208.352 307.523 206.84 307.271 205.318 307.106C203.795 306.942 202.251 306.887 202.251 306.887C202.251 306.887 203.774 306.657 205.329 306.57C206.884 306.482 208.428 306.449 208.428 306.449L208.352 307.523Z" fill="#43407C"/>
<path d="M268.308 356.372L267.431 358.562C266.851 359.931 266.117 361.925 265.175 364.29C264.233 366.656 263.28 369.46 262.283 372.461C261.813 373.962 261.331 375.539 260.871 377.127C260.411 378.715 259.983 380.413 259.534 382.001C258.669 385.287 257.804 388.573 257.004 391.629C256.205 394.685 255.405 397.576 254.748 400.04C254.091 402.505 253.477 404.542 253.072 405.966C252.667 407.39 252.382 408.211 252.382 408.211C252.382 408.211 252.535 407.368 252.809 405.9C253.083 404.433 253.466 402.352 253.981 399.854C254.244 398.606 254.529 397.258 254.825 395.835C255.12 394.411 255.427 392.888 255.788 391.333C256.489 388.233 257.278 384.926 258.143 381.629C259.009 378.332 259.951 375.057 261.046 372.034C262.141 369.011 263.335 366.284 264.397 363.962C265.46 361.64 266.467 359.756 267.158 358.485C267.848 357.215 268.308 356.372 268.308 356.372Z" fill="#201D4F"/>
<path d="M221.21 356.372C221.464 356.834 221.695 357.309 221.9 357.795C222.284 358.716 222.842 360.052 223.368 361.695C223.653 362.505 223.916 363.403 224.19 364.356C224.463 365.309 224.737 366.306 224.967 367.357C225.482 369.449 225.931 371.738 226.325 373.929C226.72 376.12 227.037 378.463 227.267 380.61C227.497 382.757 227.673 384.739 227.782 386.459C227.892 388.179 227.903 389.613 227.957 390.61C228.012 391.607 227.957 392.187 227.957 392.187C227.957 392.187 227.837 391.629 227.651 390.643C227.465 389.657 227.234 388.244 226.939 386.547C226.643 384.849 226.336 382.888 225.986 380.785C225.811 379.69 225.635 378.595 225.449 377.5C225.263 376.404 225.088 375.309 224.88 374.148C224.518 371.892 224.102 369.657 223.708 367.576C223.313 365.495 222.919 363.524 222.558 361.859C222.196 360.194 221.879 358.792 221.605 357.828C221.331 356.864 221.21 356.372 221.21 356.372Z" fill="#201D4F"/>
<path d="M232.963 209.439C233.51 209.187 234.43 209.122 235.153 210.534C235.876 211.947 235.263 211.86 235.153 212.725C235.044 213.59 235.854 213.579 236.095 214.335C236.336 215.091 236.041 216.887 234.474 216.526C232.908 216.164 232.547 213.798 232.36 213.086C232.174 212.375 231.802 209.965 232.963 209.439Z" fill="#EF998B"/>
<path d="M130.872 435.495C131.035 438.92 130.425 442.338 129.086 445.495L130.182 452.975L134.409 454.301L144.606 443.096C144.643 441.214 144.585 439.331 144.431 437.455L130.872 435.495Z" fill="#C1866F"/>
<path d="M127.465 461.836C128.407 463.03 137.323 462.767 139.579 463.753C141.835 464.739 147.246 467.641 152.569 467.915C157.892 468.189 165.964 466.886 167.564 465.199C169.163 463.512 167.465 460.522 167.465 460.522C167.465 460.522 167.684 458.562 166.709 457.817C165.734 457.072 160.652 455.626 157.115 453.249C153.577 450.873 148.276 444.739 145.066 443.173C145.066 443.173 143.818 442.757 141.025 443.688C138.232 444.619 137.662 448.145 135.286 449.504C134.501 450.027 133.546 450.232 132.616 450.075C131.685 449.918 130.85 449.412 130.28 448.66C129.634 447.685 129.283 444.728 128.462 445.057C127.641 445.385 126.381 452.395 127.104 456.951C127.104 456.951 126.512 460.632 127.465 461.836Z" fill="#242833"/>
<path d="M127.465 461.837C128.407 463.03 137.323 462.767 139.579 463.753C141.835 464.739 147.246 467.641 152.569 467.915C157.892 468.189 165.964 466.886 167.564 465.199C169.163 463.512 167.465 460.522 167.465 460.522C167.465 460.522 165.899 463.304 155.417 462.888C144.935 462.472 143.566 460.117 140.083 459.153C136.6 458.189 129.875 456.776 127.126 456.962C127.104 456.952 126.512 460.632 127.465 461.837Z" fill="#495060"/>
<path d="M69.1744 420.654C68.2408 423.951 66.5747 426.995 64.3004 429.558L62.9642 437.017L66.5457 439.602L79.7768 432.231C79.7768 432.231 82.2302 425.999 81.9673 426.075L69.1744 420.654Z" fill="#C1866F"/>
<path d="M57.5645 444.542C58.0793 445.966 66.5786 448.54 68.4406 450.216C70.3026 451.891 74.4537 456.338 79.3934 458.288C84.3332 460.238 92.4273 461.574 94.4755 460.478C96.5236 459.383 95.8774 456.021 95.8774 456.021C95.8774 456.021 96.7098 454.224 96.0198 453.206C95.3298 452.187 90.9815 449.164 88.3528 445.835C85.7242 442.505 82.6793 434.958 80.1273 432.45C80.1273 432.45 79.032 431.662 76.1405 431.651C73.2489 431.64 71.5293 434.805 68.8459 435.331C67.9355 435.579 66.9649 435.469 66.1323 435.026C65.2998 434.582 64.668 433.837 64.3662 432.943C64.0705 431.848 64.6729 428.901 63.7857 428.945C62.8985 428.989 59.4922 435.254 58.7255 439.8C58.7802 439.8 57.0387 443.096 57.5645 444.542Z" fill="#242833"/>
<path d="M57.5644 444.542C58.0792 445.966 66.5786 448.54 68.4406 450.215C70.3026 451.891 74.4537 456.338 79.3934 458.288C84.3331 460.237 92.4272 461.574 94.4754 460.478C96.5236 459.383 95.8774 456.02 95.8774 456.02C95.8774 456.02 93.5006 458.156 83.6978 454.432C73.8951 450.708 73.3474 448.036 70.3245 445.999C67.3015 443.961 61.3979 440.522 58.7473 439.799C58.7802 439.799 57.0387 443.096 57.5644 444.542Z" fill="#495060"/>
<path d="M148.506 271.389C148.506 271.389 153.982 318.015 153.982 349.384C153.982 365.978 146.841 439.022 146.841 439.022C146.841 439.022 137.783 440.687 129.809 438.463C129.809 438.463 126.129 377.938 128.9 357.621C128.9 357.621 116.425 314.467 115.592 276.373" fill="#495060"/>
<path d="M89.1085 274.335C88.9004 275.846 88.7142 277.369 88.539 278.891H80.5872C80.5872 278.891 79.1962 291.947 83.6869 303.634C84.3988 305.474 88.6594 356.12 88.6594 356.12C80.2477 375.681 66.3814 421.683 66.3814 421.683C69.4372 425.462 75.4942 428.189 81.8358 428.518C81.8358 428.518 112.843 368.923 115.472 352.538C120.434 321.553 124.628 274.368 124.628 274.368L89.1085 274.335Z" fill="#495060"/>
<path d="M151.989 181.915C151.255 189.221 149.743 196.406 148.582 203.656C147.487 210.371 147.487 216.8 147.093 223.591C146.425 234.182 145.592 240.863 145.997 251.498C146.129 254.357 148.068 265.989 148.298 266.942C148.528 267.895 149.864 275.605 149.853 276.591C145.976 278.508 138.243 279.023 135.713 279.439C130.674 280.26 123.227 281.421 118.123 281.4C107.947 281.4 89.3166 281.06 79.3934 278.924C79.3934 275.102 82.3178 258.946 82.3835 256.438C82.7887 239.264 83.6431 222.232 83.2378 205.069C83.1283 200.612 82.3616 195.026 84.4755 190.962C89.0209 182.2 101.233 176.559 106.644 168.421C108.298 165.924 105.823 159.571 106.994 159.429C108.338 159.224 109.708 159.268 111.036 159.56C111.036 159.56 117.378 159.56 118.648 159.506C123.687 159.287 135.077 161.258 135.077 161.258C135.077 161.258 143.675 162.561 147.312 166.066C150.948 169.571 153.062 174.829 151.989 179.79" fill="#272A33"/>
<path d="M122.548 294.335C121.967 300.677 121.058 306.985 120.236 313.305C119.415 319.625 118.287 326.021 118.166 332.396C118.166 332.615 118.484 332.604 118.506 332.396C119.678 319.713 122.361 307.062 122.887 294.335C122.887 294.138 122.591 294.138 122.569 294.335H122.548Z" fill="#2E3749"/>
<path d="M112.46 140.536C112.997 145.04 112.997 149.591 112.46 154.095C112.269 155.283 111.743 156.391 110.944 157.289C110.144 158.188 109.105 158.839 107.947 159.166C107.663 159.243 107.257 159.342 107.027 159.429C108.703 162.2 113.599 168.805 125.527 167.447C129.021 167.052 133.621 164.446 135.11 161.258L131.956 159.736C131.033 159.292 130.254 158.596 129.712 157.727C129.169 156.858 128.883 155.853 128.889 154.829C128.936 152.17 128.823 149.511 128.55 146.866" fill="#C1866F"/>
<path d="M135.351 131.916C134.823 134.176 135.147 136.55 136.26 138.586C136.556 139.342 136.999 140.031 137.563 140.614C138.127 141.197 138.801 141.662 139.546 141.982C141.189 142.507 143.095 121.96 142.471 120.689C141.638 118.992 142.12 117.875 140.225 117.875" fill="#3F3F3F"/>
<path d="M128.988 152.485C125.017 151.807 121.263 150.197 118.035 147.787C118.385 150.109 120.083 152.715 123.752 154.063C125.421 154.472 127.146 154.598 128.856 154.435" fill="#A86956"/>
<path d="M138.988 116.22C145.307 124.369 143.062 152.364 139.152 153.218C131.792 154.883 119.174 151.948 114.212 146.198C108.856 139.965 110.85 128.158 112.241 120.732C113.511 113.974 116.962 105.278 125.439 107.228C130.864 108.557 135.656 111.737 138.988 116.22Z" fill="#C1866F"/>
<path d="M120.445 117.436C121.49 118.947 122.01 120.76 121.923 122.595C122.123 125.351 121.574 128.11 120.335 130.579C119.952 131.259 119.568 134.785 118.845 134.479C118.561 134.369 118.692 131.883 118.276 130.437C117.63 128.247 114.672 127.348 113.38 128.641C111.047 130.941 112.339 133.745 112.635 135.092C112.876 136.187 113.796 137.283 113.884 138.378C114.004 139.758 113.884 144.785 112.942 145.935C112.164 146.899 111.518 142.113 110.872 141.16C106.053 134.019 105.844 114.172 112.975 112.365C113.643 112.121 114.355 112.018 115.066 112.061C115.776 112.104 116.47 112.293 117.104 112.617" fill="#3F3F3F"/>
<path d="M236.742 173.35C238.352 171.367 240.093 169.067 239.951 168.651C239.721 167.95 238.341 168.388 237.76 168.717C237.091 169.259 236.455 169.84 235.854 170.458C237.278 168.267 238.845 165.683 238.669 165.288C238.363 164.609 237.037 165.19 236.479 165.584C235.419 166.7 234.418 167.87 233.478 169.089C234.442 167.26 235.515 164.96 235.263 164.434C234.869 163.623 233.182 164.784 232.853 165.234C231.66 166.886 230.318 168.425 228.845 169.834C227.286 170.879 225.6 171.722 223.828 172.342C222.613 172.605 222.142 171.948 222.503 171.301C222.864 170.655 224.387 169.648 225.044 168.629C225.627 167.748 225.872 166.686 225.734 165.639C225.537 165.058 224.88 165.091 224.168 165.836C223.456 166.581 218.374 169.834 217.947 170.622C217.519 171.411 216.643 175.212 216.227 175.792C215.811 176.373 211.408 178.432 211.408 178.432L215.033 186.099C217.362 184.683 219.985 183.821 222.7 183.58C223.942 183.552 225.164 183.257 226.282 182.714C227.377 182.254 231.758 180.436 232.262 180.02C232.766 179.604 238.187 174.368 238.045 173.722C237.925 173.251 237.3 173.24 236.742 173.35Z" fill="#F9AB87"/>
<path d="M147.367 166.067C147.367 166.067 166.282 181.138 177.684 194.029C177.684 194.029 190.751 186.768 213.171 177.009L219.162 186.319C219.162 186.319 183.018 212.781 176.622 214.336C171.222 215.65 146.228 200.185 146.228 200.185" fill="#272A33"/>
<path d="M39.5689 257.523C39.2897 256.86 39.1438 256.148 39.1396 255.429C39.1355 254.709 39.2731 253.996 39.5447 253.33C39.8163 252.663 40.2164 252.057 40.7224 251.546C41.2283 251.034 41.8301 250.627 42.4933 250.349L43.8515 249.768L48.1559 259.856L46.7868 260.436C46.1221 260.723 45.4072 260.874 44.6834 260.883C43.9596 260.891 43.2414 260.756 42.5702 260.485C41.899 260.214 41.2882 259.813 40.773 259.304C40.2579 258.796 39.8486 258.19 39.5689 257.523Z" fill="#777777"/>
<path d="M143.445 213.7C140.805 207.419 136.442 202.012 130.861 198.104C128.641 196.557 126.257 195.26 123.752 194.237C119.355 192.45 114.648 191.546 109.901 191.577C105.154 191.609 100.46 192.575 96.086 194.422C91.7125 196.268 87.7455 198.957 84.4115 202.336C81.0776 205.716 78.4419 209.719 76.6552 214.117C74.2017 220.152 68.0353 225.628 62.7013 227.654L77.1042 261.772C82.3178 259.407 90.5105 258.782 96.5345 261.225C103.156 263.915 110.426 264.581 117.426 263.14C124.426 261.7 130.841 258.216 135.862 253.13C140.882 248.043 144.282 241.583 145.632 234.565C146.982 227.547 146.221 220.286 143.445 213.7Z" fill="white"/>
<path d="M69.3168 250.085L120.861 228.344C122.143 227.76 123.556 227.524 124.958 227.658C126.361 227.792 127.703 228.293 128.851 229.109C129.999 229.925 130.913 231.029 131.5 232.31C132.087 233.59 132.327 235.003 132.197 236.405C131.901 242.583 123.435 246.449 115.132 242.977C108.736 240.305 104.333 230.206 104.333 230.206C104.333 230.206 100.171 220.009 102.723 213.569C106.009 205.168 114.705 201.816 119.327 205.902C120.422 206.791 121.263 207.953 121.767 209.27C122.271 210.587 122.419 212.014 122.197 213.407C121.975 214.799 121.391 216.109 120.502 217.205C119.614 218.3 118.454 219.143 117.137 219.648L65.6804 241.411" stroke="#B0B0B0" stroke-width="2.43" stroke-miterlimit="10"/>
<path d="M75.7899 265.825L68.6815 268.815C68.3967 268.946 68.101 269.056 67.8162 269.155C66.4957 269.629 65.1184 269.927 63.7199 270.042C62.8199 270.124 61.9144 270.124 61.0145 270.042C59.3036 269.899 57.6257 269.489 56.0419 268.826C54.7683 268.289 53.5654 267.597 52.4604 266.767C50.1983 265.038 48.4244 262.751 47.3125 260.129L43.1067 250.14C41.949 247.392 41.5667 244.379 42.0011 241.428C42.4356 238.478 43.6703 235.703 45.571 233.405C46.1424 232.709 46.7727 232.064 47.4549 231.477C48.5123 230.555 49.6872 229.778 50.9489 229.166C51.2336 229.023 51.5075 228.903 51.7922 228.782L58.9116 225.781C59.0518 225.718 59.1988 225.67 59.3497 225.639C60.0398 225.463 60.7701 225.541 61.4075 225.859C62.0449 226.176 62.5469 226.713 62.8217 227.37L77.389 261.893C77.6666 262.551 77.6987 263.286 77.4796 263.966C77.2605 264.645 76.8047 265.223 76.1951 265.595C76.0664 265.682 75.9309 265.759 75.7899 265.825Z" fill="#CDCDF7"/>
<path d="M59.3497 225.628L76.1951 265.606C76.0661 265.689 75.9306 265.763 75.7899 265.825L73.9169 266.613L57.0277 226.581L59.3497 225.628Z" fill="#777777"/>
<path d="M70.1273 268.213L67.8163 269.155L50.949 229.177C51.2337 229.034 51.5076 228.914 51.7923 228.794L53.2381 228.18L70.1273 268.213Z" fill="#777777"/>
<path d="M63.7199 270.041C62.8199 270.123 61.9144 270.123 61.0145 270.041L45.571 233.404C46.1424 232.708 46.7727 232.063 47.4549 231.476L63.7199 270.041Z" fill="#777777"/>
<path d="M56.0419 268.837C54.7683 268.3 53.5654 267.608 52.4604 266.778L41.9457 241.827C42.1139 240.457 42.4562 239.113 42.9643 237.83L56.0419 268.837Z" fill="#777777"/>
<path d="M91.5401 250.371C91.5401 250.371 92.6353 253.054 92.9311 253.591C93.2268 254.127 94.9135 254.686 95.3626 255.08C95.8117 255.475 98.6484 258.87 98.7799 259.231C98.9113 259.593 98.7799 260.141 97.5422 259.834C96.3045 259.527 94.8697 257.994 94.0811 257.709C93.2925 257.424 94.2235 259.44 95.4283 260.48C96.6331 261.521 99.0975 262.057 99.2399 262.243C98.5827 262.597 97.859 262.81 97.115 262.868C95.505 263.109 94.333 263.744 91.9453 263.624C90.7849 263.526 89.6877 263.054 88.8201 262.277C87.9524 261.5 87.3616 260.462 87.137 259.319C86.6075 257.189 85.8242 255.129 84.8041 253.185" fill="#C1866F"/>
<path d="M107.049 159.429C107.049 159.429 92.1972 162.463 85.0341 166.395C77.871 170.327 62.7999 210.973 63.4133 215.858C64.0266 220.743 82.4054 252.922 84.1579 254.938C86.9375 253.938 89.603 252.645 92.1096 251.082C92.1096 251.082 82.7888 222.057 81.4963 217.326C88.1734 205.91 94.2638 194.16 99.7437 182.123C104.092 176.8 113.292 172.638 107.049 159.429Z" fill="#272A33"/>
<path d="M107.049 124.435C107.049 124.435 132.58 121.97 143.533 124.435C143.533 124.435 145.001 104.719 127.651 104.358C110.959 104.051 105.932 116.724 107.049 124.435Z" fill="#272A33"/>
<path d="M121.945 123.482C131.409 128.151 141.894 130.369 152.438 129.933C160.576 129.55 143.566 123.756 143.566 123.756C143.566 123.756 135.012 121.346 121.945 123.482Z" fill="#495060"/>
<path d="M415.864 471.508H411.483C411.159 471.508 410.844 471.401 410.588 471.202C410.332 471.004 410.15 470.726 410.07 470.412L376.116 338.847L374.177 331.301H394.035L395.305 338.847L417.211 469.81C417.245 470.012 417.236 470.218 417.186 470.416C417.135 470.614 417.043 470.799 416.916 470.959C416.789 471.119 416.629 471.251 416.448 471.345C416.267 471.44 416.068 471.495 415.864 471.508Z" fill="#80AAFF"/>
<path d="M149.371 331.301L147.432 338.847L113.479 470.412C113.398 470.726 113.216 471.004 112.96 471.202C112.704 471.401 112.389 471.508 112.066 471.508H107.684C107.473 471.507 107.264 471.461 107.072 471.372C106.88 471.283 106.71 471.153 106.574 470.991C106.437 470.83 106.337 470.64 106.282 470.436C106.226 470.232 106.215 470.019 106.25 469.81L128.21 338.847L129.47 331.301H149.371Z" fill="#80AAFF"/>
<path d="M129.503 331.301H149.371L147.432 338.847H128.243L129.503 331.301Z" fill="#88AAE2"/>
<path d="M395.338 338.847H376.149L374.21 331.301H394.068L395.338 338.847Z" fill="#88AAE2"/>
<path d="M105.724 331.311H420.858C421.401 331.311 421.939 331.204 422.441 330.996C422.943 330.788 423.398 330.483 423.782 330.098C424.166 329.713 424.469 329.257 424.676 328.755C424.883 328.253 424.989 327.714 424.988 327.171C424.988 326.076 424.552 325.026 423.778 324.251C423.004 323.477 421.953 323.042 420.858 323.042H105.724C104.629 323.042 103.579 323.477 102.804 324.251C102.03 325.026 101.595 326.076 101.595 327.171C101.593 327.714 101.699 328.253 101.906 328.755C102.113 329.257 102.417 329.713 102.8 330.098C103.184 330.483 103.64 330.788 104.141 330.996C104.643 331.204 105.181 331.311 105.724 331.311Z" fill="#80AAFF"/>
<path d="M424.987 327.171C424.987 328.267 424.552 329.317 423.778 330.091C423.004 330.866 421.953 331.301 420.858 331.301H105.724C105.181 331.302 104.643 331.196 104.14 330.989C103.638 330.783 103.182 330.479 102.797 330.095C102.412 329.711 102.107 329.256 101.899 328.754C101.691 328.252 101.584 327.715 101.584 327.171H424.987Z" fill="#8FB2EA"/>
<path d="M378.449 305.584H262.831C262.475 305.584 262.124 305.508 261.8 305.361C261.476 305.214 261.187 304.999 260.953 304.732C260.719 304.464 260.544 304.15 260.441 303.809C260.338 303.469 260.309 303.11 260.356 302.758L270.498 225.124C270.573 224.52 270.866 223.964 271.321 223.561C271.777 223.157 272.365 222.934 272.973 222.934H388.624C388.979 222.934 389.329 223.01 389.652 223.156C389.975 223.302 390.264 223.515 390.498 223.782C390.732 224.048 390.907 224.361 391.011 224.7C391.114 225.039 391.145 225.397 391.1 225.748L380.924 303.437C380.84 304.033 380.543 304.578 380.088 304.973C379.633 305.367 379.051 305.584 378.449 305.584Z" fill="#6888D5"/>
<path d="M382.786 305.584H267.212C266.857 305.584 266.505 305.508 266.181 305.361C265.857 305.214 265.568 304.999 265.334 304.732C265.1 304.464 264.925 304.15 264.822 303.809C264.719 303.469 264.69 303.11 264.737 302.758L274.879 225.124C274.952 224.519 275.244 223.962 275.7 223.558C276.157 223.154 276.745 222.932 277.355 222.934H392.962C393.316 222.934 393.666 223.009 393.989 223.156C394.311 223.302 394.599 223.516 394.832 223.782C395.066 224.049 395.239 224.362 395.342 224.701C395.444 225.04 395.473 225.397 395.426 225.748L385.251 303.437C385.169 304.032 384.874 304.577 384.421 304.972C383.968 305.367 383.387 305.584 382.786 305.584Z" fill="#80AAFF"/>
<path d="M330.629 323.042H309.994L320.585 242.211C320.654 241.702 320.905 241.235 321.292 240.896C321.678 240.558 322.175 240.371 322.688 240.371H339.041C339.343 240.371 339.641 240.436 339.916 240.561C340.19 240.686 340.435 240.868 340.634 241.095C340.833 241.322 340.982 241.588 341.07 241.877C341.157 242.166 341.183 242.47 341.144 242.769L330.629 323.042Z" fill="#6888D5"/>
<path d="M333.356 323.042H312.732L323.313 242.211C323.382 241.702 323.632 241.235 324.019 240.896C324.406 240.558 324.902 240.371 325.416 240.371H341.779C342.081 240.371 342.378 240.436 342.653 240.561C342.927 240.686 343.171 240.868 343.37 241.095C343.568 241.322 343.715 241.589 343.801 241.878C343.888 242.167 343.912 242.471 343.871 242.769L333.356 323.042Z" fill="#5E83CC"/>
<path d="M290.596 319.482H353.027C353.51 319.482 353.972 319.674 354.313 320.015C354.654 320.356 354.846 320.818 354.846 321.301V323.042H288.778V321.301C288.778 320.818 288.97 320.356 289.311 320.015C289.652 319.674 290.114 319.482 290.596 319.482Z" fill="#5E83CC"/>
<path d="M226.884 164.643C226.318 164.76 225.728 164.648 225.244 164.332C224.76 164.016 224.42 163.522 224.299 162.956L224.179 162.376L228.45 161.478L228.571 162.058C228.688 162.624 228.576 163.214 228.26 163.698C227.944 164.182 227.449 164.522 226.884 164.643Z" fill="#777777"/>
<path d="M217.662 120.601C214.876 121.19 212.327 122.59 210.336 124.626C208.344 126.661 207 129.24 206.472 132.038C205.943 134.836 206.255 137.727 207.367 140.349C208.48 142.97 210.343 145.203 212.722 146.767C214.892 148.334 216.4 150.654 216.95 153.273L231.429 150.239C230.883 147.614 231.336 144.88 232.7 142.572C233.491 141.375 234.093 140.064 234.485 138.684C235.178 136.292 235.239 133.762 234.664 131.34C234.088 128.918 232.896 126.686 231.202 124.861C229.508 123.036 227.371 121.68 224.999 120.926C222.626 120.172 220.098 120.045 217.662 120.557V120.601Z" fill="white"/>
<path d="M226.238 152.43L221.67 130.579C221.537 130.033 221.551 129.461 221.709 128.921C221.868 128.381 222.166 127.892 222.574 127.505C222.982 127.117 223.484 126.844 224.032 126.712C224.579 126.581 225.151 126.596 225.69 126.757C228.089 127.337 228.976 130.941 226.95 133.942C225.416 136.242 221.134 137.228 221.134 137.228C221.134 137.228 216.829 138.071 214.496 136.582C211.462 134.643 210.816 130.996 212.766 129.495C213.431 128.949 214.285 128.685 215.143 128.761C215.833 128.84 216.481 129.136 216.992 129.607C217.504 130.077 217.854 130.698 217.99 131.379L222.569 153.285" stroke="#B0B0B0" stroke-width="0.97" stroke-miterlimit="10"/>
<path d="M232.897 151.149L233.532 154.161L233.598 154.523C233.669 155.079 233.669 155.642 233.598 156.199C233.563 156.569 233.494 156.936 233.39 157.294C233.205 157.952 232.916 158.577 232.536 159.145C232.222 159.604 231.854 160.023 231.44 160.394C230.59 161.15 229.555 161.668 228.439 161.894L224.211 162.781C223.098 163.014 221.943 162.953 220.86 162.606C220.337 162.429 219.836 162.19 219.37 161.894C218.791 161.529 218.277 161.07 217.848 160.536C217.615 160.261 217.41 159.964 217.234 159.649C216.952 159.166 216.738 158.646 216.599 158.104C216.564 157.986 216.534 157.865 216.512 157.743L215.876 154.731C215.871 154.673 215.871 154.614 215.876 154.556C215.86 154.271 215.945 153.989 216.118 153.762C216.291 153.535 216.539 153.378 216.818 153.318L231.451 150.262C231.73 150.197 232.022 150.238 232.273 150.375C232.523 150.512 232.714 150.737 232.809 151.007C232.843 151.051 232.873 151.099 232.897 151.149Z" fill="#CDCDF7"/>
<path d="M215.909 154.434L232.842 150.886C232.849 150.944 232.849 151.003 232.842 151.061L233.007 151.861L216.041 155.409L215.909 154.434Z" fill="#777777"/>
<path d="M233.401 153.493L233.598 154.468L216.654 158.017C216.618 157.898 216.589 157.777 216.566 157.655L216.435 157.053L233.401 153.493Z" fill="#777777"/>
<path d="M233.631 156.143C233.596 156.514 233.527 156.881 233.423 157.238L217.903 160.524C217.67 160.249 217.464 159.952 217.289 159.637L233.631 156.143Z" fill="#777777"/>
<path d="M232.569 159.057C232.255 159.516 231.887 159.935 231.473 160.305L220.893 162.496C220.37 162.319 219.869 162.08 219.403 161.784L232.569 159.057Z" fill="#777777"/>
<path d="M217.202 118.388L215.252 109.057" stroke="white" stroke-width="0.78" stroke-miterlimit="10" stroke-linecap="round"/>
<path d="M227.18 119.167L230.652 110.295" stroke="white" stroke-width="0.78" stroke-miterlimit="10" stroke-linecap="round"/>
<path d="M235.099 125.29L242.864 119.77" stroke="white" stroke-width="0.78" stroke-miterlimit="10" stroke-linecap="round"/>
<path d="M238.363 134.741L247.891 134.38" stroke="white" stroke-width="0.78" stroke-miterlimit="10" stroke-linecap="round"/>
<path d="M208.187 123.143L201.441 116.407" stroke="white" stroke-width="0.78" stroke-miterlimit="10" stroke-linecap="round"/>
<path d="M203.39 131.927L194.058 129.988" stroke="white" stroke-width="0.78" stroke-miterlimit="10" stroke-linecap="round"/>
<path d="M204.19 141.905L195.318 145.388" stroke="white" stroke-width="0.78" stroke-miterlimit="10" stroke-linecap="round"/>
<path d="M201.605 315.869H143.61V323.119H201.605V315.869Z" fill="#443E49"/>
<path d="M153.632 317.686H145.461V321.3H153.632V317.686Z" fill="#8E8E8E"/>
<path d="M198.954 317.686H197.092V321.3H198.954V317.686Z" fill="#8E8E8E"/>
<path d="M190.762 317.686H161.507V321.3H190.762V317.686Z" fill="#8E8E8E"/>
<path d="M201.605 301.355H143.61V308.606H201.605V301.355Z" fill="white"/>
<path d="M151.529 303.174H145.461V306.788H151.529V303.174Z" fill="#F9DACA"/>
<path d="M198.954 301.355H197.092V308.606H198.954V301.355Z" fill="#F9DACA"/>
<path d="M195.69 301.355H193.828V308.606H195.69V301.355Z" fill="#F9DACA"/>
<path d="M190.751 303.174H156.348V306.788H190.751V303.174Z" fill="#F9DACA"/>
<path d="M196.567 308.606V315.868H138.571V314.893H176.545V309.679H138.571V308.606H196.567Z" fill="#5D7EC3"/>
<path d="M176.545 309.68H139.875V314.893H176.545V309.68Z" fill="#DDDDDD"/>
<path d="M366.784 135.717H284.912C283.528 135.716 282.191 136.219 281.151 137.132C280.111 138.045 279.439 139.306 279.26 140.678L274.781 175.333C274.769 175.419 274.785 175.506 274.826 175.582C274.867 175.658 274.932 175.719 275.01 175.756C275.088 175.792 275.176 175.803 275.261 175.786C275.346 175.769 275.423 175.726 275.482 175.662L286.741 163.077C287.277 162.481 287.932 162.004 288.664 161.678C289.397 161.351 290.189 161.182 290.991 161.182H363.005C364.381 161.182 365.71 160.684 366.747 159.78C367.784 158.876 368.458 157.627 368.646 156.264L370.837 140.361C370.917 139.782 370.871 139.193 370.704 138.633C370.537 138.074 370.252 137.556 369.868 137.116C369.484 136.676 369.01 136.323 368.478 136.082C367.946 135.841 367.368 135.716 366.784 135.717Z" stroke="#CBDDF7" stroke-miterlimit="10"/>
<path d="M292.699 142.792H315.383" stroke="#CBDDF7" stroke-width="2" stroke-miterlimit="10" stroke-linecap="round"/>
<path d="M291.308 154.949H306.555" stroke="#CBDDF7" stroke-width="2" stroke-miterlimit="10" stroke-linecap="round"/>
<path d="M321.834 142.792H361.516" stroke="#CBDDF7" stroke-width="2" stroke-miterlimit="10" stroke-linecap="round"/>
<path d="M291.746 148.465H329.621" stroke="#CBDDF7" stroke-width="2" stroke-miterlimit="10" stroke-linecap="round"/>
<path d="M399.396 316.375L406.26 316.566L407.857 259.064L400.992 258.873L399.396 316.375Z" fill="#DDDDDD"/>
<path d="M400.926 261.348L403.543 261.42L403.556 260.939L400.94 260.866L400.926 261.348Z" fill="#BCBCBC"/>
<path d="M400.885 262.62L403.501 262.692L403.515 262.211L400.898 262.138L400.885 262.62Z" fill="#BCBCBC"/>
<path d="M400.854 263.88L403.471 263.953L403.484 263.471L400.867 263.399L400.854 263.88Z" fill="#BCBCBC"/>
<path d="M400.793 266.402L403.41 266.475L403.423 265.993L400.806 265.921L400.793 266.402Z" fill="#BCBCBC"/>
<path d="M400.751 267.674L403.368 267.747L403.381 267.265L400.764 267.193L400.751 267.674Z" fill="#BCBCBC"/>
<path d="M400.71 268.936L403.326 269.009L403.34 268.527L400.723 268.454L400.71 268.936Z" fill="#BCBCBC"/>
<path d="M400.659 271.458L403.276 271.531L403.289 271.049L400.673 270.976L400.659 271.458Z" fill="#BCBCBC"/>
<path d="M400.618 272.719L403.234 272.792L403.248 272.31L400.631 272.238L400.618 272.719Z" fill="#BCBCBC"/>
<path d="M400.576 274.002L403.193 274.074L403.206 273.592L400.59 273.52L400.576 274.002Z" fill="#BCBCBC"/>
<path d="M400.493 276.535L403.11 276.608L403.123 276.126L400.506 276.054L400.493 276.535Z" fill="#BCBCBC"/>
<path d="M400.484 277.774L403.101 277.847L403.115 277.365L400.498 277.292L400.484 277.774Z" fill="#BCBCBC"/>
<path d="M400.432 279.068L403.048 279.141L403.062 278.659L400.445 278.586L400.432 279.068Z" fill="#BCBCBC"/>
<path d="M400.36 281.601L402.976 281.673L402.99 281.192L400.373 281.119L400.36 281.601Z" fill="#BCBCBC"/>
<path d="M400.329 282.84L402.946 282.913L402.959 282.431L400.342 282.358L400.329 282.84Z" fill="#BCBCBC"/>
<path d="M400.309 284.112L402.926 284.185L402.939 283.703L400.322 283.631L400.309 284.112Z" fill="#BCBCBC"/>
<path d="M400.215 286.657L402.832 286.729L402.845 286.248L400.228 286.175L400.215 286.657Z" fill="#BCBCBC"/>
<path d="M400.185 287.917L402.801 287.989L402.815 287.508L400.198 287.435L400.185 287.917Z" fill="#BCBCBC"/>
<path d="M400.165 289.168L402.781 289.24L402.795 288.758L400.178 288.686L400.165 289.168Z" fill="#BCBCBC"/>
<path d="M400.082 291.722L402.698 291.795L402.712 291.313L400.095 291.241L400.082 291.722Z" fill="#BCBCBC"/>
<path d="M400.04 292.983L402.657 293.056L402.67 292.574L400.053 292.501L400.04 292.983Z" fill="#BCBCBC"/>
<path d="M399.998 294.255L402.615 294.328L402.628 293.846L400.012 293.774L399.998 294.255Z" fill="#BCBCBC"/>
<path d="M399.937 296.777L402.554 296.85L402.568 296.368L399.951 296.296L399.937 296.777Z" fill="#BCBCBC"/>
<path d="M399.907 298.039L402.523 298.111L402.537 297.63L399.92 297.557L399.907 298.039Z" fill="#BCBCBC"/>
<path d="M399.865 299.299L402.482 299.372L402.495 298.89L399.879 298.817L399.865 299.299Z" fill="#BCBCBC"/>
<path d="M399.815 301.821L402.432 301.894L402.445 301.412L399.828 301.34L399.815 301.821Z" fill="#BCBCBC"/>
<path d="M399.762 303.105L402.379 303.177L402.392 302.696L399.776 302.623L399.762 303.105Z" fill="#BCBCBC"/>
<path d="M399.765 304.313L402.382 304.386L402.395 303.904L399.778 303.831L399.765 304.313Z" fill="#BCBCBC"/>
<path d="M399.66 306.899L402.276 306.971L402.29 306.489L399.673 306.417L399.66 306.899Z" fill="#BCBCBC"/>
<path d="M399.64 308.149L402.257 308.221L402.27 307.739L399.653 307.667L399.64 308.149Z" fill="#BCBCBC"/>
<path d="M399.587 309.431L402.204 309.504L402.217 309.022L399.601 308.95L399.587 309.431Z" fill="#BCBCBC"/>
<path d="M399.504 311.965L402.121 312.038L402.134 311.556L399.518 311.483L399.504 311.965Z" fill="#BCBCBC"/>
<path d="M399.495 313.214L402.112 313.287L402.125 312.805L399.509 312.733L399.495 313.214Z" fill="#BCBCBC"/>
<path d="M399.454 314.476L402.071 314.548L402.084 314.067L399.467 313.994L399.454 314.476Z" fill="#BCBCBC"/>
<path d="M399.547 310.692L403.368 310.798L403.381 310.316L399.56 310.21L399.547 310.692Z" fill="#BCBCBC"/>
<path d="M399.413 315.758L403.234 315.864L403.248 315.383L399.427 315.276L399.413 315.758Z" fill="#BCBCBC"/>
<path d="M400.969 260.075L404.79 260.181L404.803 259.699L400.982 259.593L400.969 260.075Z" fill="#BCBCBC"/>
<path d="M400.835 265.13L404.656 265.236L404.67 264.755L400.849 264.649L400.835 265.13Z" fill="#BCBCBC"/>
<path d="M400.68 270.185L404.501 270.291L404.514 269.809L400.693 269.703L400.68 270.185Z" fill="#BCBCBC"/>
<path d="M400.535 275.263L404.356 275.369L404.37 274.887L400.549 274.781L400.535 275.263Z" fill="#BCBCBC"/>
<path d="M400.402 280.329L404.223 280.435L404.236 279.953L400.415 279.847L400.402 280.329Z" fill="#BCBCBC"/>
<path d="M400.258 285.394L404.079 285.5L404.092 285.019L400.271 284.913L400.258 285.394Z" fill="#BCBCBC"/>
<path d="M400.124 290.45L403.945 290.556L403.959 290.074L400.137 289.968L400.124 290.45Z" fill="#BCBCBC"/>
<path d="M399.98 295.505L403.801 295.611L403.814 295.129L399.993 295.023L399.98 295.505Z" fill="#BCBCBC"/>
<path d="M399.847 300.559L403.668 300.666L403.681 300.184L399.86 300.078L399.847 300.559Z" fill="#BCBCBC"/>
<path d="M399.691 305.625L403.512 305.731L403.526 305.25L399.705 305.144L399.691 305.625Z" fill="#BCBCBC"/>
<path d="M402.978 313.889L405.833 314.349L412.368 273.821L409.513 273.361L402.978 313.889Z" fill="#FFD41D"/>
<path d="M409.564 273.301L412.419 273.762L412.504 273.232L409.65 272.772L409.564 273.301Z" fill="#99735E"/>
<path d="M409.599 272.791L412.447 273.251L412.512 272.901C412.569 272.521 412.475 272.134 412.25 271.822C412.025 271.511 411.686 271.301 411.308 271.236C411.12 271.206 410.928 271.214 410.743 271.259C410.559 271.303 410.384 271.384 410.231 271.495C410.077 271.607 409.947 271.748 409.848 271.911C409.749 272.073 409.683 272.253 409.654 272.441L409.599 272.791Z" fill="#FFD41D"/>
<path d="M403.005 313.852L403.432 315.517L403.903 317.357L404.922 315.769L405.864 314.312L403.005 313.852Z" fill="#E59470"/>
<path d="M403.432 315.518L403.903 317.358L404.922 315.77C404.704 315.624 404.458 315.527 404.199 315.485C403.943 315.452 403.684 315.463 403.432 315.518Z" fill="#FFD41D"/>
<path d="M403.035 313.819L404.462 314.05L411.004 273.523L409.577 273.293L403.035 313.819Z" fill="black"/>
<path d="M403.74 313.946L405.168 314.177L411.71 273.65L410.283 273.42L403.74 313.946Z" fill="#E9E9E9"/>
<path d="M389.212 272.44L386.358 272.904L392.942 313.424L395.796 312.96L389.212 272.44Z" fill="#FFD41D"/>
<path d="M395.788 312.977L392.934 313.441L393.02 313.971L395.874 313.507L395.788 312.977Z" fill="#99735E"/>
<path d="M395.886 313.491L393.027 313.962L393.082 314.313C393.146 314.691 393.357 315.03 393.668 315.255C393.98 315.48 394.367 315.575 394.747 315.517C394.935 315.487 395.115 315.42 395.276 315.319C395.438 315.219 395.578 315.088 395.689 314.933C395.8 314.778 395.88 314.603 395.923 314.418C395.966 314.232 395.972 314.04 395.941 313.853L395.886 313.491Z" fill="#E8613D"/>
<path d="M389.205 272.451L388.274 270.994L387.255 269.406L386.784 271.224L386.357 272.911L389.205 272.451Z" fill="#E59470"/>
<path d="M388.274 270.994L387.244 269.406L386.784 271.235C387.04 271.29 387.305 271.29 387.562 271.235C387.812 271.198 388.053 271.117 388.274 270.994Z" fill="#FFD41D"/>
<path d="M389.205 272.465L387.778 272.697L394.363 313.217L395.79 312.985L389.205 272.465Z" fill="black"/>
<path d="M388.498 272.567L387.071 272.799L393.656 313.318L395.083 313.087L388.498 272.567Z" fill="#E9E9E9"/>
<path d="M399.734 266.081L396.846 266.236L399.052 307.228L401.939 307.073L399.734 266.081Z" fill="#80AAFF"/>
<path d="M401.947 307.046L399.06 307.202L399.089 307.738L401.976 307.582L401.947 307.046Z" fill="#99735E"/>
<path d="M401.987 307.577L399.106 307.741V308.103C399.129 308.485 399.301 308.842 399.587 309.096C399.872 309.351 400.247 309.482 400.628 309.461C400.818 309.451 401.004 309.404 401.176 309.322C401.348 309.24 401.502 309.125 401.629 308.984C401.756 308.842 401.854 308.677 401.917 308.498C401.981 308.319 402.008 308.128 401.997 307.939L401.987 307.577Z" fill="#E8613D"/>
<path d="M399.752 266.054L398.975 264.51L398.131 262.823L397.474 264.587L396.872 266.208L399.752 266.054Z" fill="#E59470"/>
<path d="M398.975 264.51L398.131 262.823L397.474 264.587C397.719 264.676 397.98 264.717 398.241 264.707C398.496 264.693 398.746 264.626 398.975 264.51Z" fill="#92B6EA"/>
<path d="M399.774 266.015L398.33 266.093L400.543 307.084L401.986 307.006L399.774 266.015Z" fill="#82A5D8"/>
<path d="M399.023 266.099L397.579 266.176L399.785 307.168L401.229 307.09L399.023 266.099Z" fill="#92B6EA"/>
<path d="M395.205 269.381L390.573 269.944L392.1 282.502L396.732 281.939L395.205 269.381Z" fill="#3F3F3F"/>
<path d="M396.729 281.954L392.097 282.517L395.612 311.438L400.244 310.875L396.729 281.954Z" fill="#C7D6E2"/>
<path d="M396.823 282.708L392.191 283.271L392.355 284.619L396.987 284.056L396.823 282.708Z" fill="#3F3F3F"/>
<g style="mix-blend-mode:soft-light">
<path d="M392.115 269.782L390.56 269.971L395.602 311.451L397.157 311.262L392.115 269.782Z" fill="#C7D6E2"/>
</g>
<path d="M410.497 293.93L407.956 320.939L407.77 323.042H392.063L389.336 293.93H410.497Z" fill="#A3A0D8"/>
<path d="M410.497 293.93L407.956 320.939H394.845L392.304 293.93H410.497Z" fill="#BFB8F4"/>
<path d="M366.521 310.238C366.521 310.238 358.46 305.529 356.719 296.263C356.719 296.263 364.309 297.84 368.11 310.238" fill="#D6D4FF"/>
<path d="M369.698 310.238C369.698 310.238 377.759 305.529 379.5 296.263C379.5 296.263 371.91 297.84 368.109 310.238" fill="#D6D4FF"/>
<path d="M367.266 309.483C367.266 309.483 361.45 302.178 363.17 292.912C363.17 292.912 369.676 297.118 368.745 310.064" fill="#D6D4FF"/>
<path d="M369.139 309.516C369.139 309.516 374.78 302.068 372.841 292.846C372.841 292.846 366.434 297.227 367.671 310.118" fill="#D6D4FF"/>
<path d="M376.697 308.366H359.139V323.043H376.697V308.366Z" fill="#594A5F"/>
<path d="M376.697 308.366H373.247V323.043H376.697V308.366Z" fill="#4C4051"/>
<path d="M344.561 458.211C344.561 458.211 291.549 386.634 308.187 371.3C324.824 355.966 349.128 409.887 344.561 458.211Z" fill="#D6D4FF"/>
<path d="M313.148 379.8C322.62 394.32 330.213 409.984 335.744 426.415C338.146 433.571 340.198 440.821 341.899 448.167C343.499 455.067 344.539 462.044 345.963 468.977C345.989 469.05 346.04 469.111 346.106 469.151C346.172 469.191 346.25 469.208 346.327 469.197C346.403 469.187 346.474 469.151 346.527 469.095C346.581 469.039 346.614 468.967 346.62 468.89C345.47 454.323 341.472 439.46 336.763 425.67C331.317 409.244 323.573 393.671 313.762 379.416C313.477 379.022 312.82 379.416 313.094 379.811L313.148 379.8Z" fill="#F5F5FF"/>
<path d="M311.779 389.602C316.259 392.778 320.541 396.393 325.043 399.46C325.328 399.657 325.591 399.252 325.394 399.011C321.654 394.857 317.142 391.471 312.108 389.044C312.07 389.022 312.029 389.008 311.986 389.002C311.944 388.997 311.9 389 311.858 389.011C311.817 389.022 311.778 389.041 311.743 389.068C311.709 389.094 311.68 389.127 311.659 389.164C311.637 389.201 311.623 389.243 311.618 389.285C311.612 389.328 311.615 389.372 311.626 389.413C311.637 389.455 311.656 389.494 311.683 389.528C311.709 389.563 311.742 389.591 311.779 389.613V389.602Z" fill="#F5F5FF"/>
<path d="M313.422 393.885C317.902 397.061 322.184 400.687 326.686 403.743C326.971 403.94 327.234 403.523 327.037 403.293C323.295 399.14 318.783 395.751 313.751 393.315C313.713 393.294 313.672 393.28 313.629 393.274C313.586 393.269 313.543 393.272 313.501 393.283C313.46 393.294 313.42 393.313 313.386 393.339C313.352 393.366 313.323 393.399 313.302 393.436C313.28 393.473 313.266 393.515 313.26 393.557C313.255 393.6 313.258 393.644 313.269 393.685C313.28 393.727 313.299 393.766 313.326 393.8C313.352 393.835 313.385 393.863 313.422 393.885Z" fill="#F5F5FF"/>
<path d="M355.382 450.018C355.382 450.018 406.488 377.039 389.457 362.187C372.425 347.335 349.545 401.825 355.382 450.018Z" fill="#D6D4FF"/>
<path d="M384.046 370.413C373.979 385.979 366.293 402.961 361.242 420.796C356.96 435.484 353.52 451.245 352.995 466.579C352.995 466.952 353.597 467.05 353.652 466.678C354.747 459.416 355.514 452.121 356.828 444.893C358.254 437.024 360.082 429.234 362.305 421.552C367.451 403.714 374.989 386.655 384.714 370.841C384.977 370.413 384.32 370.041 384.046 370.446V370.413Z" fill="#F5F5FF"/>
<path d="M356.872 415.112C356.468 421.198 356.87 427.312 358.066 433.293C358.085 433.359 358.127 433.416 358.184 433.454C358.242 433.491 358.311 433.507 358.378 433.497C358.446 433.488 358.509 433.455 358.554 433.403C358.599 433.351 358.624 433.285 358.625 433.217C358.623 430.374 358.473 427.534 358.175 424.706C357.978 421.508 357.869 418.299 357.529 415.112C357.529 415.025 357.495 414.941 357.433 414.879C357.371 414.818 357.288 414.783 357.201 414.783C357.114 414.783 357.03 414.818 356.968 414.879C356.907 414.941 356.872 415.025 356.872 415.112Z" fill="#0E7C74"/>
<path d="M351.385 424.137C351.385 424.137 299.906 351.388 316.916 336.514C333.926 321.64 357.025 375.923 351.385 424.137Z" fill="#A29EE5"/>
<path d="M321.702 345.014C339.501 373.644 349.468 406.349 352.852 439.712C353.531 446.426 353.816 453.14 354.32 459.854C354.334 459.932 354.375 460.003 354.436 460.054C354.497 460.105 354.574 460.133 354.654 460.133C354.734 460.133 354.811 460.105 354.872 460.054C354.933 460.003 354.974 459.932 354.988 459.854C355.306 446.951 353.663 433.797 351.472 421.103C348.711 404.55 344.024 388.376 337.507 372.91C333.319 363.047 328.25 353.582 322.36 344.63C322.097 344.214 321.429 344.63 321.702 345.014Z" fill="#F5F5FF"/>
<path d="M348.263 445.353C348.263 445.353 379.917 401.859 369.796 392.703C359.676 383.546 345.306 416.207 348.263 445.353Z" fill="#8C8CDD"/>
<path d="M366.346 397.587C358.556 409.129 352.933 421.993 349.753 435.55C347.277 445.571 345.262 456.579 345.7 466.94C345.714 467.019 345.756 467.089 345.817 467.14C345.878 467.191 345.955 467.219 346.034 467.219C346.114 467.219 346.191 467.191 346.252 467.14C346.313 467.089 346.354 467.019 346.368 466.94C347.639 456.47 348.384 446.13 350.936 435.878C354.237 422.467 359.662 409.669 367.003 397.971C367.277 397.554 366.62 397.182 366.346 397.587Z" fill="#F5F5FF"/>
<path d="M369.522 443.26L369.271 444.925L368.745 448.463L363.98 480.456C363.899 480.994 363.628 481.485 363.216 481.841C362.805 482.196 362.279 482.393 361.735 482.395H335.448C334.904 482.393 334.379 482.196 333.967 481.841C333.555 481.485 333.284 480.994 333.203 480.456L328.438 448.463L327.913 444.925L327.672 443.26H369.522Z" fill="#BFB8F4"/>
<path d="M369.271 444.925L368.745 448.463H328.471L327.946 444.925H369.271Z" fill="#F5F5FF"/>
<path d="M370.103 446.448H327.113C326.451 446.448 325.816 446.185 325.347 445.716C324.879 445.248 324.616 444.613 324.616 443.951C324.619 443.29 324.883 442.658 325.351 442.192C325.819 441.726 326.453 441.464 327.113 441.464H370.103C370.763 441.464 371.397 441.726 371.865 442.192C372.333 442.658 372.597 443.29 372.6 443.951C372.6 444.613 372.337 445.248 371.869 445.716C371.4 446.185 370.765 446.448 370.103 446.448Z" fill="#A29EE5"/>
<path style="mix-blend-mode:overlay" opacity="0.6" d="M246.468 96.4609L105.724 323.042H420.858L285.076 96.4609H246.468Z" fill="url(#paint0_linear_534_2256)"/>
<path d="M265.766 0V77.1516" stroke="#CBDDF7" stroke-miterlimit="10"/>
<path d="M265.766 102.661C269.19 102.661 271.966 99.8853 271.966 96.4615C271.966 93.0377 269.19 90.2622 265.766 90.2622C262.343 90.2622 259.567 93.0377 259.567 96.4615C259.567 99.8853 262.343 102.661 265.766 102.661Z" fill="white"/>
<path d="M285.076 96.4616C285.138 93.8878 284.684 91.3277 283.741 88.932C282.798 86.5362 281.386 84.3532 279.588 82.5112C277.789 80.6692 275.64 79.2054 273.268 78.2061C270.895 77.2067 268.346 76.6919 265.772 76.6919C263.197 76.6919 260.649 77.2067 258.276 78.2061C255.904 79.2054 253.755 80.6692 251.956 82.5112C250.158 84.3532 248.745 86.5362 247.803 88.932C246.86 91.3277 246.406 93.8878 246.468 96.4616H285.076Z" fill="#80AAFF"/>
<defs>
<linearGradient id="paint0_linear_534_2256" x1="263.291" y1="96.4609" x2="263.291" y2="314.466" gradientUnits="userSpaceOnUse">
<stop stop-color="white"/>
<stop offset="1" stop-color="white" stop-opacity="0"/>
</linearGradient>
</defs>
</svg>
