<svg width="12" height="12" viewBox="0 0 12 12" fill="none" xmlns="http://www.w3.org/2000/svg">
<path d="M10.8 10.8003V7.28433C10.8 5.55633 10.428 4.23633 8.41201 4.23633C7.44001 4.23633 6.79201 4.76433 6.52801 5.26833H6.50401V4.39233H4.59601V10.8003H6.58801V7.62033C6.58801 6.78033 6.74401 5.97633 7.77601 5.97633C8.79601 5.97633 8.80801 6.92433 8.80801 7.66833V10.7883H10.8V10.8003Z" fill="#444444"/>
<path d="M1.35602 4.39258H3.34802V10.8006H1.35602V4.39258Z" fill="#444444"/>
<path d="M2.35201 1.2002C1.71601 1.2002 1.20001 1.7162 1.20001 2.3522C1.20001 2.9882 1.71601 3.5162 2.35201 3.5162C2.98801 3.5162 3.50401 2.9882 3.50401 2.3522C3.50401 1.7162 2.98801 1.2002 2.35201 1.2002Z" fill="#444444"/>
</svg>
