<svg width="29" height="29" viewBox="0 0 29 29" fill="none" xmlns="http://www.w3.org/2000/svg">
<path d="M21.3059 16.3125L20.3 14.5635C20.1909 14.3718 20.0157 14.2265 19.8072 14.1547C19.5986 14.083 19.3711 14.0898 19.1672 14.1738L17.8259 14.7356C17.4466 14.444 17.0326 14.2005 16.5934 14.0106L16.4122 12.5788C16.3855 12.3577 16.2783 12.1543 16.1112 12.0072C15.944 11.8601 15.7286 11.7797 15.5059 11.7813H13.485C13.2624 11.7797 13.0469 11.8601 12.8798 12.0072C12.7126 12.1543 12.6055 12.3577 12.5788 12.5788L12.3975 14.0106C11.9583 14.2005 11.5443 14.444 11.165 14.7356L9.82375 14.1738C9.61985 14.0898 9.39231 14.083 9.18377 14.1547C8.97524 14.2265 8.80002 14.3718 8.69094 14.5635L7.69406 16.3125C7.58365 16.5048 7.54758 16.7309 7.59267 16.9481C7.63776 17.1652 7.76089 17.3582 7.93875 17.4906L9.10781 18.3969C9.04735 18.8359 9.04735 19.2811 9.10781 19.72L7.93875 20.6263C7.77424 20.7563 7.65993 20.9394 7.61531 21.1444C7.57069 21.3493 7.59852 21.5633 7.69406 21.75L8.7 23.4991C8.80908 23.6908 8.9843 23.8361 9.19284 23.9078C9.40137 23.9795 9.62891 23.9728 9.83281 23.8888L11.1741 23.3269C11.5534 23.6186 11.9674 23.8621 12.4066 24.0519L12.5878 25.4838C12.6145 25.7048 12.7217 25.9083 12.8888 26.0554C13.056 26.2025 13.2714 26.2829 13.4941 26.2813H15.5241C15.7467 26.2829 15.9622 26.2025 16.1293 26.0554C16.2965 25.9083 16.4036 25.7048 16.4303 25.4838L16.6116 24.0519C17.0508 23.8621 17.4648 23.6186 17.8441 23.3269L19.1853 23.8888C19.3892 23.9728 19.6168 23.9795 19.8253 23.9078C20.0338 23.8361 20.209 23.6908 20.3181 23.4991L21.3059 21.75C21.4164 21.5577 21.4524 21.3316 21.4073 21.1145C21.3622 20.8974 21.2391 20.7043 21.0613 20.5719L19.8922 19.6656C19.9527 19.2267 19.9527 18.7815 19.8922 18.3425L21.0613 17.4363C21.2258 17.3062 21.3401 17.1231 21.3847 16.9182C21.4293 16.7133 21.4015 16.4992 21.3059 16.3125ZM14.5 21.75C13.9623 21.75 13.4366 21.5906 12.9895 21.2918C12.5424 20.9931 12.194 20.5685 11.9882 20.0717C11.7824 19.5749 11.7286 19.0283 11.8335 18.5009C11.9384 17.9735 12.1973 17.4891 12.5776 17.1088C12.9578 16.7286 13.4422 16.4697 13.9696 16.3648C14.497 16.2599 15.0436 16.3137 15.5404 16.5195C16.0372 16.7253 16.4618 17.0737 16.7606 17.5208C17.0593 17.9679 17.2188 18.4936 17.2188 19.0313C17.2188 19.7523 16.9323 20.4439 16.4224 20.9537C15.9126 21.4636 15.2211 21.75 14.5 21.75Z" fill="#52921B"/>
<path d="M14.5 19.9375C15.0005 19.9375 15.4062 19.5318 15.4062 19.0312C15.4062 18.5307 15.0005 18.125 14.5 18.125C13.9995 18.125 13.5938 18.5307 13.5938 19.0312C13.5938 19.5318 13.9995 19.9375 14.5 19.9375Z" fill="#52921B"/>
<path d="M27.1875 4.53125C27.1875 4.05055 26.9966 3.58953 26.6567 3.24962C26.3167 2.90971 25.8557 2.71875 25.375 2.71875H12.1528L13.9653 4.53125H27.1875Z" fill="#52921B"/>
<path d="M12.9503 6.08094L9.59719 2.71875H3.625C3.1443 2.71875 2.68328 2.90971 2.34337 3.24962C2.00346 3.58953 1.8125 4.05055 1.8125 4.53125V22.6562C1.8125 23.137 2.00346 23.598 2.34337 23.9379C2.68328 24.2778 3.1443 24.4688 3.625 24.4688H7.1775L7.12313 24.3962L6.12625 22.5837C5.80013 22.0086 5.69477 21.3343 5.82988 20.6871C5.965 20.0399 6.33133 19.4641 6.86031 19.0675L6.96 19.0312L6.86031 18.9497C6.32293 18.5534 5.95019 17.9732 5.81313 17.3197C5.67608 16.6662 5.78431 15.9851 6.11719 15.4062L7.12313 13.5938C7.45205 13.0182 7.9799 12.5827 8.60741 12.3691C9.23493 12.1555 9.91887 12.1785 10.5306 12.4338L10.7572 12.5244V12.2797C10.8394 11.6182 11.1617 11.01 11.663 10.5705C12.1642 10.1311 12.8094 9.89116 13.4759 9.89625H15.5059C16.1725 9.89116 16.8177 10.1311 17.3189 10.5705C17.8202 11.01 18.1425 11.6182 18.2247 12.2797V12.5244L18.4513 12.4338C19.063 12.1785 19.7469 12.1555 20.3745 12.3691C21.002 12.5827 21.5298 13.0182 21.8588 13.5938L22.8556 15.4062C23.1817 15.9814 23.2871 16.6557 23.152 17.3029C23.0169 17.9501 22.6505 18.5259 22.1216 18.9225L22.0219 19.0041L22.1216 19.0856C22.6689 19.4802 23.05 20.0642 23.1907 20.7242C23.3314 21.3841 23.2216 22.0727 22.8828 22.6562L21.8769 24.4688L21.8225 24.5413H25.375C25.8557 24.5413 26.3167 24.3503 26.6566 24.0104C26.9965 23.6705 27.1875 23.2095 27.1875 22.7288V6.34375H13.5938C13.4745 6.34444 13.3562 6.32158 13.2458 6.27648C13.1354 6.23138 13.035 6.16493 12.9503 6.08094ZM4.53125 6.34375C4.2909 6.34375 4.06039 6.24827 3.89043 6.07832C3.72048 5.90836 3.625 5.67785 3.625 5.4375C3.625 5.19715 3.72048 4.96664 3.89043 4.79668C4.06039 4.62673 4.2909 4.53125 4.53125 4.53125C4.7716 4.53125 5.00211 4.62673 5.17207 4.79668C5.34202 4.96664 5.4375 5.19715 5.4375 5.4375C5.4375 5.67785 5.34202 5.90836 5.17207 6.07832C5.00211 6.24827 4.7716 6.34375 4.53125 6.34375ZM8.15625 6.34375C7.9159 6.34375 7.68539 6.24827 7.51543 6.07832C7.34548 5.90836 7.25 5.67785 7.25 5.4375C7.25 5.19715 7.34548 4.96664 7.51543 4.79668C7.68539 4.62673 7.9159 4.53125 8.15625 4.53125C8.3966 4.53125 8.62711 4.62673 8.79707 4.79668C8.96702 4.96664 9.0625 5.19715 9.0625 5.4375C9.0625 5.67785 8.96702 5.90836 8.79707 6.07832C8.62711 6.24827 8.3966 6.34375 8.15625 6.34375Z" fill="#52921B"/>
</svg>
