<svg width="30" height="30" viewBox="0 0 30 30" fill="none" xmlns="http://www.w3.org/2000/svg">
<path fill-rule="evenodd" clip-rule="evenodd" d="M20.4737 10.6126L17.7475 18.7951C17.5837 19.2851 17.8487 19.8164 18.34 19.9801C18.8312 20.1439 19.3625 19.8789 19.5262 19.3876L22.2525 11.2051C22.4162 10.7151 22.1512 10.1838 21.66 10.0201C21.1687 9.85635 20.6375 10.1213 20.4737 10.6126Z" fill="#52921B"/>
<path fill-rule="evenodd" clip-rule="evenodd" d="M22.86 12.9364L24.9238 15.0001L22.86 17.0639C22.4938 17.4301 22.4938 18.0239 22.86 18.3901C23.2263 18.7564 23.82 18.7564 24.1863 18.3901L26.9125 15.6626C27.2788 15.2964 27.2788 14.7039 26.9125 14.3376L24.1863 11.6101C23.82 11.2439 23.2263 11.2439 22.86 11.6101C22.4938 11.9764 22.4938 12.5701 22.86 12.9364Z" fill="#52921B"/>
<path fill-rule="evenodd" clip-rule="evenodd" d="M15.8137 11.6101L13.0875 14.3376C12.7212 14.7039 12.7212 15.2964 13.0875 15.6626L15.8137 18.3901C16.18 18.7564 16.7737 18.7564 17.14 18.3901C17.5062 18.0239 17.5062 17.4301 17.14 17.0639L15.0762 15.0001L17.14 12.9364C17.5062 12.5701 17.5062 11.9764 17.14 11.6101C16.7737 11.2439 16.18 11.2439 15.8137 11.6101Z" fill="#52921B"/>
<path fill-rule="evenodd" clip-rule="evenodd" d="M20.9375 19.105L20.7113 19.7825C20.33 20.9275 19.09 21.5475 17.945 21.1663C17.3125 20.955 16.84 20.4838 16.6087 19.91C16.0062 19.9463 15.3913 19.7338 14.93 19.2738L12.2037 16.5463C11.3487 15.6925 11.3487 14.3075 12.2037 13.4538L14.93 10.7263C15.7838 9.8725 17.17 9.8725 18.0237 10.7263C18.4087 11.1113 18.62 11.6038 18.6588 12.1075L19.2887 10.2175C19.5462 9.445 20.1925 8.9125 20.9375 8.76375V5C20.9375 4.08875 20.575 3.21375 19.9312 2.56875C19.2862 1.925 18.4113 1.5625 17.5 1.5625C14.445 1.5625 9.305 1.5625 6.25 1.5625C5.33875 1.5625 4.46375 1.925 3.81875 2.56875C3.175 3.21375 2.8125 4.08875 2.8125 5V25C2.8125 25.9113 3.175 26.7863 3.81875 27.4313C4.46375 28.075 5.33875 28.4375 6.25 28.4375H17.5C18.4113 28.4375 19.2862 28.075 19.9312 27.4313C20.575 26.7863 20.9375 25.9113 20.9375 25V19.105ZM9.375 25.3125H14.375C14.8925 25.3125 15.3125 24.8925 15.3125 24.375C15.3125 23.8575 14.8925 23.4375 14.375 23.4375H9.375C8.8575 23.4375 8.4375 23.8575 8.4375 24.375C8.4375 24.8925 8.8575 25.3125 9.375 25.3125ZM16.875 3.4375H6.875L7.65375 5.38375C7.93875 6.09625 8.6275 6.5625 9.395 6.5625H14.355C15.1225 6.5625 15.8112 6.09625 16.0962 5.38375L16.875 3.4375Z" fill="#52921B"/>
</svg>
