<svg width="27" height="27" viewBox="0 0 27 27" fill="none" xmlns="http://www.w3.org/2000/svg">
<path d="M9.67328 5.81849H17.2987H17.2998C17.7367 5.81849 18.0908 5.46418 18.0908 5.02747C18.0908 4.95888 18.0821 4.89255 18.0659 4.82931L17.2271 0.635901C17.1531 0.266143 16.8285 0 16.4515 0H10.5205C10.1436 0 9.81891 0.266143 9.74496 0.635901L8.89771 4.87236C8.85116 5.10472 8.91151 5.34553 9.06168 5.52886C9.21185 5.71219 9.43638 5.81849 9.67328 5.81849Z" fill="#52921B"/>
<path d="M20.6877 3.38916H19.391L19.6108 4.48834C19.652 4.66488 19.6728 4.84594 19.6728 5.02763C19.6728 6.3361 18.6082 7.40067 17.2987 7.40067H9.67326C8.95949 7.40067 8.29063 7.08406 7.83826 6.53221C7.3857 5.98014 7.20628 5.26205 7.34635 4.56229L7.58098 3.38937H6.28425C4.68018 3.38937 3.375 4.69433 3.375 6.2984V24.0911C3.375 25.6951 4.68018 27.0001 6.28425 27.0001H20.6877C22.2918 27.0001 23.597 25.6951 23.597 24.0911V6.2984C23.597 4.69433 22.2918 3.38916 20.6877 3.38916ZM8.40248 9.26368H14.3332C14.7702 9.26368 15.1243 9.61798 15.1243 10.0547C15.1243 10.4916 14.7702 10.8457 14.3332 10.8457H8.40248C7.96557 10.8457 7.61147 10.4916 7.61147 10.0547C7.61147 9.61798 7.96557 9.26368 8.40248 9.26368ZM9.19329 14.2909C9.19329 14.4992 9.10883 14.7033 8.96175 14.8504C8.81467 14.9975 8.61053 15.082 8.40228 15.082C8.19443 15.082 7.99029 14.9975 7.84321 14.8504C7.69613 14.7033 7.61167 14.4992 7.61167 14.2909C7.61167 14.0827 7.69613 13.8792 7.84321 13.7319C7.99029 13.5844 8.19443 13.4999 8.40228 13.4999C8.61053 13.4999 8.81467 13.5844 8.96175 13.7319C9.10883 13.8792 9.19329 14.0827 9.19329 14.2909ZM8.96175 23.3233C8.81467 23.4704 8.61053 23.5547 8.40269 23.5547C8.19443 23.5547 7.99029 23.4704 7.84321 23.3233C7.69613 23.1756 7.61126 22.9721 7.61126 22.7637C7.61126 22.5556 7.69613 22.3519 7.84321 22.2044C7.99029 22.0571 8.19443 21.9726 8.40269 21.9726C8.61053 21.9726 8.81467 22.0571 8.96175 22.2044C9.10883 22.3519 9.19329 22.5556 9.19329 22.7637C9.19329 22.9721 9.10883 23.1756 8.96175 23.3233ZM8.96175 19.0867C8.81467 19.2342 8.61053 19.3186 8.40228 19.3186C8.19443 19.3186 7.99029 19.2342 7.84321 19.0867C7.69551 18.9394 7.61126 18.7359 7.61126 18.5276C7.61126 18.3193 7.69551 18.1152 7.84321 17.9681C7.99029 17.821 8.19443 17.7366 8.40228 17.7366C8.61053 17.7366 8.81467 17.821 8.96175 17.9681C9.10883 18.1152 9.1937 18.3193 9.1937 18.5276C9.1937 18.7355 9.10883 18.9396 8.96175 19.0867ZM18.5695 23.5547H12.6387C12.2018 23.5547 11.8477 23.2006 11.8477 22.7637C11.8477 22.3269 12.2018 21.9726 12.6387 21.9726H18.5695C19.0064 21.9726 19.3605 22.3269 19.3605 22.7637C19.3605 23.2006 19.0064 23.5547 18.5695 23.5547ZM18.5695 19.3184H12.6387C12.2018 19.3184 11.8477 18.9643 11.8477 18.5274C11.8477 18.0907 12.2018 17.7364 12.6387 17.7364H18.5695C19.0064 17.7364 19.3605 18.0907 19.3605 18.5274C19.3605 18.9643 19.0064 19.3184 18.5695 19.3184ZM18.5695 15.0822H12.6387C12.2018 15.0822 11.8477 14.7281 11.8477 14.2911C11.8477 13.8542 12.2018 13.5001 12.6387 13.5001H18.5695C19.0064 13.5001 19.3605 13.8542 19.3605 14.2911C19.3605 14.7281 19.0064 15.0822 18.5695 15.0822Z" fill="#52921B"/>
</svg>
