<svg width="145" height="198" viewBox="0 0 145 198" fill="none" xmlns="http://www.w3.org/2000/svg">
<g opacity="0.07">
<path d="M68.0692 152.441L11.9116 156.522L-2.81161 157.592L-3.87742 142.924C7.67289 143.698 19.0813 140.021 28.0059 132.648C36.9305 125.275 42.694 114.766 44.1133 103.277C46.4074 102.64 48.75 102.194 51.1173 101.942L51.6694 101.913L102.567 98.2251L103.529 111.459C104.244 121.592 100.914 131.596 94.2672 139.277C87.6205 146.959 78.1997 151.693 68.0692 152.441Z" fill="url(#paint0_linear_534_2233)"/>
<path d="M102.569 98.2246L51.6454 101.942L51.0931 101.971C48.7257 102.223 46.3832 102.67 44.089 103.306C35.4479 105.687 27.7083 110.58 21.8517 117.366C15.9951 124.151 12.2851 132.522 11.1923 141.419C6.28229 142.771 1.18012 143.29 -3.90167 142.953L-7.98921 86.7075C-8.35635 81.6801 -7.72916 76.6296 -6.1436 71.8446C-4.55804 67.0597 -2.0452 62.6342 1.25145 58.8208C4.5481 55.0075 8.56403 51.8809 13.0695 49.6202C17.5749 47.3595 22.4814 46.009 27.5091 45.6454L40.6916 44.7316L98.3974 40.5214L102.569 98.2246Z" fill="url(#paint1_linear_534_2233)"/>
</g>
<defs>
<linearGradient id="paint0_linear_534_2233" x1="49.8264" y1="127.048" x2="44.2724" y2="50.5474" gradientUnits="userSpaceOnUse">
<stop stop-color="#478C0D"/>
<stop offset="1" stop-color="#555555"/>
</linearGradient>
<linearGradient id="paint1_linear_534_2233" x1="49.3709" y1="120.761" x2="54.0038" y2="184.434" gradientUnits="userSpaceOnUse">
<stop stop-color="#478C0D"/>
<stop offset="1" stop-color="#555555"/>
</linearGradient>
</defs>
</svg>
