<svg width="151" height="198" viewBox="0 0 151 198" fill="none" xmlns="http://www.w3.org/2000/svg">
<g opacity="0.07">
<path d="M76.8239 152.156L132.981 156.237L147.705 157.307L148.77 142.639C137.22 143.413 125.812 139.736 116.887 132.363C107.963 124.99 102.199 114.48 100.78 102.991C98.4856 102.355 96.1431 101.908 93.7757 101.656L93.2236 101.627L42.3258 97.9395L41.364 111.174C40.6487 121.307 43.9792 131.31 50.6259 138.992C57.2726 146.673 66.6934 151.407 76.8239 152.156Z" fill="url(#paint0_linear_534_2236)"/>
<path d="M42.3243 97.9389L93.2476 101.656L93.8 101.685C96.1673 101.938 98.5099 102.384 100.804 103.02C109.445 105.401 117.185 110.295 123.041 117.08C128.898 123.865 132.608 132.237 133.701 141.133C138.611 142.485 143.713 143.004 148.795 142.668L152.882 86.4219C153.249 81.3945 152.622 76.3439 151.037 71.559C149.451 66.774 146.938 62.3485 143.642 58.5352C140.345 54.7218 136.329 51.5953 131.824 49.3346C127.318 47.0738 122.412 45.7233 117.384 45.3597L104.202 44.446L46.4957 40.2358L42.3243 97.9389Z" fill="url(#paint1_linear_534_2236)"/>
</g>
<defs>
<linearGradient id="paint0_linear_534_2236" x1="95.0667" y1="126.762" x2="100.621" y2="50.2618" gradientUnits="userSpaceOnUse">
<stop stop-color="#478C0D"/>
<stop offset="1" stop-color="#555555"/>
</linearGradient>
<linearGradient id="paint1_linear_534_2236" x1="95.5221" y1="120.475" x2="90.8893" y2="184.148" gradientUnits="userSpaceOnUse">
<stop stop-color="#478C0D"/>
<stop offset="1" stop-color="#555555"/>
</linearGradient>
</defs>
</svg>
