<svg width="37" height="36" viewBox="0 0 37 36" fill="none" xmlns="http://www.w3.org/2000/svg">
<path d="M27.5525 12.4374L30.2506 22.5068L30.958 25.1467L28.3279 25.8514C28.0663 23.7242 27.0004 21.7778 25.3489 20.4118C23.6973 19.0457 21.5855 18.3638 19.447 18.5059C19.2514 18.1109 19.0886 17.7005 18.9603 17.2788L18.9358 17.1794L16.4924 8.05273L18.8654 7.41689C20.6831 6.93389 22.618 7.19109 24.2463 8.13214C25.8747 9.0732 27.0636 10.6214 27.5525 12.4374Z" fill="url(#paint0_linear_493_4873)"/>
<path d="M16.4923 8.05273L18.9419 17.183L18.9665 17.2824C19.0948 17.7041 19.2575 18.1145 19.4532 18.5095C20.1871 19.9979 21.3464 21.2348 22.7842 22.0634C24.222 22.892 25.8735 23.275 27.5292 23.1639C27.9462 24.0096 28.2182 24.9193 28.334 25.8551L18.2488 28.5574C17.3475 28.7992 16.4072 28.8611 15.4819 28.7395C14.5566 28.6178 13.6644 28.315 12.8562 27.8484C12.0479 27.3817 11.3395 26.7604 10.7715 26.0199C10.2035 25.2794 9.78705 24.4342 9.54582 23.5327L8.92052 21.1674L6.14504 10.821L16.4923 8.05273Z" fill="url(#paint1_linear_493_4873)"/>
<defs>
<linearGradient id="paint0_linear_493_4873" x1="23.5704" y1="16.6391" x2="9.85331" y2="20.3135" gradientUnits="userSpaceOnUse">
<stop stop-color="#478C0D"/>
<stop offset="1" stop-color="#555555"/>
</linearGradient>
<linearGradient id="paint1_linear_493_4873" x1="22.4431" y1="16.9411" x2="33.8599" y2="13.8809" gradientUnits="userSpaceOnUse">
<stop stop-color="#478C0D"/>
<stop offset="1" stop-color="#555555"/>
</linearGradient>
</defs>
</svg>
