<svg width="26" height="26" viewBox="0 0 26 26" fill="none" xmlns="http://www.w3.org/2000/svg">
<g clip-path="url(#clip0_493_4882)">
<path fill-rule="evenodd" clip-rule="evenodd" d="M23.1169 2.14941H2.88305C2.11869 2.15033 1.3859 2.45438 0.845419 2.99487C0.304937 3.53536 0.000900412 4.26816 0 5.03252L0 8.80673H26V5.03252C25.999 4.26821 25.6949 3.53551 25.1544 2.99507C24.614 2.45462 23.8813 2.15055 23.1169 2.14952V2.14941ZM0 10.1697V20.9677C0.000913849 21.732 0.304957 22.4648 0.845437 23.0053C1.38592 23.5458 2.1187 23.8498 2.88305 23.8507H23.1169C23.8813 23.8497 24.614 23.5456 25.1544 23.0051C25.6949 22.4647 25.999 21.732 26 20.9677V10.1697H0ZM19.0539 14.6061L17.3316 16.3287L19.0538 18.0513C19.1171 18.1146 19.1673 18.1897 19.2015 18.2723C19.2358 18.355 19.2535 18.4436 19.2535 18.533C19.2535 18.6225 19.2359 18.7111 19.2017 18.7938C19.1675 18.8765 19.1173 18.9516 19.054 19.0149C18.9908 19.0782 18.9157 19.1284 18.833 19.1626C18.7504 19.1969 18.6618 19.2145 18.5723 19.2146C18.4828 19.2146 18.3942 19.197 18.3116 19.1628C18.2289 19.1286 18.1538 19.0784 18.0905 19.0151L16.3679 17.2925L14.6448 19.0151C14.517 19.1429 14.3437 19.2147 14.1629 19.2147C13.9822 19.2148 13.8088 19.143 13.681 19.0152C13.5532 18.8874 13.4814 18.7141 13.4814 18.5333C13.4814 18.3526 13.5531 18.1792 13.6809 18.0514L15.4041 16.3287L13.6809 14.606C13.6177 14.5427 13.5675 14.4676 13.5332 14.3849C13.499 14.3022 13.4814 14.2136 13.4814 14.1241C13.4814 14.0346 13.499 13.946 13.5333 13.8633C13.5675 13.7806 13.6177 13.7055 13.681 13.6422C13.7443 13.5789 13.8194 13.5288 13.9021 13.4945C13.9848 13.4603 14.0734 13.4427 14.1629 13.4427C14.2524 13.4427 14.341 13.4603 14.4237 13.4946C14.5064 13.5288 14.5815 13.579 14.6448 13.6423L16.3679 15.3649L18.0905 13.6423C18.1538 13.579 18.2289 13.5289 18.3116 13.4946C18.3942 13.4604 18.4828 13.4428 18.5723 13.4428C18.6618 13.4429 18.7504 13.4605 18.833 13.4948C18.9157 13.529 18.9908 13.5792 19.054 13.6425C19.1173 13.7058 19.1675 13.7809 19.2017 13.8636C19.2359 13.9463 19.2535 14.0349 19.2535 14.1244C19.2535 14.2138 19.2358 14.3024 19.2015 14.3851C19.1673 14.4678 19.1171 14.5429 19.0538 14.6061H19.0539ZM11.9305 14.1218V16.6242C11.932 16.9656 11.8661 17.3039 11.7365 17.6197C11.6069 17.9356 11.4162 18.2227 11.1753 18.4646C10.9344 18.7066 10.6482 18.8985 10.3329 19.0295C10.0177 19.1605 9.67963 19.228 9.33824 19.228C8.99685 19.228 8.65882 19.1605 8.34357 19.0295C8.02831 18.8985 7.74203 18.7066 7.50117 18.4646C7.2603 18.2227 7.0696 17.9356 6.94 17.6197C6.81041 17.3039 6.74447 16.9656 6.74598 16.6242V14.1218C6.74598 13.9411 6.81777 13.7678 6.94554 13.64C7.07332 13.5122 7.24662 13.4404 7.42732 13.4404C7.60802 13.4404 7.78132 13.5122 7.90909 13.64C8.03687 13.7678 8.10865 13.9411 8.10865 14.1218V16.6242C8.10865 16.9503 8.23818 17.263 8.46874 17.4935C8.6993 17.7241 9.012 17.8536 9.33806 17.8536C9.66412 17.8536 9.97683 17.7241 10.2074 17.4935C10.4379 17.263 10.5675 16.9503 10.5675 16.6242V14.1218C10.569 13.942 10.6415 13.7702 10.7692 13.6436C10.8968 13.5171 11.0693 13.4461 11.249 13.4461C11.4287 13.4461 11.6012 13.5171 11.7288 13.6436C11.8565 13.7702 11.9289 13.942 11.9305 14.1218ZM14.5133 6.15936C14.5133 6.06988 14.5309 5.98127 14.5651 5.89861C14.5994 5.81594 14.6495 5.74082 14.7128 5.67755C14.7761 5.61428 14.8512 5.56409 14.9339 5.52986C15.0165 5.49562 15.1051 5.47801 15.1946 5.47802H21.8545C22.0342 5.47958 22.206 5.55206 22.3326 5.6797C22.4591 5.80734 22.5301 5.9798 22.5301 6.15953C22.5301 6.33927 22.4591 6.51173 22.3326 6.63937C22.206 6.76701 22.0342 6.83949 21.8545 6.84104H15.1946C15.1051 6.84104 15.0165 6.82341 14.9338 6.78915C14.8511 6.75488 14.776 6.70467 14.7127 6.64136C14.6494 6.57805 14.5993 6.5029 14.565 6.4202C14.5308 6.33749 14.5132 6.24886 14.5133 6.15936ZM3.46455 6.15936C3.46444 6.06988 3.48197 5.98126 3.51615 5.89857C3.55033 5.81588 3.60048 5.74074 3.66373 5.67745C3.72698 5.61417 3.80209 5.56398 3.88477 5.52976C3.96744 5.49554 4.05605 5.47796 4.14553 5.47802H4.14629C4.28108 5.47806 4.41284 5.51807 4.5249 5.593C4.63695 5.66792 4.72427 5.77438 4.77582 5.89893C4.82737 6.02348 4.84082 6.16052 4.81449 6.29272C4.78815 6.42492 4.7232 6.54633 4.62786 6.64162C4.53252 6.73691 4.41106 6.80178 4.27885 6.82804C4.14664 6.8543 4.0096 6.84076 3.88509 6.78914C3.76057 6.73752 3.65415 6.65013 3.5793 6.53803C3.50444 6.42593 3.46451 6.29415 3.46455 6.15936ZM6.41459 6.15936C6.41447 6.06988 6.432 5.98127 6.46618 5.89858C6.50035 5.81589 6.5505 5.74076 6.61375 5.67747C6.67699 5.61419 6.7521 5.564 6.83477 5.52977C6.91744 5.49555 7.00604 5.47796 7.09551 5.47802H7.09663C7.23141 5.47812 7.36314 5.51819 7.47515 5.59314C7.58717 5.6681 7.67444 5.77459 7.72594 5.89914C7.77744 6.0237 7.79085 6.16073 7.76448 6.29291C7.73811 6.42508 7.67314 6.54647 7.57779 6.64173C7.48243 6.73698 7.36098 6.80183 7.22877 6.82806C7.09657 6.85429 6.95955 6.84074 6.83505 6.78911C6.71055 6.73748 6.60415 6.65009 6.52931 6.538C6.45447 6.42591 6.41455 6.29414 6.41459 6.15936ZM9.36416 6.15936C9.36412 5.9787 9.43585 5.80543 9.56355 5.67766C9.69126 5.54989 9.86449 5.47808 10.0451 5.47802H10.0466C10.1814 5.47822 10.313 5.51837 10.425 5.59339C10.5369 5.66841 10.6241 5.77493 10.6756 5.8995C10.727 6.02406 10.7403 6.16107 10.7139 6.29322C10.6875 6.42536 10.6225 6.5467 10.5271 6.64191C10.4317 6.73711 10.3103 6.8019 10.1781 6.8281C10.0459 6.85429 9.90888 6.8407 9.78441 6.78906C9.65994 6.73741 9.55357 6.65003 9.47875 6.53795C9.40393 6.42586 9.36402 6.29412 9.36406 6.15936H9.36416Z" fill="#52921B"/>
</g>
<defs>
<clipPath id="clip0_493_4882">
<rect width="26" height="26" fill="white"/>
</clipPath>
</defs>
</svg>
