<svg width="28" height="28" viewBox="0 0 28 28" fill="none" xmlns="http://www.w3.org/2000/svg">
<path d="M18.7127 8.75C17.7896 4.4625 15.8209 1.75 14 1.75C12.1791 1.75 10.2104 4.4625 9.28725 8.75H18.7127Z" fill="#52921B"/>
<path d="M8.75 14C8.74978 15.1706 8.82783 16.3398 8.98362 17.5H19.0164C19.1722 16.3398 19.2502 15.1706 19.25 14C19.2502 12.8294 19.1722 11.6602 19.0164 10.5H8.98362C8.82783 11.6602 8.74978 12.8294 8.75 14Z" fill="#52921B"/>
<path d="M9.28725 19.25C10.2104 23.5375 12.1791 26.25 14 26.25C15.8209 26.25 17.7896 23.5375 18.7127 19.25H9.28725Z" fill="#52921B"/>
<path d="M20.5047 8.7499H26.0172C25.189 6.86494 23.9305 5.20033 22.3427 3.88957C20.7549 2.57881 18.8821 1.6584 16.8744 1.20215C18.5342 2.66252 19.8362 5.36277 20.5047 8.7499Z" fill="#52921B"/>
<path d="M26.6464 10.5H20.7839C20.9282 11.6611 21.0004 12.83 21 14C21.0001 15.17 20.9276 16.3389 20.783 17.5H26.6455C27.2836 15.2103 27.2845 12.7897 26.6464 10.5Z" fill="#52921B"/>
<path d="M16.8744 26.7977C18.8824 26.3417 20.7556 25.4214 22.3437 24.1107C23.9318 22.7999 25.1906 21.1352 26.019 19.25H20.5065C19.8363 22.6371 18.5342 25.3374 16.8744 26.7977Z" fill="#52921B"/>
<path d="M7.49525 19.25H1.98275C2.81119 21.1352 4.06995 22.7999 5.65804 24.1107C7.24613 25.4214 9.11934 26.3417 11.1274 26.7977C9.46575 25.3374 8.16375 22.6371 7.49525 19.25Z" fill="#52921B"/>
<path d="M11.1256 1.20215C9.11759 1.65815 7.24438 2.57845 5.65629 3.88922C4.0682 5.19999 2.80944 6.86474 1.981 8.7499H7.4935C8.16375 5.36277 9.46575 2.66252 11.1256 1.20215Z" fill="#52921B"/>
<path d="M7 14C6.99989 12.83 7.07236 11.6611 7.217 10.5H1.3545C0.71639 12.7897 0.71639 15.2103 1.3545 17.5H7.217C7.07236 16.3389 6.99989 15.17 7 14Z" fill="#52921B"/>
</svg>
