<svg width="158" height="38" viewBox="0 0 158 38" fill="none" xmlns="http://www.w3.org/2000/svg">
<path d="M155.235 25.4853L145.415 35.1951L142.841 37.7408L140.276 35.2046C142.556 33.5052 144.091 31.0072 144.567 28.2235C145.043 25.4398 144.423 22.5816 142.835 20.2356C143.16 19.7523 143.525 19.2963 143.926 18.8722L144.025 18.7788L152.927 9.98047L155.241 12.2687C157.009 14.0241 158.001 16.4008 158 18.8782C157.999 21.3555 157.005 23.7314 155.235 25.4853Z" fill="white"/>
<path d="M152.927 9.98055L144.024 18.7884L143.926 18.8819C143.525 19.306 143.16 19.762 142.835 20.2453C141.606 22.0628 140.951 24.2 140.953 26.3859C140.955 28.5718 141.613 30.7081 142.844 32.5237C142.146 33.5563 141.278 34.4658 140.275 35.2142L130.44 25.4892C129.56 24.6202 128.863 23.5884 128.387 22.4527C127.911 21.317 127.666 20.0998 127.666 18.8704C127.666 17.6411 127.911 16.4237 128.387 15.2881C128.863 14.1524 129.56 13.1206 130.44 12.2517L132.752 9.98055L142.84 0L152.927 9.98055Z" fill="#EDEDED"/>
<path d="M8.04584 37.9982C6.42073 37.9982 5.01933 37.733 3.84164 37.2029C2.71297 36.7128 1.759 35.8991 1.10312 34.867C0.460277 33.8411 0.100928 32.5667 0.0250719 31.0438C0.00964361 30.342 0 29.5888 0 28.7841C0 27.9794 0.00964361 27.211 0.0250719 26.4749C0.0944991 24.985 0.45835 23.7188 1.11662 22.6764C1.77228 21.6339 2.73071 20.8112 3.86671 20.3157C5.04312 19.7856 6.43616 19.5205 8.04584 19.5205C9.11646 19.5108 10.1829 19.6534 11.2125 19.9439C12.1285 20.1997 12.9902 20.617 13.7562 21.1757C14.4633 21.6923 15.0445 22.3589 15.4572 23.1264C15.8717 23.9242 16.0891 24.8077 16.0917 25.7045C16.1017 25.7748 16.0938 25.8464 16.0689 25.913C16.044 25.9795 16.0028 26.0389 15.949 26.0859C15.8403 26.1865 15.6967 26.2418 15.5478 26.2404H12.0514C11.8674 26.2521 11.6847 26.2023 11.5326 26.0992C11.3803 25.9565 11.272 25.774 11.2202 25.573C10.9772 24.6678 10.5838 24.0474 10.0399 23.7118C9.43015 23.3619 8.7331 23.1889 8.02849 23.2123C7.07579 23.2123 6.32302 23.4729 5.77017 23.9941C5.21733 24.5153 4.91455 25.3835 4.86183 26.5988C4.80912 27.9972 4.80912 29.4343 4.86183 30.9102C4.91326 32.1268 5.21604 32.9951 5.77017 33.5151C6.3243 34.035 7.07708 34.2962 8.02849 34.2988C8.73892 34.3203 9.44101 34.1425 10.0534 33.7858C10.6076 33.4426 10.9965 32.8267 11.2202 31.9381C11.2578 31.7346 11.363 31.5494 11.5191 31.4118C11.6769 31.31 11.8633 31.2605 12.0514 31.2707H15.5556C15.7044 31.2692 15.848 31.3246 15.9567 31.4251C16.0108 31.4719 16.0522 31.5312 16.0771 31.5979C16.1021 31.6645 16.1097 31.7362 16.0994 31.8065C16.0971 32.704 15.8796 33.5882 15.4649 34.3866C15.0522 35.1541 14.471 35.8206 13.7639 36.3373C12.9979 36.896 12.1362 37.3132 11.2202 37.5691C10.1884 37.8623 9.11932 38.0068 8.04584 37.9982Z" fill="white"/>
<path d="M24.9166 37.9983C23.465 37.9983 22.2436 37.7675 21.2523 37.306C20.3058 36.8859 19.5098 36.1927 18.969 35.3172C18.4173 34.3748 18.1093 33.3124 18.0722 32.2242C18.0555 31.881 18.0471 31.4914 18.0471 31.0553C18.0471 30.6205 18.0471 30.2392 18.0722 29.9112C18.1053 28.8129 18.4277 27.7422 19.0075 26.8049C19.5704 25.9397 20.374 25.2537 21.3218 24.8294C22.3169 24.3654 23.5152 24.134 24.9166 24.1353C26.318 24.1365 27.5252 24.3679 28.5383 24.8294C29.4861 25.2537 30.2897 25.9397 30.8526 26.8049C31.4316 27.7426 31.7539 28.8131 31.7879 29.9112C31.8053 30.2354 31.813 30.6167 31.813 31.0553C31.813 31.4939 31.813 31.881 31.7879 32.2242C31.7506 33.3121 31.4433 34.3743 30.8931 35.3172C30.351 36.1924 29.5545 36.8855 28.6078 37.306C27.6178 37.7675 26.3874 37.9983 24.9166 37.9983ZM24.9166 34.8671C25.6957 34.8671 26.2627 34.6364 26.6175 34.1749C26.9724 33.7135 27.1755 33.0201 27.2269 32.0946C27.2443 31.8391 27.2539 31.4958 27.2539 31.0686C27.2539 30.6415 27.2443 30.3059 27.2269 30.0428C27.1755 29.1351 26.9724 28.4461 26.6175 27.9757C26.2627 27.5054 25.6957 27.2701 24.9166 27.2701C24.1721 27.2701 23.6142 27.5054 23.2426 27.9757C22.871 28.4461 22.6679 29.1351 22.6332 30.0428C22.6158 30.2983 22.6062 30.6415 22.6062 31.0686C22.6062 31.4958 22.6158 31.8314 22.6332 32.0946C22.6679 33.0188 22.871 33.7122 23.2426 34.1749C23.6142 34.6377 24.1721 34.8684 24.9166 34.8671Z" fill="white"/>
<path d="M39.4363 37.9984C38.6691 38.0097 37.9069 37.8743 37.1915 37.5998C36.5355 37.3426 35.9487 36.9386 35.4771 36.4195C34.9818 35.8648 34.6064 35.2159 34.3739 34.5126C34.1004 33.6877 33.9516 32.8273 33.9323 31.9593C33.9149 31.618 33.9072 31.3148 33.9072 31.0478C33.9072 30.7809 33.9072 30.4758 33.9323 30.1383C33.9557 29.295 34.1045 28.4597 34.3739 27.6593C34.6064 26.9585 34.9775 26.3103 35.4655 25.7525C35.9364 25.227 36.522 24.8142 37.178 24.5454C37.8942 24.2552 38.6624 24.1113 39.4363 24.1221C40.2022 24.1029 40.9633 24.2472 41.6676 24.5454C42.2604 24.8068 42.7976 25.177 43.251 25.6362V20.1443C43.2471 20.059 43.2613 19.9739 43.2926 19.8943C43.324 19.8147 43.3717 19.7424 43.4329 19.6821C43.4941 19.6218 43.5673 19.5749 43.6478 19.5441C43.7284 19.5134 43.8146 19.4996 43.9009 19.5036H47.0675C47.2366 19.5021 47.3994 19.5665 47.5207 19.6829C47.5842 19.7418 47.6342 19.8135 47.6674 19.8931C47.7007 19.9727 47.7164 20.0583 47.7136 20.1443V37.0831C47.7092 37.2516 47.6395 37.4121 47.5189 37.5313C47.3984 37.6505 47.2361 37.7195 47.0656 37.7239H44.1246C44.0375 37.7274 43.9506 37.7122 43.87 37.6793C43.7895 37.6463 43.7171 37.5965 43.6579 37.5332C43.5393 37.4136 43.4734 37.2525 43.4747 37.085V36.2632C43.0327 36.7816 42.4845 37.2015 41.8663 37.495C41.1067 37.8467 40.2748 38.0191 39.4363 37.9984ZM40.8634 34.5661C41.3478 34.5892 41.8266 34.4553 42.2269 34.1847C42.5604 33.9401 42.8203 33.6106 42.979 33.2313C43.146 32.8228 43.238 32.3883 43.251 31.9479C43.2683 31.6047 43.278 31.2805 43.278 30.9716C43.278 30.6627 43.2683 30.348 43.251 30.0182C43.2375 29.606 43.1404 29.2007 42.9655 28.8264C42.7968 28.462 42.5299 28.1506 42.1941 27.9263C41.7837 27.6977 41.3202 27.5789 40.8491 27.5812C40.3781 27.5836 39.9158 27.7071 39.5077 27.9397C39.1685 28.182 38.9149 28.5234 38.7826 28.9159C38.6286 29.3546 38.5365 29.8121 38.5087 30.2756C38.4566 30.8045 38.4566 31.337 38.5087 31.8659C38.5365 32.33 38.6286 32.7882 38.7826 33.2274C38.9149 33.6194 39.1686 33.9603 39.5077 34.2018C39.9078 34.4568 40.3783 34.5821 40.8538 34.5603L40.8634 34.5661Z" fill="white"/>
<path d="M56.9978 37.9983C54.9562 37.9983 53.3298 37.451 52.1187 36.3564C50.9075 35.2619 50.2756 33.6366 50.2229 31.4806V30.5748C50.2391 29.3591 50.5555 28.1657 51.1447 27.0986C51.687 26.1511 52.5001 25.3829 53.4821 24.8904C54.5673 24.3639 55.7643 24.1023 56.9728 24.1277C58.4937 24.1277 59.7524 24.427 60.7488 25.0258C61.723 25.6033 62.5037 26.4515 62.9936 27.4647C63.5113 28.565 63.7685 29.7676 63.7458 30.981V31.5969C63.7496 31.682 63.7355 31.767 63.7043 31.8465C63.6731 31.9259 63.6255 31.9981 63.5645 32.0584C63.5036 32.1187 63.4306 32.1657 63.3502 32.1966C63.2699 32.2274 63.1839 32.2414 63.0978 32.2376H54.7916V32.4169C54.8024 32.883 54.8951 33.3436 55.0655 33.7783C55.2103 34.1638 55.4615 34.5014 55.7906 34.7528C56.133 34.9999 56.5491 35.1266 56.9728 35.1131C57.2718 35.1227 57.5691 35.0653 57.8425 34.9454C58.0545 34.8492 58.2498 34.7205 58.4211 34.564C58.5499 34.4472 58.6716 34.3231 58.7856 34.1922C58.8865 34.0531 59.0143 33.935 59.1617 33.8451C59.3078 33.7952 59.4624 33.7738 59.6168 33.7821H62.8336C62.9912 33.7763 63.1449 33.8318 63.2617 33.9366C63.3179 33.9881 63.3604 34.0524 63.3856 34.1239C63.4108 34.1953 63.4179 34.2717 63.4064 34.3466C63.3513 34.7286 63.1994 35.0907 62.9647 35.3992C62.6306 35.8664 62.2231 36.2778 61.7575 36.6177C61.1572 37.0567 60.4854 37.3908 59.7711 37.6055C58.8733 37.8796 57.9374 38.0121 56.9978 37.9983ZM54.7916 29.7091H59.179V29.6576C59.191 29.1627 59.1072 28.6702 58.9322 28.2065C58.783 27.8264 58.5207 27.4999 58.18 27.2702C57.8204 27.0421 57.3999 26.9259 56.9728 26.9365C56.5578 26.9265 56.1498 27.043 55.8041 27.2702C55.4668 27.5035 55.2055 27.8289 55.0519 28.2065C54.8674 28.668 54.7789 29.1615 54.7916 29.6576V29.7091Z" fill="white"/>
<path d="M66.8351 37.7407C66.748 37.7443 66.6612 37.7291 66.5806 37.6961C66.5 37.6632 66.4276 37.6134 66.3684 37.5501C66.2503 37.4303 66.1851 37.2691 66.1871 37.1019V25.0448C66.1833 24.9596 66.1974 24.8746 66.2287 24.7951C66.2599 24.7157 66.3075 24.6436 66.3684 24.5833C66.4294 24.523 66.5023 24.476 66.5827 24.4451C66.663 24.4143 66.749 24.4003 66.8351 24.4041H69.6643C69.7504 24.4003 69.8364 24.4143 69.9167 24.4451C69.9971 24.476 70.07 24.523 70.131 24.5833C70.192 24.6436 70.2395 24.7157 70.2708 24.7951C70.302 24.8746 70.3161 24.9596 70.3123 25.0448V25.9181C70.7062 25.4166 71.2014 25.0016 71.7664 24.6996C72.443 24.3345 73.2019 24.1443 73.9726 24.1466C75.9796 24.0945 77.3553 24.8306 78.0997 26.3548C78.5165 25.6864 79.1029 25.1375 79.8007 24.7625C80.5442 24.3604 81.3778 24.1487 82.2253 24.1467C83.0728 24.1447 83.9074 24.3525 84.6528 24.7511C85.4013 25.1835 86.0023 25.8268 86.3789 26.5988C86.8134 27.429 87.0301 28.5026 87.0288 29.8196V37.1076C87.03 37.2747 86.9649 37.4356 86.8475 37.5557C86.7878 37.6189 86.7151 37.6686 86.6342 37.7015C86.5533 37.7344 86.4663 37.7497 86.3789 37.7464H83.3684C83.2794 37.7491 83.1908 37.7335 83.1082 37.7007C83.0255 37.6679 82.9507 37.6185 82.8882 37.5557C82.8269 37.498 82.7781 37.4285 82.745 37.3515C82.7118 37.2744 82.6949 37.1914 82.6954 37.1076V29.9988C82.7165 29.511 82.6283 29.0245 82.437 28.5743C82.2928 28.2515 82.0465 27.9838 81.735 27.8116C81.422 27.6529 81.0741 27.5736 80.7225 27.5809C80.4015 27.5829 80.0858 27.6621 79.8026 27.8116C79.4834 27.9817 79.2284 28.2492 79.0755 28.5743C78.8737 29.0217 78.7799 29.5094 78.8017 29.9988V37.1076C78.8037 37.2748 78.7385 37.436 78.6204 37.5557C78.5611 37.619 78.4887 37.6687 78.4082 37.7016C78.3276 37.7346 78.2408 37.7498 78.1537 37.7464H75.1413C75.0542 37.75 74.9673 37.7348 74.8868 37.7018C74.8062 37.6689 74.7338 37.6191 74.6746 37.5557C74.6141 37.4973 74.566 37.4277 74.5329 37.3508C74.4998 37.2739 74.4824 37.1912 74.4818 37.1076V29.9988C74.5051 29.5081 74.4071 29.0192 74.1963 28.5743C74.0376 28.2532 73.7841 27.9872 73.4693 27.8116C73.1724 27.6562 72.8409 27.5769 72.505 27.5809C72.1752 27.581 71.8502 27.6601 71.5581 27.8116C71.2398 27.9828 70.985 28.25 70.831 28.5743C70.6315 29.0129 70.5384 29.4916 70.5591 29.9721V37.1076C70.5547 37.2762 70.4851 37.4367 70.3645 37.5559C70.2439 37.6752 70.0816 37.744 69.9111 37.7484L66.8351 37.7407Z" fill="white"/>
<path d="M90.5849 22.4707C90.4986 22.4748 90.4124 22.461 90.3318 22.4303C90.2512 22.3996 90.178 22.3525 90.1169 22.2922C90.0557 22.2319 90.0079 22.1597 89.9766 22.0801C89.9453 22.0005 89.9311 21.9153 89.9349 21.83V19.5151C89.9343 19.3475 89.9993 19.1863 90.1162 19.0651C90.1762 19.0022 90.249 18.9526 90.3298 18.9197C90.4106 18.8868 90.4975 18.8714 90.5849 18.8744H93.6994C93.8702 18.8787 94.0328 18.9479 94.1534 19.0675C94.2741 19.1871 94.3435 19.348 94.3474 19.5169V21.8262C94.351 21.9124 94.3356 21.9982 94.3023 22.0779C94.269 22.1576 94.2186 22.2292 94.1546 22.2877C94.0333 22.4041 93.8704 22.4685 93.7014 22.4669L90.5849 22.4707ZM90.6099 37.741C90.5228 37.7444 90.436 37.7291 90.3554 37.6962C90.2749 37.6633 90.2025 37.6135 90.1432 37.5503C90.0251 37.4306 89.9599 37.2694 89.9619 37.1022V25.045C89.9581 24.9599 89.9723 24.8748 90.0035 24.7954C90.0347 24.7159 90.0823 24.6438 90.1432 24.5835C90.2042 24.5233 90.2771 24.4762 90.3575 24.4454C90.4378 24.4145 90.5238 24.4005 90.6099 24.4043H93.6724C93.7587 24.4003 93.8449 24.414 93.9255 24.4447C94.0061 24.4755 94.0793 24.5225 94.1404 24.5828C94.2016 24.6431 94.2494 24.7153 94.2807 24.7949C94.312 24.8745 94.3262 24.9597 94.3224 25.045V37.1078C94.3235 37.2749 94.2584 37.4358 94.1411 37.556C94.0814 37.6191 94.0086 37.6689 93.9278 37.7018C93.8469 37.7347 93.7598 37.75 93.6724 37.7467L90.6099 37.741Z" fill="white"/>
<path d="M98.0331 37.7407C97.946 37.7441 97.8592 37.7288 97.7786 37.6959C97.6981 37.663 97.6257 37.6132 97.5664 37.55C97.4483 37.4303 97.3831 37.2691 97.3851 37.1019V25.0447C97.3813 24.9595 97.3954 24.8745 97.4267 24.7951C97.4579 24.7156 97.5055 24.6435 97.5664 24.5832C97.6274 24.523 97.7003 24.4759 97.7807 24.4451C97.861 24.4142 97.947 24.4002 98.0331 24.404H101.018C101.196 24.3987 101.369 24.4631 101.499 24.5832C101.562 24.6422 101.612 24.7138 101.645 24.7934C101.679 24.873 101.694 24.9586 101.692 25.0447V26.021C102.166 25.4573 102.758 25.0019 103.427 24.6862C104.229 24.3109 105.109 24.126 105.996 24.1466C106.928 24.1288 107.847 24.3593 108.657 24.814C109.442 25.2759 110.073 25.9538 110.474 26.7647C110.915 27.6215 111.136 28.6824 111.136 29.9473V37.1075C111.137 37.2746 111.072 37.4355 110.954 37.5557C110.895 37.6188 110.822 37.6686 110.741 37.7015C110.66 37.7344 110.573 37.7497 110.486 37.7464H107.207C107.036 37.7425 106.874 37.6738 106.753 37.5546C106.632 37.4353 106.562 37.2746 106.557 37.1057V30.0998C106.557 29.2951 106.364 28.6747 105.979 28.2387C105.593 27.8027 105.014 27.5846 104.243 27.5846C103.929 27.5701 103.616 27.6207 103.323 27.7334C103.031 27.8461 102.765 28.0182 102.544 28.2387C102.12 28.676 101.908 29.2963 101.908 30.0998V37.1057C101.903 37.2742 101.833 37.4347 101.713 37.5539C101.592 37.6731 101.43 37.742 101.26 37.7464L98.0331 37.7407Z" fill="white"/>
<path d="M120.847 37.7409C119.865 37.7652 118.888 37.5866 117.98 37.2166C117.196 36.8837 116.545 36.3064 116.124 35.5728C115.693 34.8291 115.476 33.8668 115.475 32.6858V27.7584H113.452C113.274 27.7638 113.101 27.6993 112.971 27.5792C112.908 27.5205 112.857 27.4489 112.824 27.3692C112.791 27.2896 112.775 27.2038 112.778 27.1178V25.045C112.775 24.9589 112.791 24.8731 112.824 24.7935C112.857 24.7138 112.908 24.6423 112.971 24.5835C113.101 24.4634 113.274 24.399 113.452 24.4043H115.475V20.1691C115.472 20.0831 115.487 19.9974 115.521 19.9178C115.554 19.8382 115.604 19.7665 115.667 19.7076C115.789 19.5911 115.953 19.5267 116.123 19.5283H119.133C119.219 19.5249 119.305 19.5391 119.385 19.57C119.466 19.6008 119.539 19.6476 119.6 19.7076C119.662 19.7673 119.711 19.8392 119.745 19.9186C119.778 19.9979 119.794 20.0832 119.793 20.1691V24.4043H123.036C123.214 24.399 123.387 24.4634 123.517 24.5835C123.58 24.6425 123.63 24.7141 123.663 24.7937C123.697 24.8732 123.712 24.9589 123.709 25.045V27.1254C123.712 27.2114 123.697 27.297 123.663 27.3766C123.63 27.4562 123.58 27.5279 123.517 27.5868C123.387 27.707 123.214 27.7714 123.036 27.7661H119.785V32.3426C119.759 32.8266 119.877 33.3075 120.122 33.7269C120.346 34.0702 120.728 34.2418 121.264 34.2418H123.262C123.348 34.2383 123.434 34.2525 123.514 34.2834C123.595 34.3144 123.668 34.3614 123.729 34.4216C123.79 34.4818 123.838 34.5538 123.869 34.6331C123.901 34.7125 123.915 34.7973 123.912 34.8825V37.1154C123.913 37.2829 123.847 37.444 123.729 37.5636C123.669 37.6268 123.597 37.6766 123.516 37.7095C123.436 37.7424 123.349 37.7577 123.262 37.7543L120.847 37.7409Z" fill="white"/>
</svg>
