<svg width="150" height="198" viewBox="0 0 150 198" fill="none" xmlns="http://www.w3.org/2000/svg">
<path d="M31.8239 152.156L87.9814 156.237L102.705 157.307L103.77 142.639C92.2202 143.413 80.8117 139.736 71.8872 132.363C62.9626 124.99 57.1991 114.48 55.7798 102.991C53.4856 102.355 51.1431 101.908 48.7757 101.656L48.2236 101.627L-2.67421 97.9395L-3.63599 111.174C-4.35129 121.307 -1.02077 131.31 5.62591 138.992C12.2726 146.673 21.6934 151.407 31.8239 152.156Z" fill="white" fill-opacity="0.79"/>
<path d="M-2.67568 97.9389L48.2476 101.656L48.8 101.685C51.1673 101.938 53.5099 102.384 55.804 103.02C64.4452 105.401 72.1848 110.295 78.0414 117.08C83.898 123.865 87.6079 132.237 88.7007 141.133C93.6108 142.485 98.7129 143.004 103.795 142.668L107.882 86.4219C108.249 81.3945 107.622 76.3439 106.037 71.559C104.451 66.774 101.938 62.3485 98.6416 58.5352C95.345 54.7218 91.329 51.5953 86.8236 49.3346C82.3182 47.0738 77.4116 45.7233 72.384 45.3597L59.2015 44.446L1.49566 40.2358L-2.67568 97.9389Z" fill="white" fill-opacity="0.79"/>
</svg>
