<svg width="157" height="198" viewBox="0 0 157 198" fill="none" xmlns="http://www.w3.org/2000/svg">
<path d="M117.422 152.156L61.2649 156.237L46.5417 157.307L45.4759 142.639C57.0262 143.413 68.4346 139.736 77.3592 132.363C86.2837 124.99 92.0473 114.48 93.4666 102.991C95.7607 102.355 98.1032 101.908 100.471 101.656L101.023 101.627L151.921 97.9395L152.882 111.174C153.598 121.307 150.267 131.31 143.62 138.992C136.974 146.673 127.553 151.407 117.422 152.156Z" fill="white" fill-opacity="0.79"/>
<path d="M151.922 97.9389L100.999 101.656L100.446 101.685C98.079 101.938 95.7365 102.384 93.4423 103.02C84.8012 105.401 77.0616 110.295 71.205 117.08C65.3483 123.865 61.6384 132.237 60.5456 141.133C55.6356 142.485 50.5334 143.004 45.4516 142.668L41.3641 86.4219C40.9969 81.3945 41.6241 76.3439 43.2097 71.559C44.7952 66.774 47.3081 62.3485 50.6047 58.5352C53.9014 54.7218 57.9173 51.5953 62.4227 49.3346C66.9281 47.0738 71.8347 45.7233 76.8624 45.3597L90.0448 44.446L147.751 40.2358L151.922 97.9389Z" fill="white" fill-opacity="0.79"/>
</svg>
