<svg width="154" height="198" viewBox="0 0 154 198" fill="none" xmlns="http://www.w3.org/2000/svg">
<path d="M35.8239 45.3473L91.9814 41.2662L106.705 40.1962L107.77 54.8644C96.2202 54.0903 84.8117 57.7671 75.8872 65.1401C66.9626 72.5131 61.1991 83.0229 59.7798 94.5117C57.4856 95.1481 55.1431 95.5945 52.7757 95.8467L52.2236 95.8756L1.32579 99.5635L0.364013 86.3291C-0.351292 76.1962 2.97923 66.193 9.62591 58.5113C16.2726 50.8296 25.6934 46.0958 35.8239 45.3473Z" fill="white" fill-opacity="0.79"/>
<path d="M1.32432 99.564L52.2476 95.8467L52.8 95.8175C55.1673 95.5653 57.5099 95.1189 59.804 94.4825C68.4452 92.1016 76.1848 87.2082 82.0414 80.423C87.898 73.6378 91.6079 65.2663 92.7007 56.37C97.6108 55.0175 102.713 54.4987 107.795 54.8352L111.882 111.081C112.249 116.108 111.622 121.159 110.037 125.944C108.451 130.729 105.938 135.154 102.642 138.968C99.345 142.781 95.329 145.908 90.8236 148.168C86.3182 150.429 81.4116 151.78 76.384 152.143L63.2015 153.057L5.49566 157.267L1.32432 99.564Z" fill="white" fill-opacity="0.79"/>
</svg>
