<svg width="153" height="198" viewBox="0 0 153 198" fill="none" xmlns="http://www.w3.org/2000/svg">
<path d="M117.422 45.3473L61.2649 41.2662L46.5417 40.1962L45.4759 54.8644C57.0262 54.0903 68.4346 57.7671 77.3592 65.1401C86.2837 72.5131 92.0473 83.0229 93.4666 94.5117C95.7607 95.1481 98.1032 95.5945 100.471 95.8467L101.023 95.8756L151.921 99.5635L152.882 86.3291C153.598 76.1962 150.267 66.193 143.62 58.5113C136.974 50.8296 127.553 46.0958 117.422 45.3473Z" fill="white" fill-opacity="0.79"/>
<path d="M151.922 99.564L100.999 95.8467L100.446 95.8175C98.079 95.5653 95.7365 95.1189 93.4423 94.4825C84.8012 92.1016 77.0616 87.2082 71.205 80.423C65.3483 73.6378 61.6384 65.2663 60.5456 56.37C55.6356 55.0175 50.5334 54.4987 45.4516 54.8352L41.3641 111.081C40.9969 116.108 41.6241 121.159 43.2097 125.944C44.7952 130.729 47.3081 135.154 50.6047 138.968C53.9014 142.781 57.9173 145.908 62.4227 148.168C66.9281 150.429 71.8347 151.78 76.8624 152.143L90.0448 153.057L147.751 157.267L151.922 99.564Z" fill="white" fill-opacity="0.79"/>
</svg>
